<svg xmlns="http://www.w3.org/2000/svg" width="159.075" height="38.172" viewBox="0 0 159.075 38.172"><defs><style>.a{fill:#fffcfc;}.b{fill:#e81e25;}.c{fill:#fff;}.d{fill:#0276c9;}</style></defs><g transform="translate(-16.6 -138.59)"><g transform="translate(54.529 138.59)"><path class="a" d="M111.284,166.687h5.778v20.507h-5.778v-2.653a7.351,7.351,0,0,1-6.3,3.315c-6.3,0-10.465-4.926-10.465-10.943,0-6.06,4.123-10.894,10.183-10.894a7.417,7.417,0,0,1,6.581,3.315Zm-10.8,10.232a5.686,5.686,0,1,0,5.685-5.778A5.617,5.617,0,0,0,100.488,176.919Z" transform="translate(-94.52 -152.668)"/><path class="a" d="M166.462,172.942a6.672,6.672,0,0,0-4.736-1.8,5.51,5.51,0,0,0-5.778,5.778,5.713,5.713,0,0,0,5.968,5.827,6.687,6.687,0,0,0,4.546-1.8v5.637a11.843,11.843,0,0,1-13.216-1.7,10.534,10.534,0,0,1-3.266-7.861,10.574,10.574,0,0,1,10.943-10.986,12.243,12.243,0,0,1,5.539,1.232Z" transform="translate(-122.984 -152.673)"/><path class="a" d="M192.785,138.59h5.778v16.672a7.539,7.539,0,0,1,6.347-3.315,7.825,7.825,0,0,1,6.06,2.512,8.634,8.634,0,0,1,1.611,5.778v12.885H206.8V161.945c0-1.134-.049-2.935-1.09-4.026a3.694,3.694,0,0,0-2.7-1.042,3.941,3.941,0,0,0-3.553,1.8,7.057,7.057,0,0,0-.9,3.977v10.465H192.78V138.59Z" transform="translate(-144.95 -138.59)"/><path class="a" d="M259.374,166.687h5.778v20.507h-5.778v-2.653a7.351,7.351,0,0,1-6.3,3.315c-6.3,0-10.465-4.926-10.465-10.943,0-6.06,4.123-10.894,10.183-10.894a7.417,7.417,0,0,1,6.581,3.315Zm-10.8,10.232a5.686,5.686,0,1,0,5.685-5.778A5.617,5.617,0,0,0,248.573,176.919Z" transform="translate(-170.525 -152.668)"/><path class="b" d="M300.21,167.39V187.9h5.778V167.39Z" transform="translate(-200.087 -153.371)"/><circle class="b" cx="3.456" cy="3.456" r="3.456" transform="translate(99.553 1.898)"/><path class="a" d="M326.741,164.926v15.581h-5.778V164.926H318.69V160h2.273V152.99h5.778V160h3.977v4.926Z" transform="translate(-209.572 -145.981)"/></g><g transform="translate(30.653 145.657)"><path class="c" d="M55.556,160.323h.331v.482c.073,0,.136,0,.2.01a.752.752,0,0,1,.706.584.676.676,0,0,1-.472.745,1.059,1.059,0,0,1-.35.058c-.871,0-1.747,0-2.619,0H46.273a.715.715,0,0,1-.75-.949.816.816,0,0,1,.759-.448h.1v-.487h.331c0-.029,0-.054,0-.078v-3.539a3.232,3.232,0,0,1,.72-2.049,3.732,3.732,0,0,1,.8-.759,4.4,4.4,0,0,1,2.59-.789,11.219,11.219,0,0,1,1.144.029,4.14,4.14,0,0,1,2.57,1.183,3.265,3.265,0,0,1,.93,1.64,3.359,3.359,0,0,1,.083.73c.01,1.188,0,2.375,0,3.558A.156.156,0,0,0,55.556,160.323Zm-4.05-6.479a.018.018,0,0,1,0,.015l.024.015c.219.078.443.151.657.229a2.9,2.9,0,0,1,.745.433,3.224,3.224,0,0,1,1.339,2.575c.015,1.042,0,2.078,0,3.12v.083h.886v-3.208a2.829,2.829,0,0,0-.18-1.022,3.4,3.4,0,0,0-1.957-1.937,3.543,3.543,0,0,0-1.061-.268C51.813,153.868,51.657,153.858,51.506,153.844Z" transform="translate(-45.47 -153.108)"/></g><g transform="translate(16.6 141.107)"><path class="a" d="M27.854,165.713a4.944,4.944,0,0,0,.472-4.133c.01,0,8.8,2.692,15.659,0l0,14.613h5.836l-.029-27.488a0,0,0,0,1,0,0l6.338,0V143.76H16.6s0,0,0,0l3.524,4.916v0H26.5l.01,8.333H21.614c-.122,0-.239,0-.36.015s-.229.024-.341.044a3.263,3.263,0,0,0-1.932,5.272l13.274,17.066h5.8Zm-8.173-4.765-.01-.039.01.01Z" transform="translate(-16.6 -143.76)"/><g transform="translate(15.226 4.511)"><path class="d" d="M57.966,160.243H58.3v.482c.073,0,.136,0,.2.01a.752.752,0,0,1,.706.584.676.676,0,0,1-.472.745,1.059,1.059,0,0,1-.35.058c-.871,0-1.747,0-2.619,0H48.683a.715.715,0,0,1-.75-.949.816.816,0,0,1,.759-.448h.1v-.487h.331c0-.029,0-.054,0-.078v-3.539a3.232,3.232,0,0,1,.72-2.049,3.732,3.732,0,0,1,.8-.759,4.4,4.4,0,0,1,2.59-.789,11.215,11.215,0,0,1,1.144.029,4.14,4.14,0,0,1,2.57,1.183,3.265,3.265,0,0,1,.93,1.64,3.359,3.359,0,0,1,.083.73c.01,1.188,0,2.375,0,3.558A.177.177,0,0,0,57.966,160.243Zm-4.05-6.474a.018.018,0,0,1,0,.015l.024.015c.219.078.443.151.657.229a2.9,2.9,0,0,1,.745.433,3.224,3.224,0,0,1,1.339,2.575c.015,1.042,0,2.078,0,3.12v.083h.886V157.03a2.829,2.829,0,0,0-.18-1.022,3.4,3.4,0,0,0-1.957-1.937,3.543,3.543,0,0,0-1.061-.268C54.218,153.788,54.067,153.778,53.916,153.769Z" transform="translate(-47.88 -153.028)"/></g></g><rect class="a" width="5.778" height="20.507" transform="translate(154.647 152.609)"/></g></svg>