<svg id="mobile_friendly-24px" xmlns="http://www.w3.org/2000/svg" width="14" height="14" viewBox="0 0 14 14">
  <path id="Path_597" data-name="Path 597" d="M0,0H14V14H0Z" fill="none"/>
  <path id="Path_598" data-name="Path 598" d="M12.413,1H6.579A1.17,1.17,0,0,0,5.413,2.167v1.75H6.579V2.75h5.833v9.333H6.579V10.917H5.413v1.75a1.17,1.17,0,0,0,1.167,1.167h5.833a1.17,1.17,0,0,0,1.167-1.167V2.167A1.17,1.17,0,0,0,12.413,1ZM5.418,8.274,3.931,6.787l-.741.741L5.413,9.75,9.607,5.556l-.741-.741Z" transform="translate(-1.329 -0.417)" fill="#044683"/>
</svg>
