<svg id="notification_important-24px" xmlns="http://www.w3.org/2000/svg" width="14" height="14" viewBox="0 0 14 14">
  <path id="Path_593" data-name="Path 593" d="M0,0H14V14H0Z" fill="none"/>
  <path id="Path_594" data-name="Path 594" d="M12.167,10.375V7.458A3.554,3.554,0,0,0,9.542,3.772v-.4a.875.875,0,1,0-1.75,0v.4A3.544,3.544,0,0,0,5.167,7.458v2.917L4,11.542v.583h9.333v-.583Zm-2.917,0H8.083V9.208H9.25Zm0-2.333H8.083V5.708H9.25Zm-.583,5.833a1.17,1.17,0,0,0,1.167-1.167H7.5A1.166,1.166,0,0,0,8.667,13.875Z" transform="translate(-1.667 -1.042)" fill="#044683"/>
</svg>
