<svg id="power_off-black-18dp" xmlns="http://www.w3.org/2000/svg" width="14" height="14" viewBox="0 0 14 14">
  <path id="Path_589" data-name="Path 589" d="M0,0H14V14H0Z" fill="none"/>
  <path id="Path_590" data-name="Path 590" d="M11.629,9.7V6.5a1.255,1.255,0,0,0-1.167-1.167V3H9.3V5.333H6.963V3H5.8V4.447l5.548,5.542ZM10.6,10.735,5.329,5.45l-.006.006L3.451,3.583l-.741.729,1.96,1.96a1.037,1.037,0,0,0-.041.227V9.7L6.671,11.75V13.5H9.588V11.75l.28-.28,2.608,2.613.735-.747-2.608-2.6Z" transform="translate(-1.129 -1.25)" fill="#044683"/>
</svg>
