<svg id="wifi_off-black-18dp" xmlns="http://www.w3.org/2000/svg" width="14" height="14" viewBox="0 0 14 14">
  <path id="Path_591" data-name="Path 591" d="M14,.006h0L0,0V14H14ZM0,0H14V14H0ZM0,0H14V14H0Z" fill="none"/>
  <path id="Path_592" data-name="Path 592" d="M13.827,6A9.06,9.06,0,0,0,5.573,3.534L7.043,5a7.381,7.381,0,0,1,5.618,2.158L13.828,6ZM11.494,8.329A5.713,5.713,0,0,0,8.875,6.836l2.059,2.059Zm-9.911-5.8L3.374,4.3A8.852,8.852,0,0,0,1,6L2.161,7.162a7.253,7.253,0,0,1,2.45-1.616L5.917,6.853A5.649,5.649,0,0,0,3.333,8.329v.006L4.494,9.5a4.108,4.108,0,0,1,2.87-1.2l4.124,4.118.741-.735L2.336,1.79Zm4.083,8.137,1.75,1.75,1.75-1.75A2.472,2.472,0,0,0,5.667,10.662Z" transform="translate(-0.417 -0.746)" fill="#044683"/>
</svg>
