<svg id="groups-24px" xmlns="http://www.w3.org/2000/svg" width="12" height="12" viewBox="0 0 12 12">
  <rect id="Rectangle_1571" data-name="Rectangle 1571" width="12" height="12" fill="none"/>
  <g id="Group_740" data-name="Group 740" transform="translate(0 3)">
    <path id="Path_602" data-name="Path 602" d="M6,9.375a5.305,5.305,0,0,1,2.12.45A1.492,1.492,0,0,1,9,11.19V12H3v-.805A1.482,1.482,0,0,1,3.88,9.83,5.22,5.22,0,0,1,6,9.375ZM2,9.5a1,1,0,1,0-1-1A1,1,0,0,0,2,9.5Zm.565.55A3.491,3.491,0,0,0,2,10a3.475,3.475,0,0,0-1.39.29,1,1,0,0,0-.61.925V12H2.25v-.805A2.249,2.249,0,0,1,2.565,10.05ZM10,9.5a1,1,0,1,0-1-1A1,1,0,0,0,10,9.5Zm2,1.715a1,1,0,0,0-.61-.925,3.4,3.4,0,0,0-1.955-.24,2.249,2.249,0,0,1,.315,1.145V12H12ZM6,6A1.5,1.5,0,1,1,4.5,7.5,1.5,1.5,0,0,1,6,6Z" transform="translate(0 -6)" fill="#044683"/>
  </g>
</svg>
