<svg id="thumb_up-24px" xmlns="http://www.w3.org/2000/svg" width="12" height="12" viewBox="0 0 12 12">
  <path id="Path_600" data-name="Path 600" d="M0,0H12V12H0Z" fill="none"/>
  <path id="Path_601" data-name="Path 601" d="M1,11.143H3.013V5.057H1ZM12.071,5.564A1.013,1.013,0,0,0,11.065,4.55H7.889l.478-2.318.015-.162a.766.766,0,0,0-.221-.538L7.628,1,4.316,4.342a1,1,0,0,0-.3.715v5.071a1.013,1.013,0,0,0,1.006,1.014H9.555a1,1,0,0,0,.926-.619L12,6.949a1.009,1.009,0,0,0,.07-.37Z" transform="translate(-0.536 -0.536)" fill="#044683"/>
</svg>
