<svg id="gps_fixed-24px" xmlns="http://www.w3.org/2000/svg" width="98" height="98" viewBox="0 0 98 98">
  <path id="Path_671" data-name="Path 671" d="M0,0H98V98H0Z" fill="none"/>
  <path id="Path_672" data-name="Path 672" d="M45.889,29.566A16.323,16.323,0,1,0,62.212,45.889,16.319,16.319,0,0,0,45.889,29.566ZM82.371,41.808a36.7,36.7,0,0,0-32.4-32.4V1H41.808V9.406a36.7,36.7,0,0,0-32.4,32.4H1V49.97H9.406a36.7,36.7,0,0,0,32.4,32.4v8.406H49.97V82.371a36.7,36.7,0,0,0,32.4-32.4h8.406V41.808H82.371ZM45.889,74.455A28.566,28.566,0,1,1,74.455,45.889,28.545,28.545,0,0,1,45.889,74.455Z" transform="translate(3.111 3.111)" fill="#044683"/>
</svg>
