<svg xmlns="http://www.w3.org/2000/svg" width="98" height="98" viewBox="0 0 98 98">
  <g id="Group_778" data-name="Group 778" transform="translate(-912 -1371)">
    <g id="Group_768" data-name="Group 768" transform="translate(912.305 1371.304)">
      <rect id="Rectangle_1580" data-name="Rectangle 1580" width="98" height="98" transform="translate(-0.304 -0.304)" fill="none"/>
    </g>
    <g id="Group_771" data-name="Group 771" transform="translate(927.4 1368)">
      <g id="Group_770" data-name="Group 770" transform="translate(0 3)">
        <g id="Group_769" data-name="Group 769">
          <path id="Path_663" data-name="Path 663" d="M39.006,2A34.043,34.043,0,0,0,5,36.006c0,25.5,34.006,63.154,34.006,63.154S73.011,61.51,73.011,36.006A34.043,34.043,0,0,0,39.006,2Zm0,9.716a9.716,9.716,0,1,1-9.716,9.716A9.744,9.744,0,0,1,39.006,11.716Zm0,48.58A23.234,23.234,0,0,1,19.574,49.851c.1-6.413,12.971-9.959,19.432-9.959s19.335,3.546,19.432,9.959A23.234,23.234,0,0,1,39.006,60.3Z" transform="translate(-5 -2)" fill="#044683"/>
        </g>
      </g>
    </g>
  </g>
</svg>
