<svg id="group_add-24px" xmlns="http://www.w3.org/2000/svg" width="98" height="98" viewBox="0 0 98 98">
  <path id="Path_661" data-name="Path 661" d="M0,0H98V98H0Z" fill="none"/>
  <path id="Path_662" data-name="Path 662" d="M32.667,25.417H20.417V13.167H12.25v12.25H0v8.167H12.25v12.25h8.167V33.583h12.25ZM73.5,29.5A12.25,12.25,0,1,0,69.784,5.572,20.148,20.148,0,0,1,73.459,17.25a20.545,20.545,0,0,1-3.675,11.678A12.208,12.208,0,0,0,73.5,29.5Zm-20.417,0a12.25,12.25,0,1,0-12.25-12.25A12.2,12.2,0,0,0,53.083,29.5Zm27.032,8.82C83.5,41.3,85.75,45.1,85.75,49.917v8.167H98V49.917C98,43.628,88.322,39.749,80.115,38.32Zm-27.032-.653c-8.167,0-24.5,4.083-24.5,12.25v8.167h49V49.917C77.583,41.75,61.25,37.667,53.083,37.667Z" transform="translate(0 15.417)" fill="#044683"/>
</svg>
