<svg xmlns="http://www.w3.org/2000/svg" xmlns:xlink="http://www.w3.org/1999/xlink" width="1938" height="106" viewBox="0 0 1938 106"><defs><style>.a,.e{fill:#fff;}.b,.c{fill:#707070;}.b,.c,.e{font-size:16px;}.b,.e{font-family:Montserrat-Regular, Montserrat;}.c{font-family:Montserrat-Medium, Montserrat;font-weight:500;}.d{fill:#0276c9;}.f{filter:url(#a);}</style><filter id="a" x="0" y="0" width="1938" height="106" filterUnits="userSpaceOnUse"><feOffset dy="3" input="SourceAlpha"/><feGaussianBlur stdDeviation="3" result="b"/><feFlood flood-opacity="0.161"/><feComposite operator="in" in2="b"/><feComposite in="SourceGraphic"/></filter></defs><g transform="translate(9 6)"><g class="f" transform="matrix(1, 0, 0, 1, -9, -6)"><path class="a" d="M0,0H1920V88H0Z" transform="translate(9 6)"/></g><text class="b" transform="translate(693.5 56)"><tspan x="0" y="0">HOME</tspan></text><text class="b" transform="translate(796.5 56)"><tspan x="0" y="0">HOW WE WORK?</tspan></text><text class="b" transform="translate(990.5 56)"><tspan x="0" y="0">SERVICES</tspan></text><text class="b" transform="translate(1121.5 56)"><tspan x="0" y="0">CONTACT US</tspan></text><text class="c" transform="translate(1416 55)"><tspan x="0" y="0">8017225878</tspan></text><g transform="translate(0 -1)"><path class="d" d="M8.655,0H110.345A8.7,8.7,0,0,1,119,8.75v17.5A8.7,8.7,0,0,1,110.345,35H8.655A8.7,8.7,0,0,1,0,26.25V8.75A8.7,8.7,0,0,1,8.655,0Z" transform="translate(1527 33)"/><text class="e" transform="translate(1537 56)"><tspan x="0" y="0">PRE-ORDER</tspan></text></g></g></svg>