<svg width="360" height="95" xmlns="http://www.w3.org/2000/svg">
 <style type="text/css">.st0{fill:#2375BC;}
	.st1{fill:#FFFFFF;}
	.st2{fill:#1D64A1;}
	.st3{fill:#E81E25;}</style>

 <g>
  <title>background</title>
  <rect fill="none" id="canvas_background" height="97" width="362" y="-1" x="-1"/>
 </g>
 <g>
  <title>Layer 1</title>
  <g id="svg_1">
   <g id="svg_2">
    <path id="svg_3" d="m126.96,31.39l11.87,0l0,42.13l-11.87,0l0,-5.45c-4.28,6.13 -9.92,6.81 -12.94,6.81c-12.94,0 -21.5,-10.12 -21.5,-22.48c0,-12.45 8.47,-22.38 20.92,-22.38c3.21,0 9.54,0.58 13.52,6.81l0,-5.44zm-22.18,21.02c0,6.71 4.86,11.97 11.68,11.97s11.68,-5.25 11.68,-11.97c0,-6.71 -4.87,-11.87 -11.68,-11.87s-11.68,5.15 -11.68,11.87z" class="st0"/>
    <path id="svg_4" d="m181.84,44.23c-2.53,-2.33 -5.64,-3.7 -9.73,-3.7c-7.88,0 -11.87,5.74 -11.87,11.87c0,6.91 5.16,11.97 12.26,11.97c2.63,0 6.13,-0.78 9.34,-3.7l0,11.58c-2.33,1.17 -6.03,2.63 -10.9,2.63c-6.62,0 -12.45,-2.53 -16.25,-6.13c-3.21,-3.02 -6.71,-8.27 -6.71,-16.15c0,-7.39 3.02,-13.33 7.3,-17.12c5.16,-4.57 11.09,-5.45 15.18,-5.45c4.38,0 7.98,0.88 11.38,2.53l0,11.67z" class="st0"/>
    <path id="svg_5" d="m190.79,2.59l11.87,0l0,34.25c2.24,-3.11 6.23,-6.81 13.04,-6.81c3.7,0 9.15,1.07 12.45,5.16c2.92,3.6 3.31,7.78 3.31,11.87l0,26.47l-11.87,0l0,-22.96c0,-2.33 -0.1,-6.03 -2.24,-8.27c-1.85,-1.95 -4.38,-2.14 -5.55,-2.14c-3.11,0 -5.55,1.07 -7.3,3.7c-1.75,2.72 -1.85,5.74 -1.85,8.17l0,21.5l-11.87,0l0,-70.94l0.01,0z" class="st0"/>
    <path id="svg_6" d="m275.05,31.39l11.87,0l0,42.13l-11.87,0l0,-5.45c-4.28,6.13 -9.92,6.81 -12.94,6.81c-12.94,0 -21.5,-10.12 -21.5,-22.48c0,-12.45 8.47,-22.38 20.92,-22.38c3.21,0 9.54,0.58 13.52,6.81l0,-5.44zm-22.19,21.02c0,6.71 4.86,11.97 11.68,11.97c6.81,0 11.68,-5.25 11.68,-11.97c0,-6.71 -4.87,-11.87 -11.68,-11.87c-6.81,0 -11.68,5.15 -11.68,11.87z" class="st0"/>
    <path id="svg_7" d="m298.21,31.39l0,42.13l11.87,0l0,-42.13l-11.87,0z" class="st3"/>
    <circle id="svg_8" r="7.1" cy="13.59" cx="304.14" class="st3"/>
    <path id="svg_9" d="m333.23,41.51l0,32.01l-11.87,0l0,-32.01l-4.67,0l0,-10.12l4.67,0l0,-14.4l11.87,0l0,14.4l8.17,0l0,10.12l-8.17,0z" class="st0"/>
   </g>
   <g id="svg_10">
    <path id="svg_11" d="m64.19,31.93c0.24,0 0.45,0 0.68,0c0,0.33 0,0.66 0,0.99c0.15,0.01 0.28,0.01 0.41,0.02c0.73,0.05 1.33,0.55 1.45,1.2c0.12,0.64 -0.29,1.3 -0.97,1.53c-0.22,0.08 -0.48,0.12 -0.72,0.12c-1.79,0.01 -3.59,0.01 -5.38,0.01c-3.5,0 -7,0 -10.5,0c-1.35,0 -2.69,0 -4.04,0c-1.16,0 -1.95,-1 -1.54,-1.95c0.24,-0.55 0.83,-0.9 1.56,-0.92c0.06,0 0.13,0 0.21,0c0,-0.34 0,-0.66 0,-1c0.23,0 0.45,0 0.68,0c0,-0.06 0.01,-0.11 0.01,-0.16c0,-2.42 0,-4.85 0,-7.27c0,-1.53 0.48,-2.94 1.48,-4.21c0.46,-0.59 1.01,-1.11 1.65,-1.56c1.56,-1.08 3.33,-1.63 5.32,-1.62c0.78,0 1.57,-0.02 2.35,0.06c2.11,0.21 3.87,1.04 5.28,2.43c0.98,0.97 1.63,2.09 1.91,3.37c0.11,0.49 0.17,1 0.17,1.5c0.02,2.44 0.01,4.88 0.01,7.31c-0.02,0.04 -0.02,0.08 -0.02,0.15zm-8.32,-13.31c0,0.01 0,0.02 -0.01,0.03c0.02,0.01 0.03,0.02 0.05,0.03c0.45,0.16 0.91,0.31 1.35,0.47c0.57,0.21 1.07,0.54 1.53,0.89c1.8,1.41 2.72,3.19 2.75,5.29c0.03,2.14 0.01,4.27 0.01,6.41c0,0.05 0,0.11 0,0.17c0.62,0 1.21,0 1.82,0c0,-0.07 0,-0.13 0,-0.2c0,-2.13 0,-4.26 0,-6.39c0,-0.72 -0.11,-1.42 -0.37,-2.1c-0.7,-1.82 -2.05,-3.15 -4.02,-3.98c-0.68,-0.29 -1.42,-0.48 -2.18,-0.55c-0.3,-0.02 -0.62,-0.04 -0.93,-0.07z" class="st1"/>
   </g>
   <g id="svg_12">
    <g id="svg_13">
     <path id="svg_14" d="m37.72,52.86c0.85,-1.71 2.29,-4.38 0.97,-8.49c0.02,0.01 18.08,5.53 32.17,0l-0.01,30.02l11.99,0l-0.06,-56.47c0,-0.01 0.01,-0.01 0.01,-0.01l13.02,0.01l0,-10.15c0,0 0,0 0,-0.01l-81.2,0c0,0.01 0,0.01 -0.01,0.01l7.24,10.1c0,0 0,0 0,0.01l13.08,0c0.01,0 0.01,0 0.01,0l0.02,17.12c0,0 0,0 -0.01,0l-10.04,0c-0.25,0 -0.49,0.01 -0.74,0.03c-0.24,0.02 -0.47,0.05 -0.7,0.09c-5.05,0.95 -7.12,6.78 -3.97,10.83l27.27,35.06l11.92,0l-20.96,-28.15zm-16.79,-9.79l-0.02,-0.08l0.02,0.02l0,0.06z" class="st0"/>
    </g>
    <g id="svg_15">
     <path id="svg_16" d="m66.6,31.85c0.24,0 0.45,0 0.68,0c0,0.33 0,0.66 0,0.99c0.15,0.01 0.28,0.01 0.41,0.02c0.73,0.05 1.33,0.55 1.45,1.2c0.12,0.64 -0.29,1.3 -0.97,1.53c-0.22,0.08 -0.48,0.12 -0.72,0.12c-1.79,0.01 -3.59,0.01 -5.38,0.01c-3.5,0 -7,0 -10.5,0c-1.35,0 -2.69,0 -4.04,0c-1.16,0 -1.95,-1 -1.54,-1.95c0.24,-0.55 0.83,-0.9 1.56,-0.92c0.06,0 0.13,0 0.21,0c0,-0.34 0,-0.66 0,-1c0.23,0 0.45,0 0.68,0c0,-0.06 0.01,-0.11 0.01,-0.16c0,-2.42 0,-4.85 0,-7.27c0,-1.53 0.48,-2.94 1.48,-4.21c0.46,-0.59 1.01,-1.11 1.65,-1.56c1.56,-1.08 3.33,-1.63 5.32,-1.62c0.78,0 1.57,-0.02 2.35,0.06c2.11,0.21 3.87,1.04 5.28,2.43c0.98,0.97 1.63,2.09 1.91,3.37c0.11,0.49 0.17,1 0.17,1.5c0.02,2.44 0.01,4.88 0.01,7.31c-0.02,0.05 -0.02,0.09 -0.02,0.15zm-8.32,-13.3c0,0.01 0,0.02 -0.01,0.03c0.02,0.01 0.03,0.02 0.05,0.03c0.45,0.16 0.91,0.31 1.35,0.47c0.57,0.21 1.07,0.54 1.53,0.89c1.8,1.41 2.72,3.19 2.75,5.29c0.03,2.14 0.01,4.27 0.01,6.41c0,0.05 0,0.11 0,0.17c0.62,0 1.21,0 1.82,0c0,-0.07 0,-0.13 0,-0.2c0,-2.13 0,-4.26 0,-6.39c0,-0.72 -0.11,-1.42 -0.37,-2.1c-0.7,-1.82 -2.05,-3.15 -4.02,-3.98c-0.68,-0.29 -1.42,-0.48 -2.18,-0.55c-0.31,-0.03 -0.62,-0.05 -0.93,-0.07z" class="st1"/>
    </g>
   </g>
   <rect id="svg_17" height="42.13" width="11.87" class="st0" y="31.39" x="298.2"/>
  </g>
 </g>
</svg>