<svg xmlns="http://www.w3.org/2000/svg" width="100.58" height="60.764" viewBox="0 0 100.58 60.764"><defs><style>.a{fill:#0064b0;}.a,.b{stroke:#0064b0;}.a,.b,.c{stroke-miterlimit:10;}.b,.c{fill:none;}.c{stroke:#e60019;stroke-width:1.417px;}</style></defs><g transform="translate(-330.207 -182.592)"><path class="a" d="M356.983,214.087a7.617,7.617,0,1,1-7.626-7.607A7.616,7.616,0,0,1,356.983,214.087Z" transform="translate(10.8 20.232)"/><path class="a" d="M373.343,214.576a7.626,7.626,0,1,1-7.626-7.626A7.612,7.612,0,0,1,373.343,214.576Z" transform="translate(26.088 20.672)"/><path class="b" d="M330.207,192.9h21.006l13.715,13.715,8.854,5.208V226.8h-6" transform="translate(0 7.523)"/><line class="b" x1="22" transform="translate(330.207 233.855)"/><path class="b" d="M404.833,191.461l-20.485,2.083-15.315,18.4-12.289,3.819s-7.288,9.951,4.671,14.757" transform="translate(22.772 6.18)"/><line class="b" y1="3.577" x2="31.304" transform="translate(399.426 231.667)"/><path class="c" d="M352,210.2l-5.035-7.986h9.2l-3.646-11.458,8.68,4.687,5.034-10.59,2.6,13.715,9.375-3.646L377,204.473l7.118-2.257" transform="translate(15.676)"/></g></svg>