<svg xmlns="http://www.w3.org/2000/svg" width="76.076" height="63" viewBox="0 0 76.076 63"><defs><style>.a{fill:#e60c1b;}.b{fill:#0056a4;}.c{fill:none;stroke:#0056a4;stroke-miterlimit:10;stroke-width:0.85px;}</style></defs><g transform="translate(0.425)"><path class="a" d="M166.884,198.627h3.034v6.427h6.131v3h-6.131v6.455h-3.034v-6.455h-6.131v-3h6.131Z" transform="translate(-133.423 -171.766)"/><path class="b" d="M166.657,215.364a6.584,6.584,0,1,1-6.584-6.584A6.59,6.59,0,0,1,166.657,215.364Z" transform="translate(-142.592 -158.947)"/><path class="b" d="M182.267,215.364a6.584,6.584,0,1,1-6.584-6.584A6.59,6.59,0,0,1,182.267,215.364Z" transform="translate(-122.886 -158.947)"/><path class="c" d="M159.578,234.264h-6.943a3.961,3.961,0,0,1-3.961-3.959V197.76a3.961,3.961,0,0,1,3.961-3.959h58.689a3.961,3.961,0,0,1,3.554,2.215l8.359,17.018a3.971,3.971,0,0,1,.4,1.681l.256,15.525a3.959,3.959,0,0,1-3.959,4.025h-11.88" transform="translate(-148.673 -177.858)"/><line class="c" x2="22.151" transform="translate(24.07 56.405)"/><rect class="a" width="2.565" height="11.008" rx="0.374" transform="translate(50.065 9.533) rotate(150)"/><rect class="a" width="2.565" height="11.008" rx="0.374" transform="translate(46.747 12.576) rotate(120)"/><rect class="a" width="2.565" height="11.008" rx="0.374" transform="translate(57.097) rotate(30)"/><rect class="a" width="2.565" height="11.008" rx="0.374" transform="translate(64.443 7.073) rotate(60)"/><path class="a" d="M1.129,0H3.98A1.129,1.129,0,0,1,5.109,1.129V3.765a0,0,0,0,1,0,0H0a0,0,0,0,1,0,0V1.129A1.129,1.129,0,0,1,1.129,0Z" transform="translate(48.499 11.569)"/></g></svg>