<svg xmlns="http://www.w3.org/2000/svg" width="63.764" height="74.23" viewBox="0 0 63.764 74.23"><defs><style>.a{fill:#e60019;}.b{fill:#0064b0;}.b,.c{stroke:#0064b0;stroke-miterlimit:10;stroke-width:0.85px;}.c{fill:none;}.d{fill:#e60c1b;font-size:13px;font-family:Montserrat-SemiBold, Montserrat;font-weight:600;}</style></defs><g transform="translate(-384.661 -1064.725)"><g transform="translate(385.151 1065.15)"><g transform="translate(23.757 73.4)"><rect class="a" width="0.186" height="0.512" transform="translate(0 0.164) rotate(-62.033)"/></g><path class="b" d="M120.136,195.17a6.348,6.348,0,1,1-6.36-6.36A6.357,6.357,0,0,1,120.136,195.17Z" transform="translate(-63.765 -188.81)"/><path class="b" d="M138.842,204.477a2.767,2.767,0,0,1-1.821,2.577l-13.9,5.107-6.194-6.525-7.637,9.717,8.133,11.751,1.939,21.373a3.356,3.356,0,0,1-3.1,3.641H116a3.369,3.369,0,0,1-3.357-3.074L111.3,231.9l-11.8-14a4.369,4.369,0,0,1-.26-5.272l11.4-16.6a4.367,4.367,0,0,1,7.117-.095l7,9.5,10.45-3.57a2.762,2.762,0,0,1,3.4,1.49A2.61,2.61,0,0,1,138.842,204.477Z" transform="translate(-75.993 -181.52)"/><path class="b" d="M111.082,205.962l-3.2,2.724-16.326,3.92a3.373,3.373,0,0,0-2.494,4.064h0a3.375,3.375,0,0,0,4.088,2.492l16.25-4.005,5.518-4.691" transform="translate(-88.968 -165.409)"/><line class="c" x1="6.774" y1="4.626" transform="translate(50.672 16.333)"/><path class="c" d="M125.051,192.88s-31.452-7.634-33.67,12.687a8.761,8.761,0,0,0,3.464,8.126c3.014,2.152,8.152,3.655,16.113-.253" transform="translate(-85.75 -185.173)"/><text class="d" transform="matrix(0.699, 0.715, -0.715, 0.699, 13.987, 15.369)"><tspan x="0" y="0">$</tspan></text></g></g></svg>