<svg xmlns="http://www.w3.org/2000/svg" width="47.006" height="46.041" viewBox="0 0 47.006 46.041"><defs><style>.a{fill:#2578be;}</style></defs><g transform="translate(-319.264 -375.932)"><g transform="translate(319.264 375.932)"><path class="a" d="M342.765,375.932a27.05,27.05,0,0,1,9.628,1.545,16.789,16.789,0,0,1,10.63,11.336,24.646,24.646,0,0,1,1.008,6.9.865.865,0,0,0,.425.811,3.851,3.851,0,0,1,1.774,3.165c.056,1.626.044,3.257.01,4.886a4.129,4.129,0,0,1-3.208,3.966,5.046,5.046,0,0,1-1.106.116c-.834.016-1.669.017-2.5,0a.445.445,0,0,0-.5.341,21.539,21.539,0,0,1-8.5,10.478A16.958,16.958,0,0,1,345.6,421.6a11.094,11.094,0,0,1-5.886-.056,17.97,17.97,0,0,1-6.715-3.619,21.38,21.38,0,0,1-6.374-8.9.5.5,0,0,0-.554-.379,31.058,31.058,0,0,1-3.268-.059,4.138,4.138,0,0,1-3.441-3.409c-.18-1.738-.036-3.484-.079-5.226a3.617,3.617,0,0,1,.1-.915,4.009,4.009,0,0,1,1.758-2.564.7.7,0,0,0,.361-.65,25.593,25.593,0,0,1,.787-6.237,17.1,17.1,0,0,1,6.238-9.616,18.86,18.86,0,0,1,6.812-3.187A29.662,29.662,0,0,1,342.765,375.932Zm6.377,21.328a13.988,13.988,0,0,0-3.854-1.623,25.634,25.634,0,0,1-3.939-1.511,12.947,12.947,0,0,1-4.8-4.392.862.862,0,0,0-.375-.4c-.025.183-.056.331-.065.48a10.094,10.094,0,0,1-.338,2.275c-1.11,3.776-3.353,6.427-7.329,7.348-.2.045-.3.109-.309.346a20.328,20.328,0,0,0,.519,6.028,3.814,3.814,0,0,0,.851,2.016,10.119,10.119,0,0,0,3.095,2.042,17.5,17.5,0,0,0,5.256,1.214c.483.047.907.084,1.189-.412a1.245,1.245,0,0,1,.342-.306,5.244,5.244,0,0,1,5.822-.066,2.286,2.286,0,0,1,.133,3.906,4.719,4.719,0,0,1-3.664.93,4,4,0,0,1-3.031-1.67.3.3,0,0,0-.258-.13c-.244-.018-.485-.049-.728-.07a19.119,19.119,0,0,1-5.932-1.353c-.105-.044-.209-.157-.348-.08a.25.25,0,0,0,.023.078,18,18,0,0,0,8,6.446,8.354,8.354,0,0,0,6,.249,16.8,16.8,0,0,0,5.816-3.434,18.3,18.3,0,0,0,5.366-8.241,21.626,21.626,0,0,0,.728-8.484.478.478,0,0,0-.18-.361,10.3,10.3,0,0,0-1.682-1.143,19.08,19.08,0,0,0-5.929-1.922,11.562,11.562,0,0,0-1.631-.215A6.244,6.244,0,0,1,349.141,397.26Zm-6.6-18.848a25.166,25.166,0,0,0-8.71,1.465,14.091,14.091,0,0,0-6.675,4.991,17.948,17.948,0,0,0-3.092,9.67c-.023.392-.318.931.057,1.16.309.189.824.038,1.247.047.155,0,.234-.049.244-.216a3.347,3.347,0,0,1,.075-.416,20.739,20.739,0,0,1,2.749-7.526,14.069,14.069,0,0,1,5.151-4.909A17.039,17.039,0,0,1,340.2,380.7a22.864,22.864,0,0,1,7.907.481,14.328,14.328,0,0,1,8.635,5.876,19.7,19.7,0,0,1,2.98,7.433c.081.4.032.931.274,1.167.266.263.807.047,1.225.087.28.029.352-.078.324-.347-.091-.879-.106-1.764-.228-2.642a18.755,18.755,0,0,0-1.9-6.211,14.314,14.314,0,0,0-8.971-7.1A27.165,27.165,0,0,0,342.539,378.412Z" transform="translate(-319.264 -375.932)"/><path class="a" d="M334.2,399.919a2.4,2.4,0,1,1,2.424-2.37A2.419,2.419,0,0,1,334.2,399.919Z" transform="translate(-316.821 -372.192)"/><path class="a" d="M344.447,399.919a2.4,2.4,0,1,1,2.4-2.405A2.407,2.407,0,0,1,344.447,399.919Z" transform="translate(-314.83 -372.192)"/></g></g></svg>