<svg width="400" height="400" xmlns="http://www.w3.org/2000/svg">
 <!-- Created with Method Draw - http://github.com/duopixel/Method-Draw/ -->

 <g>
  <title>background</title>
  <rect fill="none" id="canvas_background" height="402" width="402" y="-1" x="-1"/>
  <g display="none" overflow="visible" y="0" x="0" height="100%" width="100%" id="canvasGrid">
   <rect fill="url(#gridpattern)" stroke-width="0" y="0" x="0" height="100%" width="100%"/>
  </g>
 </g>
 <g>
  <title>Layer 1</title>
  <style transform="matrix(0.025082266165014966,0,0,0.025082266165014966,0,0) " type="text/css">.st0{fill:#488AC9;}
	.st1{fill:#2576BC;}
	.st2{fill:#2F67B2;}
	.st3{fill:none;stroke:#2F67B2;stroke-width:0.5669;stroke-linecap:round;stroke-linejoin:round;}
	.st4{fill:none;stroke:#2F67B2;stroke-width:0.5669;stroke-linecap:round;stroke-linejoin:round;stroke-dasharray:3.5192,3.5192;}
	.st5{fill:none;stroke:#2F67B2;stroke-width:0.5669;stroke-linecap:round;stroke-linejoin:round;stroke-dasharray:2.704,2.704;}
	.st6{fill:none;stroke:#2F67B2;stroke-width:0.5669;stroke-linecap:round;stroke-linejoin:round;stroke-dasharray:2.7473,2.7473;}
	.st7{fill:#ED2024;}
	.st8{fill:none;stroke:#ED2024;stroke-width:0.2835;stroke-miterlimit:10;}
	.st9{fill:#EE2A28;}
	.st10{fill:#498AC9;}
	.st11{fill:#FFFFFF;}
	.st12{fill:#ED1C24;}
	.st13{fill:none;stroke:#498AC9;stroke-width:0.2835;stroke-miterlimit:10;}
	.st14{fill:none;stroke:#498AC9;stroke-width:0.7087;stroke-miterlimit:10;}
	.st15{fill:none;stroke:#488AC9;stroke-width:0.7087;stroke-miterlimit:10;}
	.st16{fill:none;stroke:#478AC9;stroke-width:0.7087;stroke-miterlimit:10;}
	.st17{fill:none;stroke:#4689C9;stroke-width:0.7087;stroke-miterlimit:10;}
	.st18{fill:none;stroke:#4589C9;stroke-width:0.7087;stroke-miterlimit:10;}
	.st19{fill:none;stroke:#FFFFFF;stroke-width:0.2835;stroke-miterlimit:10;}
	.st20{fill:#4689C9;}
	.st21{fill:none;stroke:#EE2A28;stroke-width:0.1417;stroke-miterlimit:10;}
	.st22{fill:none;stroke:#498AC9;stroke-width:1.4173;stroke-miterlimit:10;}
	.st23{fill:none;stroke:#498AC9;stroke-miterlimit:10;}
	.st24{fill:none;stroke:#498AC9;stroke-width:0.5669;stroke-miterlimit:10;}
	.st25{fill:#ED1F24;}
	.st26{fill:none;stroke:#ED1F24;stroke-width:0.5669;stroke-miterlimit:10;}
	.st27{fill:none;stroke:#2576BC;stroke-width:0.5669;stroke-miterlimit:10;}
	.st28{fill:none;stroke:#2576BC;stroke-width:0.8504;stroke-miterlimit:10;}
	.st29{fill:none;stroke:#2F67B2;stroke-width:0.8504;stroke-miterlimit:10;}
	.st30{fill:none;stroke:#ED2024;stroke-width:1.4173;stroke-miterlimit:10;}
	.st31{clip-path:url(#SVGID_2_);fill:#2F67B2;}
	.st32{clip-path:url(#SVGID_2_);fill:#2576BC;}
	.st33{clip-path:url(#SVGID_2_);}
	.st34{fill:none;stroke:#2F67B2;stroke-miterlimit:10;}
	.st35{fill:#ED2024;stroke:#EB2628;stroke-width:0.1417;stroke-miterlimit:10;}
	.st36{fill:#FFFFFF;stroke:#EB2628;stroke-width:0.1417;stroke-miterlimit:10;}
	.st37{fill:#F89920;}
	.st38{fill:#38AA49;}
	.st39{fill:#2E3B8E;}
	.st40{fill:#2576BC;stroke:#2576BC;stroke-width:0.8504;stroke-miterlimit:10;}
	.st41{fill:#2576BC;stroke:#2576BC;stroke-miterlimit:10;}
	.st42{fill:none;stroke:#2576BC;stroke-miterlimit:10;}
	.st43{fill:none;stroke:#2F67B2;stroke-width:0.5669;stroke-linecap:round;stroke-linejoin:round;stroke-dasharray:2.8819,2.8819;}
	.st44{fill:none;stroke:#2F67B2;stroke-width:0.5669;stroke-linecap:round;stroke-linejoin:round;stroke-dasharray:2.7869,2.7869;}
	.st45{fill:none;stroke:#2F67B2;stroke-width:0.5669;stroke-linecap:round;stroke-linejoin:round;stroke-dasharray:2.6375,2.6375;}
	.st46{fill:none;stroke:#ED2327;stroke-width:0.2835;stroke-miterlimit:10;}
	.st47{fill:#ED1E24;}
	.st48{fill:none;stroke:#ED1E24;stroke-width:0.1417;stroke-miterlimit:10;}
	.st49{clip-path:url(#SVGID_4_);fill:#2F67B2;}
	.st50{clip-path:url(#SVGID_4_);fill:#2576BC;}
	.st51{clip-path:url(#SVGID_4_);}
	.st52{fill:#2475BC;}
	.st53{fill:none;stroke:#FFFFFF;stroke-width:0.5669;stroke-linecap:round;stroke-linejoin:round;}
	.st54{fill:none;stroke:#FFFFFF;stroke-width:0.5669;stroke-linecap:round;stroke-linejoin:round;stroke-dasharray:2.8819,2.8819;}
	.st55{fill:none;stroke:#FFFFFF;stroke-width:0.5669;stroke-linecap:round;stroke-linejoin:round;stroke-dasharray:2.7869,2.7869;}
	.st56{fill:none;stroke:#FFFFFF;stroke-width:0.5669;stroke-linecap:round;stroke-linejoin:round;stroke-dasharray:2.6375,2.6375;}</style>
  <g stroke="null" id="svg_10">
   <g stroke="null" transform="matrix(1.364953531592971,0,0,1.3329155031514268,-15492.991972022515,-10433.328225347981) " id="svg_5">
    <g stroke="null" id="svg_7">
     <path stroke="null" id="svg_8" d="m11640.091236,7979.441674c-0.02,78.62 -63.65,142.22 -142.27,142.2c-78.61,-0.02 -142.25,-63.72 -142.17,-142.3c0.08,-78.71 63.73,-142.22 142.45,-142.14c78.47,0.09 142,63.73 141.99,142.24zm-49.58,75.82c-0.02,-4.67 4.75,-7.62 8.98,-5.49c0.74,0.37 1.04,0.25 1.46,-0.38c3.41,-5.07 6.46,-10.34 9.14,-15.82c0.3,-0.62 0.2,-0.88 -0.38,-1.25c-2.7,-1.75 -3.66,-4.75 -2.51,-7.58c1.13,-2.78 3.88,-4.28 6.97,-3.68c0.82,0.16 1.14,0.03 1.41,-0.77c1.94,-5.74 3.53,-11.56 4.66,-17.52c0.14,-0.74 0,-0.99 -0.71,-1.22c-3.04,-1 -4.69,-3.6 -4.34,-6.71c0.32,-2.79 2.56,-5.01 5.59,-5.28c1.11,-0.1 1.31,-0.53 1.37,-1.51c0.34,-5.77 0.33,-11.53 0,-17.29c-0.06,-1.01 -0.33,-1.38 -1.4,-1.48c-3.03,-0.29 -5.27,-2.51 -5.57,-5.31c-0.33,-3.11 1.3,-5.68 4.37,-6.68c0.75,-0.24 0.8,-0.55 0.67,-1.25c-1.1,-5.88 -2.69,-11.62 -4.57,-17.29c-0.3,-0.9 -0.64,-1.16 -1.65,-0.97c-3.07,0.57 -5.8,-1.02 -6.87,-3.84c-1.05,-2.77 -0.1,-5.72 2.49,-7.37c0.7,-0.45 0.72,-0.77 0.38,-1.45c-2.65,-5.41 -5.66,-10.6 -9.02,-15.6c-0.43,-0.65 -0.72,-0.87 -1.54,-0.44c-2.71,1.41 -5.9,0.65 -7.7,-1.71c-1.82,-2.38 -1.71,-5.61 0.36,-7.88c0.56,-0.61 0.52,-0.94 0.02,-1.52c-3.99,-4.57 -8.27,-8.85 -12.85,-12.84c-0.52,-0.46 -0.83,-0.55 -1.42,-0.01c-2.35,2.13 -5.57,2.25 -7.97,0.39c-2.35,-1.82 -3.08,-4.98 -1.66,-7.71c0.39,-0.75 0.22,-1.04 -0.39,-1.45c-5.03,-3.39 -10.26,-6.42 -15.71,-9.08c-0.6,-0.29 -0.92,-0.37 -1.37,0.32c-1.74,2.71 -4.75,3.66 -7.58,2.5c-2.76,-1.13 -4.27,-3.89 -3.67,-6.98c0.16,-0.84 0.01,-1.14 -0.78,-1.41c-5.74,-1.94 -11.56,-3.53 -17.52,-4.66c-0.75,-0.14 -0.99,0.01 -1.22,0.71c-0.98,2.99 -3.5,4.62 -6.59,4.34c-2.84,-0.26 -5.11,-2.53 -5.41,-5.61c-0.1,-0.99 -0.38,-1.31 -1.38,-1.37c-5.85,-0.33 -11.69,-0.34 -17.54,0.01c-0.89,0.05 -1.25,0.26 -1.34,1.26c-0.27,3.1 -2.5,5.39 -5.33,5.69c-3.11,0.34 -5.66,-1.31 -6.69,-4.37c-0.2,-0.6 -0.38,-0.84 -1.12,-0.7c-6,1.13 -11.87,2.73 -17.64,4.69c-0.69,0.24 -0.94,0.46 -0.77,1.3c0.64,3.17 -0.87,5.95 -3.68,7.08c-2.82,1.14 -5.8,0.17 -7.57,-2.54c-0.39,-0.6 -0.67,-0.63 -1.26,-0.34c-5.49,2.68 -10.75,5.73 -15.82,9.14c-0.66,0.44 -0.7,0.76 -0.34,1.46c1.39,2.72 0.64,5.91 -1.71,7.71c-2.38,1.82 -5.62,1.72 -7.88,-0.35c-0.6,-0.55 -0.93,-0.55 -1.52,-0.03c-4.57,4 -8.85,8.27 -12.84,12.85c-0.44,0.51 -0.58,0.82 -0.03,1.42c2.14,2.34 2.26,5.57 0.41,7.97c-1.84,2.39 -4.97,3.07 -7.82,1.63c-0.62,-0.31 -0.9,-0.24 -1.27,0.32c-3.45,5.09 -6.51,10.4 -9.21,15.92c-0.3,0.61 -0.22,0.88 0.36,1.26c2.71,1.76 3.67,4.75 2.53,7.57c-1.14,2.81 -3.91,4.3 -7.09,3.66c-0.86,-0.17 -1.06,0.12 -1.29,0.79c-1.95,5.73 -3.54,11.56 -4.67,17.52c-0.14,0.73 -0.03,1 0.69,1.23c3.04,1 4.69,3.59 4.35,6.7c-0.31,2.79 -2.55,5 -5.59,5.29c-1.09,0.1 -1.32,0.5 -1.38,1.5c-0.33,5.77 -0.33,11.53 0,17.29c0.06,1 0.3,1.39 1.39,1.49c3.03,0.29 5.27,2.51 5.58,5.3c0.34,3.11 -1.3,5.69 -4.35,6.69c-0.73,0.24 -0.82,0.52 -0.69,1.24c1.12,5.96 2.71,11.78 4.67,17.52c0.23,0.67 0.43,0.96 1.29,0.78c3.17,-0.65 5.95,0.85 7.09,3.67c1.14,2.83 0.18,5.81 -2.53,7.57c-0.59,0.38 -0.66,0.65 -0.36,1.26c2.7,5.52 5.77,10.83 9.21,15.92c0.38,0.56 0.66,0.63 1.28,0.32c2.86,-1.44 5.98,-0.76 7.82,1.63c1.85,2.41 1.72,5.6 -0.41,7.98c-0.46,0.51 -0.5,0.81 -0.05,1.33c4.05,4.63 8.38,8.97 13.02,13.02c0.51,0.45 0.81,0.42 1.33,-0.04c2.38,-2.13 5.56,-2.27 7.97,-0.41c2.4,1.84 3.08,4.95 1.64,7.82c-0.31,0.62 -0.25,0.9 0.31,1.28c5.09,3.44 10.4,6.51 15.92,9.21c0.61,0.3 0.88,0.23 1.26,-0.36c1.77,-2.71 4.74,-3.67 7.57,-2.52c2.81,1.14 4.31,3.91 3.67,7.09c-0.17,0.87 0.12,1.06 0.79,1.29c5.73,1.96 11.56,3.55 17.52,4.67c0.73,0.14 1,0.03 1.23,-0.69c1,-3.04 3.59,-4.69 6.7,-4.35c2.79,0.31 5,2.54 5.29,5.58c0.1,1.1 0.51,1.32 1.5,1.38c5.64,0.32 11.28,0.34 16.92,0.02c1.19,-0.07 1.79,-0.23 1.92,-1.65c0.28,-2.94 2.6,-5.1 5.37,-5.34c3.04,-0.26 5.64,1.37 6.53,4.24c0.27,0.87 0.62,0.93 1.4,0.78c5.91,-1.13 11.7,-2.7 17.39,-4.65c0.68,-0.23 0.95,-0.44 0.78,-1.29c-0.64,-3.17 0.85,-5.94 3.67,-7.08c2.83,-1.14 5.8,-0.18 7.57,2.53c0.39,0.6 0.67,0.64 1.26,0.35c5.48,-2.68 10.75,-5.74 15.82,-9.14c0.65,-0.44 0.71,-0.75 0.35,-1.46c-1.4,-2.72 -0.66,-5.9 1.7,-7.71c2.38,-1.82 5.62,-1.73 7.88,0.34c0.69,0.64 1.04,0.45 1.61,-0.05c4.51,-3.94 8.72,-8.17 12.67,-12.67c0.52,-0.59 0.67,-0.97 0.02,-1.61c-1.07,-1.09 -1.57,-2.49 -1.55,-4.06z" class="st52"/>
     <path stroke="null" id="svg_9" d="m11558.601236,8084.841674c-2.21,-3.36 -4.42,-6.71 -6.62,-10.07c-10.51,-16.02 -21,-32.06 -31.56,-48.05c-1.53,-2.31 -2.49,-4.86 -3.58,-7.36c-2.43,-5.59 -4.82,-11.19 -7.18,-16.8c-0.33,-0.79 -0.65,-1.08 -1.41,-0.55c-0.2,0.14 -0.45,0.21 -0.68,0.3c-2.07,0.88 -2.08,0.88 -1.26,2.92c2.55,6.34 5.06,12.7 7.66,19.03c1.35,3.3 1.79,6.8 2.51,10.24c4.22,20.16 8.38,40.32 12.56,60.49c0.14,0.69 0.29,1.37 0.26,2.11c-0.24,-0.69 -0.5,-1.38 -0.73,-2.08c-7.21,-21.83 -14.43,-43.66 -21.6,-65.5c-0.88,-2.68 -0.94,-5.55 -1.36,-8.33c-0.81,-5.41 -1.57,-10.83 -2.31,-16.25c-0.13,-0.94 -0.45,-1.36 -1.42,-0.97c-0.08,0.03 -0.16,0.04 -0.24,0.05c-2.61,0.4 -2.59,0.4 -2.27,2.97c0.89,7.2 1.78,14.4 2.62,21.61c0.24,2.03 -0.13,4.06 -0.24,6.09c-0.68,12.3 -1.42,24.6 -2.13,36.91c-0.54,9.4 -1.05,18.81 -1.58,28.21c-0.02,0.35 -0.07,0.69 -0.31,1.03c-0.1,-1.51 -0.21,-3.01 -0.3,-4.52c-0.61,-10.94 -1.21,-21.87 -1.84,-32.81c-0.62,-10.81 -1.25,-21.62 -1.9,-32.43c-0.18,-3.05 0.47,-6.03 0.8,-9.03c0.61,-5.65 1.34,-11.28 2.04,-16.92c0.07,-0.56 -0.04,-0.79 -0.64,-0.91c-3.27,-0.66 -3.28,-0.68 -3.76,2.59c-1.01,7.02 -2.02,14.03 -3.01,21.05c-0.1,0.71 -0.31,1.37 -0.53,2.04c-7.3,22.11 -14.6,44.21 -21.9,66.32c-0.1,0.31 -0.21,0.62 -0.49,0.88c0.62,-3.02 1.23,-6.04 1.86,-9.06c4.2,-20.2 8.4,-40.4 12.59,-60.61c0.2,-0.95 0.55,-1.82 0.9,-2.7c2.74,-6.85 5.47,-13.7 8.26,-20.53c0.36,-0.88 0.25,-1.27 -0.68,-1.47c-0.94,-0.2 -1.88,-1.31 -2.68,-0.83c-0.67,0.4 -0.83,1.65 -1.21,2.52c-2.55,5.94 -5.1,11.88 -7.62,17.83c-0.68,1.61 -1.49,3.13 -2.45,4.59c-12.48,18.99 -24.95,38 -37.42,57c-0.22,0.34 -0.46,0.67 -0.83,0.94c0.16,-0.36 0.31,-0.73 0.49,-1.08c10.46,-20.77 20.91,-41.53 31.38,-62.3c0.32,-0.63 0.7,-1.23 1.12,-1.79c4.54,-6.08 9.08,-12.17 13.67,-18.22c0.61,-0.81 0.72,-1.32 -0.27,-1.79c-0.84,-0.4 -1.38,-1.71 -2.29,-1.4c-0.73,0.25 -1.19,1.31 -1.76,2.03c-4.28,5.45 -8.58,10.89 -12.84,16.35c-0.88,1.13 -1.95,2.03 -3,2.97c-16.75,14.95 -33.51,29.89 -50.27,44.83c-0.26,0.23 -0.54,0.43 -0.98,0.47c1.47,-1.66 2.94,-3.31 4.41,-4.97c14.01,-15.7 28.01,-31.4 42.01,-47.11c0.67,-0.75 1.38,-1.42 2.17,-2.04c5.88,-4.61 11.74,-9.23 17.63,-13.83c0.73,-0.57 1.04,-1.02 0.21,-1.71c-0.06,-0.05 -0.11,-0.13 -0.16,-0.19c-1.64,-2.04 -1.64,-2.04 -3.8,-0.42c-4.12,3.08 -8.29,6.1 -12.34,9.27c-3.61,2.82 -7.48,5.15 -11.59,7.2c-19.1,9.54 -38.14,19.18 -57.2,28.78c-0.33,0.17 -0.67,0.32 -1.02,0.48c-0.03,-0.45 0.37,-0.48 0.6,-0.63c19.59,-12.87 39.17,-25.74 58.78,-38.56c2.22,-1.45 4.81,-2.21 7.24,-3.26c5.17,-2.25 10.35,-4.46 15.54,-6.65c0.8,-0.34 1.07,-0.66 0.55,-1.42c-0.12,-0.17 -0.18,-0.37 -0.26,-0.56c-0.93,-2.18 -0.93,-2.18 -3.19,-1.27c-6.69,2.69 -13.36,5.42 -20.08,8.03c-2.83,1.1 -5.88,1.4 -8.83,2.02c-20.72,4.33 -41.46,8.63 -62.19,12.93c-0.16,0.03 -0.32,0.03 -0.53,-0.09c1.21,-0.41 2.41,-0.83 3.62,-1.23c21.28,-7.02 42.56,-14.05 63.85,-21.05c2.69,-0.88 5.54,-0.96 8.32,-1.39c5.45,-0.83 10.91,-1.58 16.37,-2.33c0.95,-0.13 1.35,-0.46 0.96,-1.42c-0.03,-0.08 -0.04,-0.16 -0.05,-0.24c-0.39,-2.61 -0.39,-2.58 -2.97,-2.26c-7.2,0.89 -14.4,1.78 -21.61,2.62c-2.03,0.24 -4.06,-0.13 -6.09,-0.24c-12.3,-0.68 -24.6,-1.42 -36.91,-2.13c-9.4,-0.54 -18.81,-1.05 -28.21,-1.59c-0.34,-0.02 -0.73,0.12 -1.14,-0.29c1.67,-0.11 3.22,-0.23 4.77,-0.31c12.39,-0.7 24.77,-1.38 37.16,-2.08c9.36,-0.53 18.72,-1.09 28.08,-1.65c3.01,-0.18 5.94,0.48 8.91,0.8c5.65,0.61 11.28,1.34 16.92,2.04c0.57,0.07 0.78,-0.05 0.9,-0.65c0.65,-3.27 0.67,-3.28 -2.6,-3.75c-7.01,-1.02 -14.03,-2.02 -21.05,-3.01c-1.54,-0.22 -2.95,-0.82 -4.4,-1.3c-21.32,-7.03 -42.64,-14.07 -63.96,-21.12c-0.31,-0.1 -0.62,-0.21 -0.88,-0.49c3.02,0.62 6.05,1.23 9.07,1.86c20.2,4.2 40.4,8.4 60.61,12.6c1.8,0.37 3.44,1.21 5.13,1.87c6.05,2.39 12.09,4.82 18.11,7.28c0.89,0.37 1.24,0.21 1.47,-0.69c0.22,-0.91 1.24,-1.88 0.88,-2.59c-0.35,-0.67 -1.6,-0.87 -2.47,-1.25c-5.98,-2.57 -11.95,-5.14 -17.94,-7.67c-1.61,-0.68 -3.13,-1.5 -4.59,-2.46c-18.96,-12.46 -37.93,-24.9 -56.9,-37.35c-0.37,-0.24 -0.73,-0.5 -1.01,-0.9c0.87,0.43 1.75,0.86 2.62,1.3c20.25,10.2 40.5,20.39 60.75,30.58c0.75,0.38 1.42,0.84 2.09,1.34c5.97,4.48 11.96,8.94 17.91,13.46c0.83,0.63 1.31,0.64 1.79,-0.29c0.41,-0.8 1.59,-1.36 1.43,-2.19c-0.15,-0.8 -1.28,-1.21 -1.99,-1.77c-5.51,-4.34 -11.06,-8.63 -16.52,-13.02c-2.73,-2.19 -4.79,-5.05 -7.11,-7.64c-13.59,-15.18 -27.14,-30.4 -40.7,-45.61c-0.19,-0.21 -0.38,-0.43 -0.6,-0.69c0.42,-0.2 0.57,0.11 0.74,0.27c17.41,15.52 34.82,31.05 52.21,46.58c0.55,0.49 1.01,1.1 1.47,1.68c4.59,5.84 9.19,11.67 13.75,17.53c0.6,0.77 1.05,0.95 1.71,0.17c0.61,-0.71 2,-0.93 1.99,-1.84c-0.01,-0.75 -0.94,-1.49 -1.49,-2.22c-1.89,-2.53 -3.66,-5.15 -5.7,-7.55c-6.46,-7.6 -10.83,-16.42 -15.22,-25.27c-7.98,-16.08 -16.12,-32.07 -24.19,-48.1c-0.18,-0.36 -0.35,-0.73 -0.4,-1.19c0.22,0.3 0.45,0.6 0.66,0.91c12.79,19.49 25.58,38.97 38.36,58.47c1.23,1.88 1.89,4.05 2.78,6.1c2.39,5.51 4.75,11.04 7.07,16.58c0.37,0.88 0.71,1.33 1.66,0.7c0.78,-0.52 2.17,-0.42 2.41,-1.25c0.2,-0.7 -0.52,-1.68 -0.86,-2.52c-2.42,-6.04 -4.78,-12.1 -7.28,-18.11c-1.55,-3.72 -2.04,-7.68 -2.85,-11.56c-4.28,-20.35 -8.48,-40.72 -12.71,-61.09c-0.03,-0.16 -0.03,-0.32 0.11,-0.52c1.07,3.23 2.15,6.46 3.22,9.69c6.35,19.24 12.7,38.47 19.03,57.71c0.9,2.73 0.99,5.62 1.42,8.44c0.83,5.45 1.58,10.91 2.33,16.37c0.12,0.85 0.36,1.34 1.32,0.95c0.08,-0.03 0.16,-0.04 0.24,-0.06c2.73,-0.45 2.67,-0.44 2.31,-3.27c-0.9,-7.16 -1.95,-14.31 -2.53,-21.49c-0.3,-3.73 0.27,-7.53 0.48,-11.3c0.37,-6.55 0.76,-13.09 1.14,-19.63c0.56,-9.69 1.12,-19.38 1.67,-29.08c0.23,-4.01 0.44,-8.03 0.9,-12.06c0.11,1.56 0.23,3.13 0.32,4.69c0.7,12.43 1.38,24.86 2.09,37.28c0.53,9.36 1.11,18.72 1.64,28.08c0.17,3 -0.5,5.94 -0.83,8.9c-0.62,5.6 -1.33,11.2 -2.02,16.79c-0.08,0.61 0.11,0.81 0.69,0.87c0.87,0.08 1.73,0.21 2.58,0.37c0.83,0.16 0.75,-0.47 0.81,-0.91c0.39,-2.58 0.75,-5.17 1.12,-7.75c0.76,-5.29 1.3,-10.63 2.34,-15.87c0.66,-3.35 2.05,-6.55 3.13,-9.82c6.33,-19.2 12.66,-38.4 19,-57.59c0.15,-0.46 0.33,-0.91 0.65,-1.32c-0.71,3.44 -1.42,6.88 -2.13,10.32c-4.11,19.8 -8.23,39.59 -12.34,59.39c-0.37,1.8 -1.21,3.43 -1.88,5.12c-2.4,6.05 -4.83,12.08 -7.27,18.11c-0.3,0.75 -0.36,1.24 0.61,1.4c0.32,0.05 0.62,0.24 0.92,0.37c1.86,0.77 1.86,0.77 2.63,-1.04c2.86,-6.71 5.73,-13.41 8.59,-20.12c0.33,-0.76 0.72,-1.49 1.18,-2.18c12.68,-19.31 25.35,-38.63 38.03,-57.94c0.25,-0.38 0.5,-0.75 0.79,-1.19c0.17,0.4 -0.09,0.62 -0.21,0.86c-10.55,20.95 -21.1,41.91 -31.66,62.86c-0.28,0.55 -0.63,1.07 -1,1.57c-4.55,6.08 -9.09,12.16 -13.67,18.22c-0.55,0.73 -0.76,1.25 0.23,1.71c0.15,0.07 0.27,0.19 0.4,0.29c1.91,1.42 1.91,1.42 3.36,-0.42c4.41,-5.61 8.82,-11.22 13.22,-16.84c0.54,-0.69 1.13,-1.31 1.79,-1.9c17.19,-15.33 34.38,-30.66 51.57,-45.99c0.21,-0.19 0.43,-0.36 0.72,-0.6c0.09,0.49 -0.24,0.66 -0.43,0.88c-15.38,17.25 -30.77,34.5 -46.15,51.76c-0.58,0.66 -1.25,1.21 -1.93,1.75c-5.84,4.59 -11.67,9.19 -17.53,13.75c-0.78,0.61 -1.09,1.07 -0.23,1.79c0.71,0.6 0.9,2.01 1.85,1.97c0.76,-0.03 1.49,-0.95 2.22,-1.5c3.12,-2.33 6.37,-4.53 9.34,-7.04c6.5,-5.51 14.08,-9.14 21.6,-12.91c16.68,-8.35 33.32,-16.77 49.98,-25.15c0.36,-0.18 0.73,-0.34 1.18,-0.56c-0.21,0.51 -0.63,0.63 -0.95,0.83c-19.31,12.68 -38.62,25.36 -57.95,38.02c-2.97,1.94 -6.38,2.96 -9.59,4.38c-4.58,2.03 -9.21,3.98 -13.83,5.92c-0.71,0.3 -1.03,0.58 -0.54,1.32c0.56,0.85 0.45,2.36 1.36,2.61c0.77,0.21 1.83,-0.58 2.75,-0.95c6.23,-2.5 12.46,-5.01 18.69,-7.49c3.53,-1.41 7.31,-1.81 10.99,-2.58c20.19,-4.24 40.4,-8.41 60.6,-12.61c0.24,-0.05 0.48,-0.08 0.76,0.05c-3.24,1.08 -6.47,2.16 -9.71,3.23c-19.24,6.35 -38.47,12.7 -57.71,19.03c-2.73,0.9 -5.62,0.99 -8.44,1.42c-5.45,0.83 -10.91,1.58 -16.37,2.33c-0.87,0.12 -1.32,0.4 -0.94,1.33c0.02,0.04 0.02,0.08 0.03,0.12c0.23,0.89 -0.21,2.21 0.63,2.61c0.73,0.35 1.85,-0.11 2.79,-0.23c7.12,-0.86 14.23,-1.92 21.37,-2.49c3.73,-0.3 7.53,0.27 11.3,0.48c6.67,0.37 13.34,0.77 20.01,1.15c9.53,0.55 19.05,1.1 28.58,1.65c3.56,0.2 7.13,0.4 10.69,0.59c0.49,0.03 0.98,0.05 1.49,0.32c-1.65,0.11 -3.3,0.23 -4.95,0.33c-14.41,0.83 -28.83,1.65 -43.24,2.47c-7.33,0.42 -14.66,0.86 -22,1.25c-2.96,0.16 -5.86,-0.51 -8.78,-0.83c-5.6,-0.63 -11.2,-1.33 -16.79,-2.02c-0.62,-0.08 -0.82,0.13 -0.86,0.7c-0.04,0.62 -0.02,1.28 -0.23,1.85c-0.48,1.31 0.21,1.51 1.26,1.65c7.68,1.07 15.38,2.02 23.01,3.34c3.15,0.55 6.16,1.9 9.23,2.91c19.47,6.42 38.94,12.85 58.42,19.28c0.42,0.14 0.82,0.3 1.19,0.61c-3.48,-0.72 -6.96,-1.45 -10.44,-2.17c-19.76,-4.1 -39.51,-8.2 -59.27,-12.3c-1.8,-0.37 -3.43,-1.21 -5.12,-1.88c-6.05,-2.4 -12.08,-4.83 -18.11,-7.27c-0.76,-0.31 -1.24,-0.34 -1.4,0.61c-0.05,0.32 -0.24,0.62 -0.37,0.92c-0.77,1.86 -0.77,1.86 1.04,2.63c6.82,2.92 13.64,5.83 20.45,8.76c0.49,0.21 0.98,0.45 1.43,0.75c19.67,12.89 39.33,25.8 58.99,38.7c0.17,0.11 0.34,0.23 0.44,0.51c-0.28,-0.12 -0.57,-0.24 -0.84,-0.38c-20.92,-10.53 -41.83,-21.06 -62.74,-31.61c-0.62,-0.31 -1.21,-0.72 -1.77,-1.14c-5.95,-4.45 -11.91,-8.88 -17.82,-13.38c-0.91,-0.69 -1.51,-0.91 -2.05,0.28c-0.03,0.07 -0.1,0.13 -0.15,0.2c-1.43,1.91 -1.43,1.91 0.41,3.36c5.61,4.41 11.25,8.78 16.83,13.24c2.74,2.19 4.8,5.04 7.12,7.63c13.64,15.24 27.25,30.53 40.86,45.8c0.16,0.18 0.31,0.38 0.52,0.62c-0.49,0.12 -0.65,-0.22 -0.87,-0.41c-17.31,-15.43 -34.61,-30.87 -51.92,-46.29c-0.63,-0.56 -1.14,-1.21 -1.65,-1.86c-4.59,-5.84 -9.19,-11.67 -13.75,-17.53c-0.57,-0.74 -1.03,-1.03 -1.71,-0.2c-0.03,0.03 -0.07,0.05 -0.1,0.08c-0.61,0.66 -1.95,0.9 -1.92,1.75c0.03,0.76 0.94,1.5 1.48,2.23c3.3,4.42 6.56,8.88 9.94,13.23c2.36,3.03 4.28,6.28 6,9.71c9.69,19.35 19.44,38.66 29.17,57.98c0.18,0.37 0.36,0.74 0.54,1.11c0.03,0.04 -0.03,0.08 -0.08,0.13z" class="st52"/>
    </g>
   </g>
  </g>
 </g>
</svg>