<svg xmlns="http://www.w3.org/2000/svg" width="39.896" height="40.129" viewBox="0 0 39.896 40.129"><defs><style>.a{fill:#2578be;}</style></defs><g transform="translate(-176.734 -377.842)"><g transform="translate(176.734 377.842)"><path class="a" d="M196.662,409.606q-8.923,0-17.849,0a1.965,1.965,0,0,1-2.072-2.071c0-3.062,0-6.124-.007-9.186,0-.3.06-.422.394-.415,1.061.023,2.122.02,3.183,0,.309-.006.378.091.375.388-.013,2.378,0,4.755-.014,7.131,0,.3.072.38.377.38q15.592-.013,31.185,0c.3,0,.378-.081.377-.38-.013-2.364,0-4.728-.016-7.092,0-.323.075-.439.418-.432,1.075.02,2.15.021,3.224,0,.334-.006.394.115.394.416-.01,3.075,0,6.151-.009,9.226a1.956,1.956,0,0,1-2.03,2.03q-5.1.009-10.193,0Z" transform="translate(-176.734 -369.478)"/><path class="a" d="M191.537,399.55v-6.426q0-6.543,0-13.09a2.081,2.081,0,1,1,4.157-.034q.011,7.512,0,15.023,0,2.035,0,4.069c0,.1.01.207.018.382.149-.132.258-.22.357-.317,1.256-1.231,2.5-2.472,3.769-3.692a1.943,1.943,0,0,1,2.947.027,1.881,1.881,0,0,1,.069,2.47,4.118,4.118,0,0,1-.354.384q-3.673,3.618-7.345,7.236a2.087,2.087,0,0,1-2.2.622,2,2,0,0,1-.836-.538q-3.746-3.743-7.49-7.491a1.842,1.842,0,0,1-.541-1.98,1.939,1.939,0,0,1,1.626-1.378,1.836,1.836,0,0,1,1.667.61q1.925,1.918,3.848,3.841C191.311,399.341,191.387,399.41,191.537,399.55Z" transform="translate(-173.71 -377.842)"/></g></g></svg>