<svg xmlns="http://www.w3.org/2000/svg" width="49.385" height="70.955" viewBox="0 0 49.385 70.955"><defs><style>.a{fill:#2879bf;}.b{fill:none;stroke:#e60019;stroke-miterlimit:10;stroke-width:1.417px;}</style></defs><g transform="translate(-402.27 -182.66)"><g transform="translate(402.27 182.66)"><path class="a" d="M448.609,200.616a10.632,10.632,0,0,0-2.112-3.225c-2.251-2.344-4.989-2.6-7.959-1.763-2.552.719-3.457,2.761-3.921,5.128a10.068,10.068,0,0,0-.186,1.207c-.162,1.926-.325,3.875-.464,5.824-.07.789-.325,1.253-1.23,1.369a26.006,26.006,0,0,0-3.782.766c-1.021.278-1.88.487-2.46-.7-.139-.278-.51-.418-.789-.6L420.139,205a2.718,2.718,0,0,1-1-1.114c-1.88-3.736-3.991-7.355-5.592-11.184-1.508-3.62-6.427-3.921-8.84-1.671a6.89,6.89,0,0,0-2.181,5.244v46.847c0,.418-.232,1.044.58,1.044,4.316-.023,8.631,0,12.947-.023.928-.023,1.346-.626,1.23-1.6a3.215,3.215,0,0,0-2-2.715c-.7-.278-.789-.7-.789-1.346.023-9.3,0-18.632.023-27.96,0-.232-.162-.58.209-.789a2.938,2.938,0,0,0,1.207,1.114c1.067.58,2.065,1.276,3.132,1.833,1.578.859,2.947,2.158,4.8,2.46.116.023.278.325.278.464-.186,2.2-.093,4.409-.093,6.613.023,7.031-.023,14.061-.046,21.115,0,.418-.093,1,.534,1.021.719.046.6-.58.6-1.044-.023-8.469-.047-16.938-.023-25.431a3.29,3.29,0,0,1,.626-2.668,3.705,3.705,0,0,0,2.97,1.856c.441.023.534.278.464.673a.508.508,0,0,0,.557.65c.371.023.441-.255.441-.58.023-.719.418-.975,1.114-1.091,1.74-.3,3.457-.719,5.2-1.067,1.137-.232,2.32-.371,2.831-1.694,1.485,2.32,1.6,4.733,1.624,7.239.07,5.847.255,11.694.418,17.565a.948.948,0,0,1-.789,1.091,2.975,2.975,0,0,0-1.879,1.74c-.743,1.74-.047,2.808,1.833,2.831,3.179,0,6.334-.046,9.513.023.9,0,1.091-.278,1.091-1.137-.023-6.659-.023-13.342-.023-20a69.225,69.225,0,0,1,.093-7.286A30.51,30.51,0,0,0,448.609,200.616Zm-44.968,3.55h.023c0-2.761-.046-5.522.023-8.284a5.021,5.021,0,0,1,6.265-4.989,3.2,3.2,0,0,1,2.135,1.647c1.021,2,2.019,3.991,3.04,5.986.255.487.232.766-.255,1.067-.859.51-1.671,1.067-2.483,1.647-.441.325-.766.394-1-.209a3.242,3.242,0,0,0-.209-.394c-.209-.371-.418-.882-.974-.6-.58.278-.278.743-.07,1.137.835,1.555,1.647,3.132,2.529,4.641a4.924,4.924,0,0,1,.719,2.831c-.046,1.276-.023,2.576,0,3.852,0,.6-.162.882-.812.859-2.6-.046-5.221,0-7.819.186-.882.07-1.183-.209-1.137-1.207C403.711,209.619,403.641,206.9,403.641,204.166Zm.023,21.927c-.07-3.04.139-6.868-.093-10.7-.046-.789.255-1.067,1.021-1.044,2.668.139,5.36.255,8.052.186.487,0,.673.162.742.7a34.953,34.953,0,0,1,.023,4.409c.07,6.265-.023,12.53-.023,18.795,0,.859-.278,1.044-1.09,1.021-2.529-.046-5.082-.046-7.611,0-.882.023-1.044-.278-1.044-1.067C403.688,234.562,403.664,230.71,403.664,226.093Zm12.182,15.778c.464.835.325,1.091-.627,1.091-1.763.023-3.527.023-5.29.023-1.81,0-3.62-.046-5.43,0-.951.046-.858-.534-.835-1.114s-.232-1.276.835-1.253c3.109.046,6.2.023,9.281.023A2.211,2.211,0,0,1,415.846,241.871Zm10.372-29.329a2.213,2.213,0,0,1-2.135,1.439,2.377,2.377,0,0,1-1.253-.418c-2.088-1.23-4.177-2.483-6.265-3.712a2.32,2.32,0,0,1-.9-.928c-1-1.856-1.972-3.712-2.993-5.522-.325-.557-.255-.835.278-1.137.812-.51,1.6-1.044,2.39-1.6.441-.325.766-.371.975.232a.176.176,0,0,1,.046.093c1.137,3.5,3.643,5.731,6.8,7.4a15.219,15.219,0,0,1,2.39,1.578A2.034,2.034,0,0,1,426.218,212.542Zm2.506,3.364a1.955,1.955,0,0,1-1.74-1.021,1.016,1.016,0,0,1,0-1.3,2.151,2.151,0,0,0,.534-1.3c0-1.067.835-1.044,1.531-1.207.394-.116.441.255.51.557.209.951.394,1.926.6,2.9C430.418,215.767,430.3,215.907,428.724,215.907Zm19.63,27.31c-1.183.023-2.344,0-3.527,0-1.485,0-2.947-.023-4.432.023-.766.023-.9-.325-.673-.951a2.091,2.091,0,0,1,2.088-1.531c2.46-.023,4.919,0,7.4-.023.58,0,.719.255.742.789C450.024,243.217,450.047,243.217,448.354,243.217Zm1.6-17.4v2.529c0,3.434-.023,6.845,0,10.279.023.766-.186,1.021-.975,1-1.833-.046-3.689-.046-5.522,0-.742.023-.928-.255-.928-.951-.093-4.965-.232-9.931-.371-14.9a31,31,0,0,0-.186-4.409c-.093-.673.232-1.044.951-1.183,1.949-.348,3.875-.766,5.824-1.16,1.207-.232,1.3-.162,1.276,1.067Q449.989,221.951,449.955,225.814Zm-2.344-9.745c-1.578.325-3.179.626-4.757.974-.6.139-1.067.139-1.183-.65a3.019,3.019,0,0,0-.394-1.021c-1.624-2.6-1.091-5.174-.046-7.8a9.45,9.45,0,0,0,.464-1.578c.116-.464.534-1.091-.255-1.3-.673-.162-.7.487-.835.928-.719,2.367-1.485,4.71-2.112,7.1a2.077,2.077,0,0,1-1.972,1.717,41.742,41.742,0,0,0-4.107.882c-.743.209-.975-.07-1.091-.742-.162-1.021-.371-2.019-.627-3.04-.116-.58-.023-.9.65-.951.6-.07,1.23-.325,1.833-.348,1.392-.023,1.763-.859,1.9-2.042.278-2.32.209-4.641.626-6.938.394-2.112,1.044-4.014,3.48-4.617,2.715-.65,5.151-.278,6.938,2.088,2.019,2.692,2.854,5.87,3.55,9.1a21.355,21.355,0,0,1,.534,4.594C450.233,215.512,450.233,215.512,447.611,216.069Z" transform="translate(-401.97 -173.491)"/><path class="a" d="M431.589,212.223c-1.578.325-3.179.626-4.757.974-.6.139-1.067.139-1.183-.65a3.018,3.018,0,0,0-.394-1.021c-1.624-2.6-1.091-5.174-.046-7.8a9.455,9.455,0,0,0,.464-1.578c.116-.464.534-1.091-.255-1.3-.673-.162-.7.487-.835.928-.719,2.367-1.485,4.71-2.112,7.1A2.077,2.077,0,0,1,420.5,210.6a41.747,41.747,0,0,0-4.107.882c-.742.209-.975-.07-1.09-.742-.163-1.021-.371-2.019-.627-3.04-.116-.58-.023-.9.65-.951.6-.07,1.23-.325,1.833-.348,1.392-.023,1.763-.859,1.9-2.042.278-2.32.209-4.641.626-6.938.394-2.112,1.044-4.014,3.48-4.617,2.715-.65,5.151-.278,6.938,2.088,2.019,2.692,2.854,5.87,3.55,9.1a21.351,21.351,0,0,1,.534,4.594C434.211,211.666,434.211,211.666,431.589,212.223Z" transform="translate(-385.948 -169.645)"/><path class="a" d="M414.236,198.954c-.859.511-1.671,1.067-2.483,1.647-.441.325-.766.394-1-.209a3.242,3.242,0,0,0-.209-.394c-.209-.371-.418-.882-.974-.6-.58.278-.278.742-.07,1.137.835,1.555,1.647,3.132,2.529,4.641a4.924,4.924,0,0,1,.719,2.831c-.046,1.276-.023,2.576,0,3.852,0,.6-.162.882-.812.859-2.6-.046-5.221,0-7.819.186-.882.07-1.183-.209-1.137-1.207.093-2.715.023-5.43.023-8.167h.023c0-2.761-.046-5.522.023-8.284a5.021,5.021,0,0,1,6.265-4.989,3.2,3.2,0,0,1,2.135,1.647c1.021,2,2.019,3.991,3.04,5.986C414.746,198.374,414.723,198.652,414.236,198.954Z" transform="translate(-401.335 -172.85)"/><path class="a" d="M409.672,182.66a7.442,7.442,0,0,0-7.4,7.495,7.379,7.379,0,1,0,7.4-7.495Zm.023,13.69a6.265,6.265,0,0,1,0-12.53,6.265,6.265,0,0,1,0,12.53Z" transform="translate(-402.27 -182.66)"/><path class="a" d="M415.2,189.495a6.208,6.208,0,1,1-6.2-6.334A6.27,6.27,0,0,1,415.2,189.495Z" transform="translate(-401.583 -182)"/><path class="a" d="M420.467,186.59a6.382,6.382,0,1,0-.046,12.762c3.736,0,6.451-2.552,6.451-6.1A6.535,6.535,0,0,0,420.467,186.59Zm0,11.625a5.221,5.221,0,1,1,5.244-4.942A4.964,4.964,0,0,1,420.467,198.215Z" transform="translate(-386.822 -177.471)"/><path class="a" d="M425.051,192.6a4.964,4.964,0,0,1-5.244,4.942,5.221,5.221,0,1,1,5.244-4.942Z" transform="translate(-386.162 -176.798)"/></g><line class="b" y1="29.507" transform="translate(424.844 224.023)"/><line class="b" y1="1.778" transform="translate(430.033 225.79)"/></g></svg>