<svg xmlns="http://www.w3.org/2000/svg" width="60.556" height="80.956" viewBox="0 0 60.556 80.956"><defs><style>.a,.b{fill:none;}.a,.c{stroke:#0064b0;}.a,.b,.c{stroke-miterlimit:10;stroke-width:0.85px;}.b{stroke:#0056a4;}.c{fill:#0064b0;}.d{fill:#e60019;}</style></defs><g transform="translate(-219.982 -173.519)"><path class="a" d="M220.276,214.737l26.868-25.732L260.9,202.624" transform="translate(0 14.294)"/><line class="b" x1="13.826" transform="translate(255.128 251.921)"/><path class="a" d="M224.59,198.26v30.825h11.673" transform="translate(3.982 22.835)"/><rect class="c" width="14.884" height="21.018" transform="translate(240.244 230.903)"/><path class="d" d="M248.937,243.077s13.936-13.938,0-28.506-1.717-28.7-1.717-28.7-4.992,11.536,9.534,27.52C267.847,225.6,248.937,243.077,248.937,243.077Z" transform="translate(20.295 11.398)"/><path class="d" d="M241.772,196.938s4.029-5.255,0-10.511a8.251,8.251,0,0,1,0-10.163,11.738,11.738,0,0,0,2.344,10.338C248.143,191.208,241.772,196.938,241.772,196.938Z" transform="translate(18.187 2.534)"/><path class="d" d="M249.1,214.963a17.447,17.447,0,0,0,0-20.92c-7.9-11.282,0-20.524,0-20.524s-3.065,13.33,4.452,19.27S249.1,214.963,249.1,214.963Z" transform="translate(23.362 0)"/></g></svg>