<svg xmlns="http://www.w3.org/2000/svg" width="45.699" height="33.635" viewBox="0 0 45.699 33.635"><defs><style>.a{fill:#f9840e;}.b{fill:#419b35;}.c{fill:#fff;}.d{fill:#092d7d;}</style></defs><g transform="translate(-410.52 -380.354)"><g transform="translate(410.52 380.354)"><path class="a" d="M456.195,411.493c-15.226-8.569-30.45,8.61-45.675.013v-28.67c15.225,8.6,30.449-8.583,45.675-.013Z" transform="translate(-410.52 -380.354)"/><path class="b" d="M456.195,412.119c-15.226-8.569-30.45,8.61-45.675.013V397.321c15.225,8.6,30.449-8.583,45.675-.013Z" transform="translate(-410.52 -380.98)"/><path class="c" d="M410.52,402.336c15.233,8.6,30.466-8.6,45.7,0V392.69c-15.233-8.6-30.466,8.6-45.7,0Z" transform="translate(-410.52 -380.78)"/></g><g transform="translate(428.819 392.4)"><g transform="translate(0.054 0.1)"><path class="d" d="M435.768,397.529a.611.611,0,0,1-.027.1c.845.157,1.691.319,2.535.5-.866-.092-1.73-.166-2.6-.236l-.023-.006a.908.908,0,0,1-.034.089c.744.327,1.492.659,2.236,1-.787-.262-1.577-.512-2.365-.758-.021.033-.038.062-.056.094.62.5,1.241,1.008,1.861,1.52-.678-.438-1.358-.869-2.035-1.3-.011.02-.027.036-.04.056q.729.964,1.457,1.934c-.553-.581-1.106-1.156-1.659-1.731-.028.026-.056.05-.083.074q.477,1.16.949,2.318-.584-1.079-1.169-2.156a.684.684,0,0,1-.072.044v.006q.225,1.313.449,2.625-.341-1.239-.685-2.479l-.006-.027a.4.4,0,0,1-.1.044q-.062,1.409-.124,2.822-.06-1.359-.122-2.721v-.027a.093.093,0,0,1-.057.018q-.316,1.445-.633,2.891.192-1.421.388-2.84l.006-.018c-.034,0-.069,0-.1.007q-.588,1.425-1.174,2.851.468-1.431.94-2.86l0-.011c-.023-.006-.044-.012-.067-.015q-.811,1.358-1.624,2.709.7-1.379,1.4-2.765l.006-.013c-.029-.01-.052-.023-.078-.033q-1.022,1.223-2.046,2.431.93-1.264,1.861-2.542l0-.007c-.01-.013-.03-.026-.038-.039-.786.707-1.571,1.412-2.357,2.1q1.1-1.12,2.2-2.261c-.017-.025-.034-.047-.051-.07q-1.3.834-2.6,1.641,1.246-.907,2.493-1.844a.038.038,0,0,1-.016-.034c-.908.4-1.816.8-2.725,1.175.886-.449,1.772-.915,2.658-1.387a.809.809,0,0,1-.011-.1c-.919.215-1.836.422-2.755.609.912-.27,1.825-.557,2.735-.853a.315.315,0,0,1,.006-.072c-.893.041-1.786.077-2.679.094.9-.1,1.806-.219,2.709-.344a.755.755,0,0,1,.034-.112c-.832-.156-1.663-.316-2.5-.491.857.091,1.716.167,2.575.238a.37.37,0,0,1,.027-.064c-.751-.33-1.5-.664-2.252-1.009.79.265,1.581.517,2.371.764.023-.033.039-.067.068-.1q-.934-.761-1.871-1.534,1.018.66,2.032,1.3l.052-.067c-.488-.644-.973-1.29-1.461-1.938q.828.874,1.657,1.739a1.066,1.066,0,0,1,.1-.081q-.475-1.167-.951-2.334.584,1.084,1.168,2.162a.492.492,0,0,0,.091-.054q-.221-1.29-.444-2.581l.68,2.46a.958.958,0,0,1,.106-.04q.062-1.392.125-2.784.062,1.355.123,2.709a.274.274,0,0,1,.072-.014q.309-1.428.618-2.855c-.128.941-.254,1.882-.382,2.823a.484.484,0,0,1,.105,0q.58-1.409,1.16-2.819-.468,1.419-.935,2.842a.163.163,0,0,1,.056.017q.812-1.362,1.625-2.717-.7,1.382-1.4,2.767l-.01.014a.375.375,0,0,0,.083.037c.686-.818,1.37-1.637,2.056-2.447q-.931,1.267-1.866,2.553l-.016.021c.016.012.034.018.045.033q1.186-1.069,2.372-2.118-1.1,1.118-2.2,2.256l-.021.022c.016.024.034.05.051.073l.006,0c.875-.565,1.749-1.124,2.624-1.67q-1.25.909-2.5,1.847l-.029.019a.408.408,0,0,1,.023.056c.915-.4,1.828-.8,2.741-1.183-.892.454-1.783.923-2.674,1.4l-.01,0a.545.545,0,0,1,.01.1c.928-.216,1.854-.428,2.781-.619-.917.273-1.835.561-2.752.857l-.024.007a.272.272,0,0,1,0,.062c.906-.042,1.813-.078,2.719-.1-.911.1-1.824.223-2.735.349Z" transform="translate(-429.701 -393.048)"/></g><path class="d" d="M434.142,402.109a3.309,3.309,0,0,1-4.5-3.275,6.368,6.368,0,0,1,4.5-5.713,3.306,3.306,0,0,1,4.494,3.272A6.37,6.37,0,0,1,434.142,402.109Zm0-8.708a5.973,5.973,0,0,0-4.215,5.361,3.1,3.1,0,0,0,4.215,3.067,5.979,5.979,0,0,0,4.214-5.365A3.1,3.1,0,0,0,434.142,393.4Z" transform="translate(-429.645 -392.944)"/></g></g></svg>