<svg xmlns="http://www.w3.org/2000/svg" width="144.686" height="148.948" viewBox="0 0 144.686 148.948"><defs><style>.a{fill:#fff;}.b{fill:none;stroke:#fff;stroke-miterlimit:10;stroke-width:0.283px;}.c{fill:#e60c1b;}</style></defs><g transform="translate(-366.665 -318.91)"><path class="a" d="M421.139,340.753H390.523c-3.683,0-5.9,2.216-5.9,5.928v74.181c0,3.6,2.273,5.813,5.87,5.813q15.15.043,30.271,0c3.655,0,5.9-2.244,5.9-5.9V346.364A5.423,5.423,0,0,0,421.139,340.753Zm-.374,85.058H390.58c-3.165,0-5.064-1.87-5.064-5.007q-.043-36.947,0-73.836c0-2.935,1.295-4.748,3.712-5.237a7.465,7.465,0,0,1,1.611-.115h29.926a4.655,4.655,0,0,1,5.036,4.978v74.181A4.656,4.656,0,0,1,420.765,425.811Z" transform="translate(33.718 41.011)"/><path class="a" d="M420.859,341.58H390.876a9.733,9.733,0,0,0-1.583.086c-2.475.518-3.856,2.417-3.856,5.41v73.836c0,3.223,1.957,5.179,5.237,5.179h30.185c3.194,0,5.18-2.014,5.18-5.237V346.7C426.039,343.537,424.053,341.58,420.859,341.58Zm4.863,79.275c0,3.079-1.813,4.92-4.863,4.92H390.674c-3.079,0-4.921-1.813-4.921-4.863V347.076c0-2.849,1.237-4.633,3.626-5.093a8.546,8.546,0,0,1,1.525-.086h.029c9.985,0,19.941-.029,29.926,0a4.475,4.475,0,0,1,4.863,4.805Zm-4.863-79.275H390.876a9.733,9.733,0,0,0-1.583.086c-2.475.518-3.856,2.417-3.856,5.41v73.836c0,3.223,1.957,5.179,5.237,5.179h30.185c3.194,0,5.18-2.014,5.18-5.237V346.7C426.039,343.537,424.053,341.58,420.859,341.58Zm4.863,79.275c0,3.079-1.813,4.92-4.863,4.92H390.674c-3.079,0-4.921-1.813-4.921-4.863V347.076c0-2.849,1.237-4.633,3.626-5.093a8.546,8.546,0,0,1,1.525-.086h.029c9.985,0,19.941-.029,29.926,0a4.475,4.475,0,0,1,4.863,4.805Zm-4.489-80.138c-10.158-.029-20.459-.029-30.616,0-3.8,0-6.043,2.273-6.043,6.071V420.97c0,3.683,2.3,5.985,6.014,5.985h30.271c3.741,0,6.043-2.331,6.043-6.071V394.5l.029-21.265v-26.76A5.6,5.6,0,0,0,421.233,340.717Zm5.381,80.167c0,3.6-2.158,5.755-5.755,5.755H390.588c-3.511,0-5.7-2.187-5.7-5.669q-.043-37.12,0-74.182c0-3.6,2.129-5.755,5.726-5.755C395.278,341,399.94,341,404.63,341c5.554,0,11.107,0,16.6.029a5.23,5.23,0,0,1,5.381,5.439Zm-5.755-79.3H390.876a9.733,9.733,0,0,0-1.583.086c-2.475.518-3.856,2.417-3.856,5.41v73.836c0,3.223,1.957,5.179,5.237,5.179h30.185c3.194,0,5.18-2.014,5.18-5.237V346.7C426.039,343.537,424.053,341.58,420.859,341.58Zm4.863,79.275c0,3.079-1.813,4.92-4.863,4.92H390.674c-3.079,0-4.921-1.813-4.921-4.863V347.076c0-2.849,1.237-4.633,3.626-5.093a8.546,8.546,0,0,1,1.525-.086h.029c9.985,0,19.941-.029,29.926,0a4.475,4.475,0,0,1,4.863,4.805Z" transform="translate(33.624 40.903)"/><path class="a" d="M422.9,376.987c0,10.324-.017,20.649.023,30.973.006,1.111-.325,1.39-1.407,1.387q-17.317-.052-34.63.009c-1.131,0-1.473-.259-1.473-1.45q.061-31.085.006-62.171c0-1.065.3-1.338,1.35-1.332,11.429.034,22.856.014,34.285.023,1.974,0,1.85-.317,1.85,1.819q.009,15.37,0,30.743Zm-.869-.121q0-15.206.014-30.406c0-.814-.092-1.194-1.079-1.188q-16.747.06-33.491.006c-.973,0-1.18.282-1.18,1.209q.039,30.464-.006,60.925c0,.881.262,1.062,1.091,1.059q16.8-.039,33.606,0c.878,0,1.065-.253,1.062-1.088Q422,392.122,422.031,376.866Z" transform="translate(35.197 47.862)"/><path class="a" d="M386.964,409.617a1.312,1.312,0,0,1-1.606-1.608c.037-19.308.037-39.643.006-62.171a1.56,1.56,0,0,1,.322-1.171,1.533,1.533,0,0,1,1.163-.319h.02c7.568.023,15.271.026,22.7.023q5.792,0,11.582,0h.02c.25,0,.466-.006.65-.011.59-.012.918-.02,1.119.178.222.219.222.6.219,1.45v.357q0,11.529,0,23.057l-.006,14.517c0,7.913-.006,16.094.026,24.139a1.623,1.623,0,0,1-.334,1.214,1.591,1.591,0,0,1-1.208.334h-.026c-11.593-.037-23.25-.037-34.625.009Zm-.115-64.956a.934.934,0,0,0-1.171,1.177c.034,22.528.032,42.863-.006,62.171a1.445,1.445,0,0,0,.25,1.047c.173.173.475.245,1.039.245h.026c11.38-.04,23.031-.04,34.63-.009h.023a.977.977,0,0,0,1.229-1.232c-.032-8.046-.029-16.226-.029-24.139l.009-14.517q0-11.529,0-23.057v-.357c0-.711,0-1.1-.124-1.226-.109-.106-.406-.1-.895-.089-.187.006-.406.012-.659.012h-.017q-5.792,0-11.582,0c-7.441,0-15.139,0-22.7-.023ZM421.1,408.734h-.012c-10.727-.032-21.716-.034-33.606,0h-.014a1.313,1.313,0,0,1-.97-.262,1.271,1.271,0,0,1-.262-.955c.026-20.349.029-40.849.006-60.925a1.447,1.447,0,0,1,.285-1.079,1.369,1.369,0,0,1,1.05-.285c11.329.034,22.6.032,33.488-.009h.02a1.291,1.291,0,0,1,.952.273,1.469,1.469,0,0,1,.265,1.073c-.017,8.048-.017,16.232-.014,24.145v11.228c0,8.373-.006,17.035.017,25.552a1.31,1.31,0,0,1-.259.981A1.263,1.263,0,0,1,421.1,408.734Zm-16.8-.337c5.723,0,11.294.009,16.793.02h.012a1.053,1.053,0,0,0,.725-.167c.121-.124.17-.342.167-.763-.023-8.517-.02-17.179-.017-25.552V370.708c0-7.913,0-16.1.014-24.145,0-.429-.026-.7-.173-.849a1.022,1.022,0,0,0-.731-.184h-.017c-10.891.04-22.162.043-33.491.009h-.017a1.138,1.138,0,0,0-.811.193c-.138.138-.2.386-.2.858.026,20.076.023,40.575,0,60.925a1.071,1.071,0,0,0,.17.737c.121.118.337.164.748.164h.014C393.274,408.4,398.853,408.4,404.295,408.4Z" transform="translate(35.096 47.758)"/><path class="a" d="M394.29,367.293a3.626,3.626,0,1,0,3.654,3.568A3.6,3.6,0,0,0,394.29,367.293Zm2.791,3.654a2.763,2.763,0,1,1-5.525-.086,2.777,2.777,0,0,1,2.791-2.7A2.821,2.821,0,0,1,397.081,370.948Z" transform="translate(45.058 90.839)"/><path class="a" d="M396.485,368.988a2.875,2.875,0,0,0-2.043-.863,2.936,2.936,0,0,0-2.964,2.849,3,3,0,0,0,2.877,2.964h.058a2.814,2.814,0,0,0,1.985-.834,2.851,2.851,0,0,0,.086-4.115Zm-2.072,4.633h-.058a2.633,2.633,0,0,1-1.813-.806,2.69,2.69,0,0,1-.748-1.842,2.618,2.618,0,0,1,2.647-2.532,2.55,2.55,0,0,1,1.813.777A2.474,2.474,0,0,1,397,371.06a2.633,2.633,0,0,1-.806,1.813A2.555,2.555,0,0,1,394.413,373.621Zm2.072-4.633a2.875,2.875,0,0,0-2.043-.863,2.936,2.936,0,0,0-2.964,2.849,3,3,0,0,0,2.877,2.964h.058a2.814,2.814,0,0,0,1.985-.834,2.851,2.851,0,0,0,.086-4.115Zm-2.072,4.633h-.058a2.633,2.633,0,0,1-1.813-.806,2.69,2.69,0,0,1-.748-1.842,2.618,2.618,0,0,1,2.647-2.532,2.55,2.55,0,0,1,1.813.777A2.474,2.474,0,0,1,397,371.06a2.633,2.633,0,0,1-.806,1.813A2.555,2.555,0,0,1,394.413,373.621Zm0-6.388h-.029a3.881,3.881,0,0,0-2.7,1.151,3.685,3.685,0,0,0-1.065,2.734,3.732,3.732,0,0,0,1.151,2.647,3.818,3.818,0,0,0,2.647,1.065h.057a3.834,3.834,0,0,0,3.712-3.8v-.057A3.722,3.722,0,0,0,394.413,367.233Zm.057,7.28h-.057a3.443,3.443,0,0,1-2.417-.978,3.344,3.344,0,0,1-1.065-2.417,3.442,3.442,0,0,1,3.453-3.568h.029a3.445,3.445,0,0,1,3.482,3.424A3.514,3.514,0,0,1,394.471,374.513Zm2.014-5.525a2.875,2.875,0,0,0-2.043-.863,2.936,2.936,0,0,0-2.964,2.849,3,3,0,0,0,2.877,2.964h.058a2.814,2.814,0,0,0,1.985-.834,2.851,2.851,0,0,0,.086-4.115Zm-2.072,4.633h-.058a2.633,2.633,0,0,1-1.813-.806,2.69,2.69,0,0,1-.748-1.842,2.618,2.618,0,0,1,2.647-2.532,2.55,2.55,0,0,1,1.813.777A2.474,2.474,0,0,1,397,371.06a2.633,2.633,0,0,1-.806,1.813A2.555,2.555,0,0,1,394.413,373.621Z" transform="translate(44.963 90.726)"/><path class="a" d="M396.232,370.272a2.633,2.633,0,0,1-.806,1.813,2.555,2.555,0,0,1-1.784.748h-.058a2.633,2.633,0,0,1-1.813-.806,2.69,2.69,0,0,1-.748-1.842,2.618,2.618,0,0,1,2.647-2.532,2.55,2.55,0,0,1,1.813.777A2.475,2.475,0,0,1,396.232,370.272Z" transform="translate(45.734 91.515)"/><path class="a" d="M394.621,343.535c-1.1,0-2.2.006-3.295,0-.328,0-.768.063-.8-.409-.029-.492.406-.458.742-.458q3.293-.009,6.592-.006c.334,0,.768-.026.74.463s-.469.4-.8.4c-1.059.009-2.121,0-3.182,0Z" transform="translate(44.802 44.59)"/><path class="a" d="M391.092,343.339a.831.831,0,0,1-.809.918.809.809,0,0,1-.935-.783.829.829,0,0,1,.866-.967A.809.809,0,0,1,391.092,343.339Z" transform="translate(42.581 44.303)"/><path class="a" d="M390.261,382.74a5.184,5.184,0,0,1,10.339,0,5.177,5.177,0,0,1-10.339,0Zm.164-33.218h10.014l-1.669,24.605h-6.676Z" transform="translate(44.301 57.474)"/><line class="b" y2="13.602" transform="translate(439.366 365.822)"/><line class="b" x2="9.15" y2="10.065" transform="translate(406.014 378.724)"/><line class="b" x1="9.15" y2="10.065" transform="translate(462.876 378.724)"/><path class="b" d="M381.079,342.737l-.915-3.243,3.025,1.018" transform="translate(25.345 38.647)"/><path class="b" d="M404.536,342.722l.915-3.243-3.025,1.018" transform="translate(67.141 38.619)"/><path class="b" d="M391.376,337.856l1.739-2.886,1.327,2.9" transform="translate(46.395 30.153)"/><circle class="c" cx="20.844" cy="20.844" r="20.844" transform="translate(469.663 339.754)"/><path class="a" d="M413.53,330.391h3.344v7.084h6.756v3.309h-6.756V347.9H413.53v-7.113h-6.756v-3.309h6.756Z" transform="translate(75.304 21.556)"/><circle class="c" cx="20.844" cy="20.844" r="20.844" transform="translate(418.461 318.91)"/><circle class="c" cx="20.844" cy="20.844" r="20.844" transform="translate(366.665 339.754)"/><path class="a" d="M404.072,333.385a7.416,7.416,0,0,0-1.134-2.685.323.323,0,0,0-.417-.17.341.341,0,0,0-.207.417,4.558,4.558,0,0,1-.547,3.136,1.829,1.829,0,0,1-.305.417,8.429,8.429,0,0,0,.115-3.421,11.367,11.367,0,0,0-2.308-5.125,9.953,9.953,0,0,0-3.8-3.1,6.964,6.964,0,0,0-2.06-.529.365.365,0,0,0-.455.4.468.468,0,0,0,.227.3,4.62,4.62,0,0,1,.909.794,5.594,5.594,0,0,1,1.361,4.5,4.207,4.207,0,0,1-.567,1.683,7.441,7.441,0,0,0-.36-1.816,3.873,3.873,0,0,0-.964-1.588.36.36,0,0,0-.645.3,4.742,4.742,0,0,1,.075.719,3.757,3.757,0,0,1-.811,2.552c-.455.624-.927,1.249-1.381,1.873a6.639,6.639,0,0,0-1.286,3.384,6.04,6.04,0,0,0,1.021,3.8,7.058,7.058,0,0,0,3.367,2.665,7.619,7.619,0,0,0,10.172-8.509Zm-1.908,5.559a6.662,6.662,0,0,1-4.086,2.7,6.836,6.836,0,0,1-5.237-1.039,5.525,5.525,0,0,1-2.42-3.122,5.366,5.366,0,0,1,.584-4.575c.512-.832,1.154-1.568,1.7-2.362a5.163,5.163,0,0,0,.869-1.911,5.5,5.5,0,0,0,.095-.777,4.151,4.151,0,0,1,.455,1.4,5,5,0,0,1,0,1.908.339.339,0,0,0,.6.285,6.164,6.164,0,0,0-.227-8.132c-.037-.055-.075-.1-.132-.17a6.725,6.725,0,0,1,1.513.624,9.959,9.959,0,0,1,3.007,2.742,10.972,10.972,0,0,1,1.985,4.273,7.218,7.218,0,0,1-.265,4.141c-.037.095-.058.19-.1.285a.347.347,0,0,0,.1.414.34.34,0,0,0,.435.037,3.247,3.247,0,0,0,1.286-1.283,5.344,5.344,0,0,0,.662-2.006.646.646,0,0,1,.037-.132,4.54,4.54,0,0,1,.282.757A6.571,6.571,0,0,1,402.164,338.944Z" transform="translate(42.875 6.402)"/><path class="a" d="M401.737,338.4a6.662,6.662,0,0,1-4.086,2.7,6.836,6.836,0,0,1-5.237-1.039,5.524,5.524,0,0,1-2.42-3.122,5.366,5.366,0,0,1,.584-4.575c.512-.832,1.154-1.568,1.7-2.362a5.163,5.163,0,0,0,.869-1.911,5.5,5.5,0,0,0,.095-.777,4.152,4.152,0,0,1,.455,1.4,5,5,0,0,1,0,1.908.339.339,0,0,0,.6.285,6.164,6.164,0,0,0-.227-8.132c-.037-.055-.075-.1-.132-.17a6.722,6.722,0,0,1,1.513.624,9.959,9.959,0,0,1,3.007,2.742,10.972,10.972,0,0,1,1.985,4.273,7.217,7.217,0,0,1-.265,4.141c-.037.095-.058.19-.1.285a.348.348,0,0,0,.1.414.34.34,0,0,0,.435.037,3.247,3.247,0,0,0,1.286-1.283,5.344,5.344,0,0,0,.662-2.006.648.648,0,0,1,.037-.132,4.539,4.539,0,0,1,.282.757A6.571,6.571,0,0,1,401.737,338.4Z" transform="translate(43.302 6.948)"/><path class="a" d="M378.509,348.235s-.285-.693-3.729-2.875a7.116,7.116,0,0,1-3.321-5.87v-5.378c3.672,0,7.05-3.793,7.05-3.793s3.378,3.793,7.047,3.793v5.378a7.108,7.108,0,0,1-3.321,5.87c-3.442,2.181-3.726,2.875-3.726,2.875Z" transform="translate(9.001 21.423)"/></g></svg>