<svg xmlns="http://www.w3.org/2000/svg" width="96.164" height="120.456" viewBox="0 0 96.164 120.456"><defs><style>.a{fill:#2578be;}.b{fill:#fff;}.c{fill:#e60c1b;}.d{fill:none;stroke:#e60c1b;stroke-miterlimit:10;stroke-width:0.142px;}</style></defs><g transform="translate(-473.178 -331.717)"><path class="a" d="M485.2,354.734a1.06,1.06,0,0,0,.949,0Z" transform="translate(23.645 45.285)"/><path class="b" d="M525.815,356.8a16.084,16.084,0,0,0-.861,9.051c-6.172-3.65-9.5-9.437-14.1-13.917-.92.534-.534,1.306-.534,1.929-.03,7.864,0,15.727-.03,23.591,0,.712.445,1.721-.5,2.107h-.949l-4.659.059-5.43.059c-4.125.03-8.279-.089-12.4.059-1.9.059-2.2-.653-2.166-2.344.059-7.3.03-14.6.03-21.9-2.107,3.976-2.641,8.22-2.938,12.463a129.793,129.793,0,0,0,0,15.935,3.957,3.957,0,0,1-2.166,3.947,3.84,3.84,0,0,1-5.519-2.967c-.742-10.5-.772-20.95,2.463-31.129a19.166,19.166,0,0,1,5.4-8.813,10.762,10.762,0,0,1,7.419-2.76c.861,0,2.671.03,4.689.059l3.828-.03,8.962-.089v.03c3.591-.119,7,.3,9.941,2.938,3.413,3.116,6.024,6.973,9.288,10.238A1.251,1.251,0,0,1,525.815,356.8Z" transform="translate(0 20.456)"/><path class="b" d="M519.918,354.952v29.7q0,7.38-.021,14.757c-.015,4.119-2.371,6.882-5.884,6.938-3.573.053-6.039-2.789-6.042-7.042q-.013-17.5.009-35c0-.555,0-1.11,0-1.665-.009-.65.012-1.264-.944-1.294-1.059-.036-1.14.608-1.14,1.377,0,.635-.006,1.27-.006,1.905,0,11.665.033,23.33-.018,35-.024,4.994-4.332,8.08-8.46,6.131-2.686-1.267-3.608-3.585-3.6-6.436.027-9.763.012-19.523.012-29.283,0-4.522-.012-9.048.03-13.57.006-.484-.439-1.5.68-1.323.573.095.831.656.757,1.478-.2,2.187.312,2.356,2.3,1.689a6.309,6.309,0,0,1,4.846.742,9.161,9.161,0,0,0,9.033,0c1.469-.709,3.261-1.555,5.208-.46,1.32.745,2.14-.125,1.92-1.585C518.446,356.038,518.413,355.3,519.918,354.952Z" transform="translate(40.513 45.714)"/><path class="b" d="M524.972,355.354c-.252,1.276.629,2.255.745,3.427.493,4.982-2.777,7.828-5.917,10.775-2.46-.611-2.8.733-3.908,2.769-2.143,3.962-2.617,5.226.481,8.41-2.154,1.6-4.466,1.686-7.27.255-.036-.849.828-1.042,1.211-1.585a4.661,4.661,0,0,0,.294-5.552c-.718-1.163-2.409-1.766-1.691-3.733.237-.653-.867-1.006-1.629-.751-2.973.991-3.427-2.024-5.018-3.19-1.321-.967.045-1.777.46-2.594a5.193,5.193,0,0,0-.941-6.137c-.593-.6-1.4-1.006-1.582-2.062a7.422,7.422,0,0,0-.605,8.407,18.3,18.3,0,0,0,4.623,5.689c1.086.917,1.519,1.614.338,2.8a12.209,12.209,0,0,0-1.712,2.561c-1.5,2.588-1.516,2.629-3.766.51-4.8-4.525-8.638-9.531-8.223-16.662.329-5.629,6.187-13.365,11.434-15.06a2.228,2.228,0,0,1,2.356.534c5.416,4.407,10.7,4.43,16.1-.015a2.385,2.385,0,0,1,3.033-.217c8.858,5.145,15.093,15.1,7.247,26.131a38.89,38.89,0,0,1-6,6.413c-.81.724-1.252.941-1.867-.306-.9-1.831-2.982-3.552-2.908-5.249.065-1.5,2.466-2.843,3.694-4.368C527.334,362.352,527.646,358.714,524.972,355.354Z" transform="translate(34.731 23.163)"/><path class="b" d="M479.922,348.9c.718-2.16-1.128-3.3-2.4-4.6a3.011,3.011,0,0,1-.763-3.5c1.045-3.555,3.324-5.312,6.567-7.027,5.181-2.739,9.582-2.739,14.787-.021,3.365,1.757,5.585,3.68,6.65,7.261a2.585,2.585,0,0,1-.709,3.113,7.414,7.414,0,0,0-2.653,6.143c.045,5.76-5.208,10.152-11.143,9.962C484.34,360.039,479.833,355.184,479.922,348.9Zm21.354-3.991c-.846-1.816-.816-1.926-1.9-2.306a25.007,25.007,0,0,0-17.4.059c-.846.311-1.935.78-1.5,2.05A25.341,25.341,0,0,1,501.276,344.914Zm-7.181-8.119c-2.193-2.95-4.555-3.107-6.686-.1C489.6,339.085,491.94,338.634,494.094,336.795Z" transform="translate(6.566 0)"/><path class="b" d="M505.4,358.911a10.853,10.853,0,0,1-.157-21.7,11.043,11.043,0,0,1,11.03,11.042A10.914,10.914,0,0,1,505.4,358.911Z" transform="translate(42.039 10.802)"/><path class="b" d="M502.778,360.837a4.052,4.052,0,0,1-3.858-3.8,3.587,3.587,0,0,1,2.065-3.493c1.49-.647,1.629,1.068,2.27,1.792a11.054,11.054,0,0,1,1.46,2.43C505.73,359.777,505.024,360.872,502.778,360.837Z" transform="translate(50.647 42.654)"/><path class="b" d="M497.975,360.848c-2.5-.062-3.157-1.1-2.184-3.015.567-1.119,1.315-2.145,1.935-3.243.991-1.751,2-1.412,3.018-.056a3.775,3.775,0,0,1,.359,4.22A3.97,3.97,0,0,1,497.975,360.848Z" transform="translate(43.645 42.649)"/><path class="b" d="M495.283,354.838a6.57,6.57,0,0,1-1.46-5.451c.062-.451.178-.994.671-1.125.513-.136.831.338,1.148.674C497.165,350.535,497.046,352.832,495.283,354.838Z" transform="translate(40.455 32.504)"/><path class="a" d="M489.3,358.429" transform="translate(31.716 52.555)"/><path class="b" d="M503.03,356.936v21.692H503c0,6.825.03,13.65,0,20.475,0,4.154-2.315,6.706-6.054,6.647-3.591-.03-5.846-2.522-5.846-6.588-.03-13.176,0-26.351,0-39.527,0-.653-.03-1.276,0-1.9,0-.653-.148-1.068-.92-1.1-.772,0-1.246.208-1.246,1.039,0,1.424-.03,2.849-.03,4.3,0,12.374.03,24.749,0,37.153,0,3.887-2.107,6.41-5.341,6.617-3.917.237-6.617-2.255-6.647-6.35-.03-8.19,0-16.351,0-24.541,0-5.876.03-11.751-.03-17.627-.03-1.454.386-1.929,1.87-1.9,3.739.059,7.478.089,11.187.03.475-.03.979-.03,1.454-.059a2.717,2.717,0,0,1,.5.03h9.971C503.09,355.363,503.03,356.105,503.03,356.936Z" transform="translate(7.295 46.407)"/><rect class="a" width="6.538" height="1.765" transform="translate(487.727 374.617)"/><path class="c" d="M486.895,354.356l-1.952-2.491-3.159.2,1.766-2.627-1.163-2.944,3.044.868,2.44-2.015.115,3.163,2.671,1.7-2.973,1.087Z" transform="translate(16.932 26.809)"/><rect class="a" width="2.235" height="9.427" transform="translate(500.428 396.996)"/><rect class="a" width="2.235" height="9.427" transform="translate(503.642 396.996)"/><path class="a" d="M487.843,342.114l-1.007,8.215-4.89-5.457,1.314-2.7Z" transform="translate(17.251 20.455)"/><path class="a" d="M479.181,342.141l1,8.134,4.89-5.457-1.333-2.655Z" transform="translate(11.81 20.509)"/><path class="c" d="M504.969,358.448l-3.92-5.914s-2.1-.8-.733,1.727l4.2,7.935S507.5,364.249,504.969,358.448Z" transform="translate(52.482 40.717)"/><path class="c" d="M495.469,358.448l3.92-5.914s2.1-.8.733,1.727l-4.2,7.935S492.938,364.249,495.469,358.448Z" transform="translate(41.851 40.717)"/><path class="d" d="M495.079,355.453c-.033.306,8.861,6.994,18.5.119" transform="translate(43.09 46.7)"/></g></svg>