<svg xmlns="http://www.w3.org/2000/svg" width="204.197" height="157.601" viewBox="0 0 204.197 157.601"><defs><style>.a{fill:#fff;}.b,.e{fill:#e60c1b;}.b{font-size:8px;font-family:Montserrat-SemiBold, Montserrat;font-weight:600;}.c,.d,.f{fill:none;}.c{stroke:#fff;stroke-linecap:round;stroke-linejoin:round;stroke-width:0.567px;stroke-dasharray:2.835;}.d{stroke:#e5001b;stroke-width:0.283px;}.d,.f,.g{stroke-miterlimit:10;}.f{stroke:#e50019;}.f,.g{stroke-width:0.142px;}.g,.h{fill:#e60019;}.g{stroke:#e3051c;}.i{fill:#e50019;}</style></defs><g transform="translate(-145.159 -323.197)"><path class="a" d="M146.941,396.387l-1.783-1.849L220.15,323.2l38.828,38.177-1.813,1.819-37.045-36.424Z" transform="translate(0 0)"/><path class="a" d="M228.162,424.648c-.063-.212-.128-.415-.2-.62a2.853,2.853,0,0,1-.137-.707H155.268V340.127H152.69v85.75h75.83C228.436,425.457,228.281,425.06,228.162,424.648Z" transform="translate(14.939 33.582)"/><path class="a" d="M180.295,368.01c.018.042.009.1.024.14l.075.17a1.64,1.64,0,0,1,.125.331c.009.03-.006.063,0,.1a.837.837,0,0,1,.021.084c.015.075.021.146.03.221.03.078.054.158.087.239a7.511,7.511,0,0,1,.3.832c.036.143.045.3.072.445h16.622V368.01Z" transform="translate(69.698 88.893)"/><path class="a" d="M205,407.153H163.242V349.567h34.325v2.45H165.708V404.7H205Z" transform="translate(35.87 52.308)"/><g transform="translate(222.707 407.073)"><path class="a" d="M178.985,351.309a7.785,7.785,0,1,0,7.838,7.784A7.849,7.849,0,0,0,178.985,351.309Zm0,14.4a6.613,6.613,0,1,1,6.659-6.615A6.643,6.643,0,0,1,178.985,365.708Z" transform="translate(-171.15 -351.309)"/><ellipse class="a" cx="6.657" cy="6.613" rx="6.657" ry="6.613" transform="translate(1.179 1.172)"/></g><g transform="translate(202.812 398.052)"><path class="a" d="M207.163,396.114c0-.68,0-2.721-.075-5.365-.039-1.322-.116-2.8-.191-4.347a71.861,71.861,0,0,0-1.6-12.546v-.036c-.152-.492-.266-.946-.418-1.361h.152c1.674-.188,5.1-.832,6.621-3.741,1.978-3.855-.269-10.091-6.734-18.555a4.622,4.622,0,0,0-4.947-1.7,2.336,2.336,0,0,0-1.635,1.438c-.343.907-.039,2.077.952,3.551.457.644.952,1.4,1.522,2.154,2.357,3.363,5.935,8.465,4.944,10.2-.379.68-1.6.755-2.548.68a3.114,3.114,0,0,0-3.157,2.115c-.647,1.853-1.9,4.27-4.338,5.251-2.166.832-4.869.418-8.1-1.283a3.12,3.12,0,0,0-4,.943c-2.13,2.873-7.038,7.975-16.473,9.336a3.071,3.071,0,0,0-2.661,2.948c0,1.056.5,2.8,3.879,2.8,5.174,0,15.939-4.8,17.46-8.426.152-.3.23-.266.3-.227,1.638.489,4.947,7.405,4.452,11.069-1.748.907-11.069,6.048-11.791,10.959a4.181,4.181,0,0,0,1.444,3.741l.152.191,14.151-.039-2.473-1.095s-1.292-.606-1.253-1.513c0-.68.683-2.08,5.248-4a2.592,2.592,0,0,1,2.321.262c2.053,1.059,4.908,4.687,6.734,15.8v10.658a5.074,5.074,0,0,0,2.775,4.61,4.737,4.737,0,0,0,1.978.454,5.173,5.173,0,0,0,5.06-5.063C215.076,419.506,214.658,403.824,207.163,396.114Zm6.582,29.816a3.981,3.981,0,0,1-1.713,3.213,3.432,3.432,0,0,1-3.613.376,3.876,3.876,0,0,1-2.13-3.551V415.162c-.343-2.08-.761-3.819-1.143-5.442-.075-.415-.266-.833-.379-1.247-.078-.227-.113-.415-.191-.641a1.549,1.549,0,0,1-.113-.567c-1.787-5.633-3.882-7.975-5.591-8.8a4.1,4.1,0,0,0-2.017-.531,3.277,3.277,0,0,0-1.256.227c-4.031,1.74-5.973,3.4-5.973,5.1a2.487,2.487,0,0,0,.534,1.474h-9.282a2.888,2.888,0,0,1-.913-2.569c.683-4.723,11.3-10.2,11.412-10.279l.266-.113.039-.266c.8-4-2.852-11.979-5.212-12.7a1.36,1.36,0,0,0-1.713.907c-1.253,2.948-11.374,7.707-16.4,7.707-2.7,0-2.7-1.208-2.7-1.623a1.866,1.866,0,0,1,1.674-1.778c9.813-1.474,15.026-6.8,17.234-9.825a1.919,1.919,0,0,1,2.509-.564c3.539,1.85,6.582,2.3,9.055,1.322,2.852-1.134,4.3-3.894,5.021-5.97a1.963,1.963,0,0,1,1.978-1.325q2.793.17,3.652-1.247c1.253-2.229-1.408-6.346-5.021-11.487-.534-.755-1.065-1.474-1.486-2.115-.722-1.1-1.026-2-.835-2.533a1.285,1.285,0,0,1,.913-.68,3.38,3.38,0,0,1,3.652,1.286c7.647,10.013,7.8,14.927,6.582,17.308-1.6,3.1-6.2,3.136-6.507,3.136l-.874-.039.3.832c2.587,6.537,2.473,24.072,2.473,24.221v.266l.191.152c2.661,2.644,4.374,6.424,5.514,10.428.039.077.039.152.078.227v.039a1.17,1.17,0,0,1,.113.34v.075a.136.136,0,0,0,.039.078v.113a.861.861,0,0,1,.075.3.038.038,0,0,0,.039.039c.078.3.23.564.3.868a8.767,8.767,0,0,1,.191,1.474A72.205,72.205,0,0,1,213.745,425.93Z" transform="translate(-164.482 -348.286)"/><path class="a" d="M212.962,425.152a3.981,3.981,0,0,1-1.713,3.213,3.432,3.432,0,0,1-3.613.376,3.876,3.876,0,0,1-2.13-3.551V414.384c-.343-2.08-.761-3.819-1.143-5.442-.075-.415-.266-.833-.379-1.247-.078-.227-.113-.415-.191-.642a1.549,1.549,0,0,1-.113-.567c-1.787-5.633-3.882-7.975-5.591-8.8a4.1,4.1,0,0,0-2.017-.531,3.277,3.277,0,0,0-1.256.227c-4.031,1.739-5.973,3.4-5.973,5.1a2.487,2.487,0,0,0,.534,1.474h-9.282a2.888,2.888,0,0,1-.913-2.569c.683-4.723,11.3-10.2,11.412-10.279l.266-.113.039-.266c.8-4-2.852-11.979-5.212-12.7a1.36,1.36,0,0,0-1.713.907c-1.253,2.948-11.374,7.707-16.4,7.707-2.7,0-2.7-1.208-2.7-1.623a1.866,1.866,0,0,1,1.674-1.778c9.813-1.474,15.026-6.8,17.234-9.825a1.919,1.919,0,0,1,2.509-.564c3.539,1.85,6.582,2.3,9.055,1.322,2.852-1.134,4.3-3.894,5.021-5.97a1.963,1.963,0,0,1,1.978-1.325q2.793.17,3.652-1.247c1.253-2.229-1.408-6.346-5.021-11.487-.534-.755-1.065-1.474-1.486-2.115-.722-1.1-1.026-2-.835-2.533a1.285,1.285,0,0,1,.913-.68,3.38,3.38,0,0,1,3.652,1.286c7.647,10.013,7.8,14.927,6.582,17.308-1.6,3.1-6.2,3.136-6.507,3.136l-.874-.039.3.832c2.587,6.537,2.473,24.072,2.473,24.221v.266l.191.152c2.661,2.644,4.374,6.424,5.514,10.428.039.078.039.152.078.227v.039a1.17,1.17,0,0,1,.113.34v.075a.136.136,0,0,0,.039.078v.113a.861.861,0,0,1,.075.3.038.038,0,0,0,.039.039c.078.3.23.564.3.868a8.767,8.767,0,0,1,.191,1.474A72.206,72.206,0,0,1,212.962,425.152Z" transform="translate(-163.698 -347.508)"/></g><path class="a" d="M191.32,383.486c-4.7,0-10.944-9.014-11.221-9.416l-.06-.086-.012-.1-2.229-17.6.668.239c.2.071,19.677,7.193,17.269,21.079-.6,3.455-1.844,5.409-3.7,5.809A3.347,3.347,0,0,1,191.32,383.486Zm-10.443-9.816c1.948,2.808,7.552,9.646,10.971,8.894,1.477-.319,2.494-2.038,3.028-5.108,2.035-11.735-12.672-18.478-16.034-19.853Z" transform="translate(64.745 65.632)"/><text class="b" transform="matrix(0.803, -0.596, 0.596, 0.803, 251.635, 441.227)"><tspan x="0" y="0">$</tspan></text><line class="c" x2="53.285" transform="translate(268.87 375.322)"/><line class="c" x2="37.227" transform="translate(276.899 411.477)"/><line class="c" x2="17.476" transform="translate(287.204 447.271)"/><ellipse class="d" cx="8.111" cy="8.057" rx="8.111" ry="8.057" transform="translate(320.192 403.503)"/><path class="a" d="M154.837,399.709H152.9V340.127H215.2v1.926H154.837Z" transform="translate(15.353 33.582)"/><g transform="translate(177.812 382.126)"><path class="e" d="M156.154,354.5a.964.964,0,0,1,.331-.149,16.493,16.493,0,0,0,6.591-4.413,15.714,15.714,0,0,0,4.195-6.57,1.05,1.05,0,0,1,.155-.37c.06-.063.119-.069.173-.015.072.069.078.352.024.856a13.037,13.037,0,0,1-1.158,3.944,11.552,11.552,0,0,1-2.175,3.3,12.628,12.628,0,0,1-6.937,3.536c-.725.134-1.122.164-1.193.1A.131.131,0,0,1,156.154,354.5Z" transform="translate(-156.103 -342.948)"/></g><g transform="translate(180.8 382.768)"><path class="e" d="M157.169,360.247a1.115,1.115,0,0,1,.433-.215q4.377-1.5,8.614-6.454a23.063,23.063,0,0,0,5.359-9.783,1.67,1.67,0,0,1,.194-.558c.078-.092.155-.1.227-.018a2.643,2.643,0,0,1,.063,1.295,21.091,21.091,0,0,1-1.411,5.917,16.833,16.833,0,0,1-2.784,4.911,15.3,15.3,0,0,1-9.1,5.114c-.958.182-1.483.218-1.581.11A.216.216,0,0,1,157.169,360.247Z" transform="translate(-157.104 -343.163)"/></g><ellipse class="f" cx="3.664" cy="3.639" rx="3.664" ry="3.639" transform="translate(174.744 380.272)"/><path class="g" d="M221.837,335.311a10.849,10.849,0,0,0-10.831,10.831,11.634,11.634,0,0,0,1.88,6.683l8.951,16.082,9.458-17.514.119-.209a11.063,11.063,0,0,0,1.253-5.042A10.849,10.849,0,0,0,221.837,335.311Zm9.04,15.6-9.04,16.768L213.363,352.5a11.1,11.1,0,0,1-1.79-6.355,10.249,10.249,0,1,1,19.3,4.774Z" transform="translate(116.618 24.029)"/><path class="h" d="M231.694,345.765a10.289,10.289,0,0,1-1.193,4.774l-9.04,16.768-8.474-15.187a11.1,11.1,0,0,1-1.79-6.355,10.249,10.249,0,1,1,20.5,0Z" transform="translate(116.995 24.406)"/><rect class="h" width="0.212" height="0.584" transform="translate(347.503 374.949) rotate(-62.033)"/><circle class="a" cx="5.696" cy="5.696" r="5.696" transform="translate(332.751 364.582)"/><circle class="h" cx="7.84" cy="7.84" r="7.84" transform="translate(320.463 403.637)"/><ellipse class="a" cx="3.186" cy="3.165" rx="3.186" ry="3.165" transform="translate(325.117 408.396)"/><circle class="i" cx="3.458" cy="3.458" r="3.458" transform="translate(174.949 380.453)"/><circle class="a" cx="1.449" cy="1.449" r="1.449" transform="translate(176.959 382.462)"/><path class="e" d="M222.936,364.335l2.721-3.671,11.316.3L239,364.81l5.1.6-.217,18.658-25.481.3-1.6-5.96.648-12.87,2.505-1.08Z" transform="translate(97.117 73.322)"/><path class="a" d="M225.8,363.051a6.4,6.4,0,1,1-6.466,6.3A6.444,6.444,0,0,1,225.8,363.051Zm4.827,6.46a4.834,4.834,0,1,0-4.956,4.747A4.779,4.779,0,0,0,230.632,369.511Z" transform="translate(102.148 78.056)"/><circle class="e" cx="4.833" cy="4.833" r="4.833" transform="translate(323.112 442.672)"/><path class="e" d="M231.28,386.009c-3.649,0-7.3.009-10.953,0a3.572,3.572,0,0,1-3.753-3.733q-.013-7.317.006-14.638a3.568,3.568,0,0,1,3.04-3.467,16.215,16.215,0,0,1,2.718-.057.861.861,0,0,0,.958-.579c.322-.743.728-1.45,1.11-2.169a1.592,1.592,0,0,1,1.552-.907c3.607.021,7.214.015,10.822,0a1.418,1.418,0,0,1,1.337.806c.424.767.829,1.548,1.2,2.342a.761.761,0,0,0,.806.5,18.035,18.035,0,0,1,2.784.054,3.5,3.5,0,0,1,3.085,3.419q.045,7.55-.006,15.1A3.5,3.5,0,0,1,242.433,386c-3.718.018-7.435,0-11.153,0Zm.012-1.79v.006q5.411,0,10.825,0a1.868,1.868,0,0,0,2.086-1.9q.031-7.259,0-14.516a1.828,1.828,0,0,0-1.951-1.886c-1.017-.009-2.038-.018-3.055.006a.716.716,0,0,1-.77-.453c-.373-.773-.806-1.513-1.193-2.277a1.655,1.655,0,0,0-1.659-.958q-4.283.036-8.569,0a1.667,1.667,0,0,0-1.659.961c-.385.74-.8,1.468-1.164,2.217a.742.742,0,0,1-.8.507c-.9-.036-1.814-.006-2.721-.012-1.572-.009-2.291.683-2.294,2.226v13.853a1.946,1.946,0,0,0,2.232,2.226C224.164,384.225,227.727,384.219,231.292,384.219Z" transform="translate(96.654 72.91)"/></g></svg>