<svg xmlns="http://www.w3.org/2000/svg" width="87.781" height="144.214" viewBox="0 0 87.781 144.214"><defs><style>.a{fill:#2879bf;}.b{fill:#fff;}.c,.d{fill:#e60019;}.d{stroke:#e3051c;stroke-width:0.142px;}.d,.e{stroke-miterlimit:10;}.e{fill:none;stroke:#e5001b;stroke-width:0.283px;}</style></defs><g transform="translate(-272.588 -323.554)"><g transform="translate(287.477 323.554)"><path class="a" d="M331.923,379.032q0,23.755,0,47.515c0,4.732-2.87,7.625-7.574,7.625q-19.492.009-38.982,0c-4.644,0-7.542-2.867-7.545-7.511q-.013-47.731.006-95.468c0-4.772,2.836-7.619,7.574-7.628q19.714-.021,39.423.006a6.976,6.976,0,0,1,7.107,7.212q0,24.122,0,48.249Zm-1.125,0h.006V331.076c0-3.918-2.474-6.389-6.46-6.392q-19.266-.013-38.537,0a10.7,10.7,0,0,0-2.05.128c-3.124.621-4.809,2.981-4.809,6.748q-.008,47.509,0,95.024c0,4.037,2.457,6.466,6.532,6.466q19.42,0,38.834-.005c4.037,0,6.486-2.457,6.486-6.5Z" transform="translate(-277.817 -323.554)"/><g transform="translate(2.915 13.52)"><path class="a" d="M327.09,370.246c0,13.288-.023,26.576.031,39.864.006,1.429-.418,1.791-1.814,1.788q-22.285-.068-44.571.008c-1.458.006-1.9-.33-1.9-1.865q.077-40.009.008-80.022c0-1.372.39-1.723,1.734-1.717,14.709.046,29.421.02,44.129.031,2.543,0,2.38-.407,2.383,2.34q.008,19.783,0,39.571Zm-1.119-.159q0-19.565.017-39.135c0-1.045-.117-1.535-1.387-1.529q-21.555.077-43.107.009c-1.253,0-1.52.362-1.518,1.557q.047,39.206-.009,78.419c0,1.13.336,1.364,1.406,1.361q21.624-.051,43.253,0c1.13,0,1.37-.325,1.367-1.4Q325.939,389.728,325.971,370.086Z" transform="translate(-278.841 -328.303)"/></g><g transform="translate(22.375 98.291)"><path class="a" d="M295.035,362.686a4.68,4.68,0,0,1-9.359.182,4.68,4.68,0,1,1,9.359-.182Z" transform="translate(-285.676 -358.076)"/><path class="a" d="M293.165,362.061a3.545,3.545,0,1,1-7.09-.114,3.593,3.593,0,0,1,3.616-3.474A3.549,3.549,0,0,1,293.165,362.061Z" transform="translate(-284.941 -357.342)"/></g><g transform="translate(21.862 7.068)"><path class="a" d="M290.762,327.165c-1.412,0-2.827.008-4.242,0-.421,0-.988.083-1.022-.53-.037-.632.521-.587.954-.587q4.241-.013,8.485-.006c.43,0,.991-.034.951.6-.04.609-.6.518-1.028.521-1.367.006-2.73,0-4.1,0Z" transform="translate(-285.495 -326.037)"/></g><g transform="translate(17.479 6.504)"><path class="a" d="M286.2,326.907a1.065,1.065,0,0,1-1.039,1.182,1.037,1.037,0,0,1-1.2-1.005,1.064,1.064,0,0,1,1.116-1.244C285.778,325.817,286.128,326.238,286.2,326.907Z" transform="translate(-283.956 -325.839)"/></g></g><g transform="translate(303.702 362.794)"><g transform="translate(2.915)"><rect class="b" width="19.12" height="2.443"/></g><g transform="translate(0 4.827)"><rect class="b" width="24.304" height="2.443"/></g><g transform="translate(2.915 9.656)"><rect class="b" width="17.824" height="2.443"/></g><g transform="translate(2.915 14.483)"><rect class="b" width="17.824" height="2.443"/></g><g transform="translate(0 19.312)"><rect class="b" width="24.304" height="2.443"/></g><g transform="translate(2.915 24.139)"><rect class="b" width="17.824" height="2.443"/></g></g><g transform="translate(331.148 337.058)"><path class="a" d="M322.376,328.3v22.974h-20.44c-4.735,0-8.781,7.155-8.781,7.155V328.3Z" transform="translate(-293.155 -328.297)"/><g transform="translate(8.411 4.806)"><path class="b" d="M302.108,329.985h.387a.127.127,0,0,0,.037.031.7.7,0,0,1,.55.658c.006.088.06.085.12.1a3.507,3.507,0,0,1,2.79,2.2,6.085,6.085,0,0,1,.39,2.363,13.764,13.764,0,0,0,.131,1.936,3.817,3.817,0,0,0,1.446,2.619c.182.14.353.293.55.456h-12.4l.048-.051c.108-.088.213-.179.325-.268a3.769,3.769,0,0,0,1.409-1.885,8.332,8.332,0,0,0,.3-1.734c.057-.712,0-1.426.094-2.135a4.611,4.611,0,0,1,.686-1.967,3.547,3.547,0,0,1,2.437-1.532c.094-.017.117-.048.128-.14a.71.71,0,0,1,.447-.589C302.023,330.028,302.08,330.034,302.108,329.985Z" transform="translate(-296.109 -329.985)"/><g transform="translate(4.528 11.056)"><path class="b" d="M299.356,335.263a1.7,1.7,0,0,1-1.626-1.2c-.054-.194-.054-.194.145-.194q1.512,0,3.027,0c.117,0,.157.011.122.148A1.7,1.7,0,0,1,299.356,335.263Z" transform="translate(-297.699 -333.868)"/></g></g></g><g transform="translate(307.576 333.826)"><rect class="c" width="0.202" height="0.557" transform="translate(0 0.178) rotate(-62.033)"/></g><path class="b" d="M331.923,379.032q0,23.755,0,47.515c0,4.732-2.87,7.625-7.574,7.625q-19.492.009-38.982,0c-4.644,0-7.542-2.867-7.545-7.511q-.013-47.731.006-95.468c0-4.772,2.836-7.619,7.574-7.628q19.714-.021,39.423.006a6.976,6.976,0,0,1,7.107,7.212q0,24.122,0,48.249Zm-1.125,0h.006V331.076c0-3.918-2.474-6.389-6.46-6.392q-19.266-.013-38.537,0a10.7,10.7,0,0,0-2.05.128c-3.124.621-4.809,2.981-4.809,6.748q-.008,47.509,0,95.024c0,4.037,2.457,6.466,6.532,6.466q19.42,0,38.834-.005c4.037,0,6.486-2.457,6.486-6.5Z" transform="translate(9.66 0)"/><path class="b" d="M327.09,370.246c0,13.288-.023,26.576.031,39.864.006,1.429-.418,1.791-1.814,1.788q-22.285-.068-44.571.008c-1.458.006-1.9-.33-1.9-1.865q.077-40.009.008-80.022c0-1.372.39-1.723,1.734-1.717,14.709.046,29.421.02,44.129.031,2.543,0,2.38-.407,2.383,2.34q.008,19.783,0,39.571Zm-1.119-.159q0-19.565.017-39.135c0-1.045-.117-1.535-1.387-1.529q-21.555.077-43.107.009c-1.253,0-1.52.362-1.518,1.557q.047,39.206-.009,78.419c0,1.13.336,1.364,1.406,1.361q21.624-.051,43.253,0c1.13,0,1.37-.325,1.367-1.4Q325.939,389.728,325.971,370.086Z" transform="translate(11.551 8.772)"/><path class="b" d="M295.035,362.686a4.68,4.68,0,0,1-9.359.182,4.68,4.68,0,1,1,9.359-.182Z" transform="translate(24.177 63.77)"/><path class="b" d="M293.165,362.061a3.545,3.545,0,1,1-7.09-.114,3.593,3.593,0,0,1,3.616-3.474A3.549,3.549,0,0,1,293.165,362.061Z" transform="translate(24.911 64.503)"/><path class="b" d="M290.762,327.165c-1.412,0-2.827.008-4.242,0-.421,0-.988.083-1.022-.53-.037-.632.521-.587.954-.587q4.241-.013,8.485-.006c.43,0,.991-.034.951.6-.04.609-.6.518-1.028.521-1.367.006-2.73,0-4.1,0Z" transform="translate(23.844 4.586)"/><path class="b" d="M286.2,326.907a1.065,1.065,0,0,1-1.039,1.182,1.037,1.037,0,0,1-1.2-1.005,1.064,1.064,0,0,1,1.116-1.244C285.778,325.817,286.128,326.238,286.2,326.907Z" transform="translate(21 4.22)"/><rect class="b" width="19.12" height="2.443" transform="translate(306.617 362.794)"/><rect class="b" width="24.304" height="2.443" transform="translate(303.702 367.621)"/><rect class="b" width="17.824" height="2.443" transform="translate(306.617 372.45)"/><rect class="b" width="17.824" height="2.443" transform="translate(306.617 377.277)"/><rect class="b" width="24.304" height="2.443" transform="translate(303.702 382.106)"/><rect class="b" width="17.824" height="2.443" transform="translate(306.617 386.933)"/><path class="c" d="M322.376,328.3v22.974h-20.44c-4.735,0-8.781,7.155-8.781,7.155V328.3Z" transform="translate(37.993 8.761)"/><g transform="translate(339.558 341.864)"><path class="b" d="M302.108,329.985h.387a.127.127,0,0,0,.037.031.7.7,0,0,1,.55.658c.006.088.06.085.12.1a3.507,3.507,0,0,1,2.79,2.2,6.085,6.085,0,0,1,.39,2.363,13.764,13.764,0,0,0,.131,1.936,3.817,3.817,0,0,0,1.446,2.619c.182.14.353.293.55.456h-12.4l.048-.051c.108-.088.213-.179.325-.268a3.769,3.769,0,0,0,1.409-1.885,8.332,8.332,0,0,0,.3-1.734c.057-.712,0-1.426.094-2.135a4.611,4.611,0,0,1,.686-1.967,3.547,3.547,0,0,1,2.437-1.532c.094-.017.117-.048.128-.14a.71.71,0,0,1,.447-.589C302.023,330.028,302.08,330.034,302.108,329.985Z" transform="translate(-296.109 -329.985)"/><g transform="translate(4.528 11.056)"><path class="b" d="M299.356,335.263a1.7,1.7,0,0,1-1.626-1.2c-.054-.194-.054-.194.145-.194q1.512,0,3.027,0c.117,0,.157.011.122.148A1.7,1.7,0,0,1,299.356,335.263Z" transform="translate(-297.699 -333.868)"/></g></g><path class="b" d="M297.11,439.239h37.265s.94-37.578,3.132-39.141,3.252-26.445-1.742-34.238-8.992-22.573-8.992-22.573-2.4-8.789-9.589-1.2c0,0-6.791,4.4,6.395,21.776l.646,34.776a7.985,7.985,0,0,1-8.024,8.135l-33.378-.159s14.185,13.584,14.384,21.975A89.392,89.392,0,0,1,297.11,439.239Z" transform="translate(18.907 28.53)"/><rect class="b" width="10.801" height="18.575" rx="1.897" transform="translate(277.283 399.276) rotate(-45)"/><rect class="b" width="10.801" height="21.831" rx="1.897" transform="translate(277.777 383.063) rotate(-45)"/><rect class="b" width="10.801" height="21.831" rx="1.897" transform="translate(277.777 366.48) rotate(-45)"/><path class="b" d="M286.053,334.116l.006,12.237-10.387-5.216a5.4,5.4,0,0,1-2.56-7.2h0a5.4,5.4,0,0,1,7.2-2.557Z" transform="translate(0 13.491)"/><path class="d" d="M286.758,325.234a8.737,8.737,0,0,0-8.724,8.721,9.36,9.36,0,0,0,1.515,5.384l7.209,12.952,7.616-14.105.1-.168a8.907,8.907,0,0,0,1.008-4.063A8.734,8.734,0,0,0,286.758,325.234Zm7.28,12.568-7.28,13.5-6.825-12.232a8.932,8.932,0,0,1-1.441-5.119,8.254,8.254,0,1,1,15.546,3.847Z" transform="translate(10.06 3.103)"/><path class="c" d="M294.7,333.659a8.308,8.308,0,0,1-.962,3.847l-7.28,13.5-6.825-12.232a8.933,8.933,0,0,1-1.441-5.119,8.254,8.254,0,1,1,16.508,0Z" transform="translate(10.358 3.398)"/><rect class="c" width="0.17" height="0.471" transform="translate(304.104 340.907) rotate(-62.033)"/><circle class="b" cx="4.588" cy="4.588" r="4.588" transform="translate(292.223 332.557)"/><ellipse class="e" cx="7.74" cy="7.689" rx="7.74" ry="7.689" transform="translate(317.997 399.115)"/><circle class="c" cx="7.481" cy="7.481" r="7.481" transform="translate(318.256 399.242)"/><ellipse class="b" cx="3.04" cy="3.02" rx="3.04" ry="3.02" transform="translate(322.697 403.784)"/></g></svg>