<svg xmlns="http://www.w3.org/2000/svg" width="85.68" height="91.554" viewBox="0 0 85.68 91.554"><defs><style>.a{fill:#0064b0;}.b{fill:#e60c1b;}.c{fill:#fff;font-size:1px;font-family:OpenSans-SemiBold, Open Sans;font-weight:600;}</style></defs><g transform="translate(0 -0.001)"><path class="a" d="M224.413,146.185a4.795,4.795,0,1,0,4.795,4.792A4.8,4.8,0,0,0,224.413,146.185Zm-68.954,0a4.795,4.795,0,1,0,4.8,4.792A4.8,4.8,0,0,0,155.459,146.185Zm54.685-8.724a7.133,7.133,0,1,0,7.144,7.141A7.137,7.137,0,0,0,210.144,137.461Zm22.148,43.4h-8.133V165.9a13.994,13.994,0,0,0-1.968-7.041,7.771,7.771,0,0,1,10.1,7.529Zm-62.568-43.4a7.133,7.133,0,1,0,7.133,7.141A7.146,7.146,0,0,0,169.723,137.461ZM155.459,158.5a7.815,7.815,0,0,1,2.212.357A13.841,13.841,0,0,0,155.7,165.9v14.968h-8.13v-14.48A7.9,7.9,0,0,1,155.459,158.5Zm34.467-35.3a10.556,10.556,0,1,0,10.556,10.551A10.567,10.567,0,0,0,189.926,123.194Zm31.619,63.241H209.083V163.661A18.829,18.829,0,0,0,206.919,155,11.254,11.254,0,0,1,221.545,165.9Zm-50.781-22.775v22.775H158.317V165.9a11.42,11.42,0,0,1,11.412-11.409,11.2,11.2,0,0,1,3.2.516A18.925,18.925,0,0,0,170.764,163.661Zm2.613,29.366h33.094V163.661a16.547,16.547,0,1,0-33.094,0Z" transform="translate(-146.74 -101.472)"/><g transform="translate(0 0.001)"><g transform="translate(34.526)"><path class="a" d="M166.672,121.409h-3.22a.426.426,0,0,0-.409.558,2.13,2.13,0,0,0,4.037,0A.426.426,0,0,0,166.672,121.409Z" transform="translate(-157.017 -104.275)"/><path class="a" d="M174.577,127.6v-3.567h-.008a4.532,4.532,0,0,1-3.754-7.072,5.867,5.867,0,0,0-.73-.229v-.622a1.368,1.368,0,1,0-2.737,0v.617a5.894,5.894,0,0,0-4.515,5.71v5.142h-.01l-1.979,1.85a.885.885,0,0,0,.822,1.367h14.308a.881.881,0,0,0,.789-1.408Z" transform="translate(-160.685 -114.741)"/><ellipse class="b" cx="4.016" cy="4.016" rx="4.016" ry="4.016" transform="translate(9.869 0.743)"/><text class="c" transform="translate(12.364 2.418)"><tspan x="0" y="0">1</tspan></text></g><g transform="translate(11.915 22.099)"><path class="a" d="M155.87,127.778h-2.143a.283.283,0,0,0-.272.37,1.418,1.418,0,0,0,2.688,0A.283.283,0,0,0,155.87,127.778Z" transform="translate(-149.445 -116.377)"/><path class="a" d="M161.13,131.9v-2.372h-.005a3.017,3.017,0,0,1-2.5-4.705,3.822,3.822,0,0,0-.486-.154v-.414a.911.911,0,0,0-1.822,0v.411a3.922,3.922,0,0,0-3,3.8v3.42h-.005l-1.318,1.231a.589.589,0,0,0,.547.91h9.521a.587.587,0,0,0,.524-.938Z" transform="translate(-151.885 -123.341)"/><ellipse class="b" cx="2.672" cy="2.672" rx="2.672" ry="2.672" transform="translate(6.568 0.494)"/><text class="c" transform="translate(8.228 2.791)"><tspan x="0" y="0">1</tspan></text></g><g transform="translate(62.082 22.066)"><path class="a" d="M175.391,127.764H173.25a.286.286,0,0,0-.272.373,1.416,1.416,0,0,0,2.685,0A.286.286,0,0,0,175.391,127.764Z" transform="translate(-168.968 -116.365)"/><path class="a" d="M180.653,131.882v-2.372h-.005a3.017,3.017,0,0,1-2.5-4.705,3.908,3.908,0,0,0-.483-.154v-.414a.911.911,0,0,0-1.822,0v.411a3.922,3.922,0,0,0-3,3.8v3.42h-.008l-1.316,1.231a.589.589,0,0,0,.547.91h9.518a.587.587,0,0,0,.527-.938Z" transform="translate(-171.408 -123.328)"/><ellipse class="b" cx="2.672" cy="2.672" rx="2.672" ry="2.672" transform="translate(6.566 0.494)"/><text class="c" transform="translate(8.228 2.792)"><tspan x="0" y="0">1</tspan></text></g><g transform="translate(78.628 35.682)"><path class="a" d="M180.2,131.254h-1.267a.167.167,0,0,0-.162.218.838.838,0,0,0,1.591,0A.167.167,0,0,0,180.2,131.254Z" transform="translate(-176.403 -124.504)"/><path class="a" d="M183.32,133.692v-1.406l0,0a1.788,1.788,0,0,1-1.48-2.788,2.155,2.155,0,0,0-.285-.09v-.244a.54.54,0,1,0-1.079,0v.242a2.322,2.322,0,0,0-1.778,2.251v2.025h-.005l-.779.73a.347.347,0,0,0,.324.537h5.635a.346.346,0,0,0,.311-.555Z" transform="translate(-177.847 -128.627)"/><ellipse class="b" cx="1.582" cy="1.582" rx="1.582" ry="1.582" transform="translate(3.888 0.293)"/><text class="c" transform="translate(4.872 1.012)"><tspan x="0" y="0">1</tspan></text></g><g transform="translate(0 35.682)"><path class="a" d="M149.683,131.336h-1.311a.173.173,0,0,0-.164.226.864.864,0,0,0,1.639,0A.173.173,0,0,0,149.683,131.336Z" transform="translate(-145.758 -124.375)"/><path class="a" d="M152.895,133.851V132.4h-.005a1.841,1.841,0,0,1-1.524-2.873,2.362,2.362,0,0,0-.3-.092v-.254a.555.555,0,0,0-1.11,0v.252a2.394,2.394,0,0,0-1.835,2.32v2.089h-.005l-.8.75a.359.359,0,0,0,.334.555h5.815a.356.356,0,0,0,.319-.57Z" transform="translate(-147.249 -128.627)"/><ellipse class="b" cx="1.632" cy="1.632" rx="1.632" ry="1.632" transform="translate(4.199 0.218)"/><text class="c" transform="translate(5.12 1.381)"><tspan x="0" y="0">1</tspan></text></g></g></g></svg>