<svg xmlns="http://www.w3.org/2000/svg" width="64.224" height="81.06" viewBox="0 0 64.224 81.06"><defs><style>.a{fill:#0056a4;}.b{fill:#0064b0;}</style></defs><g transform="translate(0)"><path class="a" d="M253.414,143.575H230.686v18.486h31.687V143.575h-5.3m-.14.048.308-.757a10.878,10.878,0,0,0-20.133-8.245l-1.929,4.708,3.135,1.285,1.927-4.708a7.492,7.492,0,0,1,13.866,5.679l-.836,2.039Zm-8.222,13.585h-4.364l1.16-4.534a2.437,2.437,0,1,1,2.044,0Z" transform="translate(-214.83 -106.735)"/><g transform="translate(0 0)"><path class="b" d="M288.626,157.028V136.446l-.79.033c-15.747.619-30.978-16.72-31.139-16.9l-.117.107-.13-.107c-.148.181-15.369,17.531-31.136,16.9l-.782-.033v20.495c-.02.181-1.7,18.27,13.137,29.235,14.452,10.674,18.815,14.429,18.859,14.462l.054-.054.041.054c.043-.033,4.407-3.787,18.859-14.462C290.326,175.211,288.637,157.122,288.626,157.028Zm-14.044,27.927c-10.878,8.034-16.068,12.173-18.015,13.756-1.935-1.583-7.124-5.722-18-13.756-14.131-10.43-12.548-27.683-12.525-27.927V138.019h.127c8.335,0,16.282-4.578,21.565-8.505a71.692,71.692,0,0,0,8.847-7.817,71.212,71.212,0,0,0,8.834,7.817c5.284,3.928,13.244,8.505,21.565,8.505h.127V157.1C287.13,157.272,288.733,174.5,274.582,184.955Z" transform="translate(-224.465 -119.578)"/></g></g></svg>