<svg xmlns="http://www.w3.org/2000/svg" width="43.836" height="39.808" viewBox="0 0 43.836 39.808"><defs><style>.a{fill:#2578be;}</style></defs><g transform="translate(-248.302 -376.729)"><g transform="translate(248.302 376.729)"><path class="a" d="M270.221,376.73h16.143a5.517,5.517,0,0,1,5.768,5.719q.014,10.444,0,20.887a5.518,5.518,0,0,1-5.742,5.7q-5.518,0-11.036-.007c-.367,0-.512.079-.487.474a14.57,14.57,0,0,1,0,1.686,2.355,2.355,0,0,0,.891,2,8.148,8.148,0,0,0,3.4,1.684c.612.155.912.561.763,1.072a.7.7,0,0,1-.681.569c-.212.01-.425,0-.638,0-5.746,0-11.492-.012-17.237.014a.832.832,0,0,1-.852-1.045.876.876,0,0,1,.723-.611,8.4,8.4,0,0,0,2.9-1.27,2.741,2.741,0,0,0,1.432-2.656c-.042-.436-.008-.881-.009-1.321,0-.6,0-.6-.578-.6-3.709,0-7.419.009-11.127,0a5.527,5.527,0,0,1-5.552-5.616q0-10.534,0-21.068a5.508,5.508,0,0,1,5.635-5.617Q262.08,376.723,270.221,376.73Zm0,28.192h16.051c1.191,0,1.738-.538,1.738-1.716V382.551a1.491,1.491,0,0,0-1.7-1.7h-32.1c-1.279,0-1.783.515-1.783,1.8q0,10.237,0,20.474c0,1.278.513,1.8,1.794,1.8Z" transform="translate(-248.302 -376.729)"/><path class="a" d="M273.134,388.092a5.814,5.814,0,0,1-1.111,7.572,5.61,5.61,0,0,1-6.816.274,5.546,5.546,0,0,1-2.325-3.625,6.153,6.153,0,0,1,.8-4.183c-.112-.125-.2-.063-.281-.04a17.129,17.129,0,0,0-5.509,2.655c-.3.216-.306.345-.044.6.885.879,1.821,1.7,2.753,2.526a2.379,2.379,0,0,1,.406.427.692.692,0,0,1,.016.851.632.632,0,0,1-.783.167,5.623,5.623,0,0,1-1.541-.861c-1.278-.929-2.556-1.854-3.829-2.789a1.187,1.187,0,0,1-.169-2.06,16.8,16.8,0,0,1,6.379-3.869c7.286-2.431,14.04-1.432,20.163,3.309a7,7,0,0,1,1.071.989,1.08,1.08,0,0,1-.158,1.738,31.576,31.576,0,0,1-5.611,3.459.623.623,0,0,1-.856-.138c-.275-.356-.034-.612.188-.832a26.991,26.991,0,0,1,2.293-1.871c.345-.274.687-.554,1.036-.821.175-.133.2-.225.008-.377A17.847,17.847,0,0,0,273.134,388.092Zm-2.3,3.367a2.394,2.394,0,1,0-2.441,2.367A2.4,2.4,0,0,0,270.831,391.46Z" transform="translate(-246.522 -374.388)"/></g></g></svg>