<svg xmlns="http://www.w3.org/2000/svg" width="50.373" height="43.362" viewBox="0 0 50.373 43.362"><defs><style>.a{fill:#2578be;}</style></defs><g transform="translate(-90.413 -377.242)"><g transform="translate(90.413 377.242)"><path class="a" d="M91.673,376.242c.065.06.142.129.215.2l9.4,9.4,27.445,27.426c.311.312.311.309-.011.633-.745.744-1.495,1.482-2.229,2.236-.168.173-.254.157-.417-.006q-3.375-3.389-6.76-6.768c-.2-.2-.282-.179-.446.028q-3.975,4.965-7.963,9.92c-.315.393-.311.393-.634-.01L93.822,398.826q-4.142-5.155-8.289-10.307c-.177-.22-.16-.314.061-.48A40.485,40.485,0,0,1,93,383.6c.342-.161.342-.158.08-.422q-2-2-3.993-4c-.15-.147-.177-.238-.014-.4.81-.8,1.606-1.609,2.408-2.413C91.527,376.319,91.566,376.249,91.673,376.242Z" transform="translate(-85.413 -376.242)"/><path class="a" d="M97.253,379.7q1.982-.452,4-.712a38.752,38.752,0,0,1,8.221-.182,40.921,40.921,0,0,1,11.185,2.547,41.571,41.571,0,0,1,10.4,5.694,1.31,1.31,0,0,0,.151.113c.235.121.2.243.052.433q-3.678,4.554-7.343,9.121c-1.371,1.705-2.746,3.408-4.109,5.118-.164.2-.25.226-.448.029Q108.416,390.924,97.462,380a1.531,1.531,0,0,0-.3-.184Z" transform="translate(-81.003 -375.333)"/></g></g></svg>