<svg xmlns="http://www.w3.org/2000/svg" width="45.389" height="45.313" viewBox="0 0 45.389 45.313"><defs><style>.a{fill:#2578be;}</style></defs><g transform="translate(-532.917 -371.291)"><g transform="translate(532.917 371.291)"><path class="a" d="M578.307,394.108c-.521,13.4-10.8,22.679-22.918,22.494a22.655,22.655,0,0,1,.315-45.309C569.007,371.447,578.092,381.88,578.307,394.108ZM555.56,414.156c11.336-.231,20.158-8.806,20.169-20.193a20.154,20.154,0,1,0-40.308-.03C535.409,405.27,544.173,413.9,555.56,414.156Z" transform="translate(-532.917 -371.291)"/><path class="a" d="M556.834,381.6a22.45,22.45,0,0,1,14.783,5.477c.6.5,1.674,1.026.795,2.119-.965,1.2-1.648,1.2-2.882.155a19.746,19.746,0,0,0-25.467-.455c-.331.26-.65.537-.986.788-.864.646-1.446.5-2.317-.505-.643-.745-.206-1.263.348-1.745A22.774,22.774,0,0,1,556.834,381.6Z" transform="translate(-534.017 -372.798)"/><path class="a" d="M557.42,388.644a17.075,17.075,0,0,1,10.972,4.139c.54.472,1.078.957.447,1.728-.823,1.006-1.586,1.154-2.445.493-5.923-4.568-12.208-4.554-18.247.043-.88.67-1.482.56-2.246-.351-.674-.8-.335-1.356.341-1.933A17.4,17.4,0,0,1,557.42,388.644Z" transform="translate(-534.761 -373.827)"/><path class="a" d="M557.933,396.163a10.7,10.7,0,0,1,6.5,2.068c.622.461,1.286.985.657,1.885a1.579,1.579,0,0,1-2.358.57c-3.238-2.248-6.418-2.078-9.565.164-.873.622-1.416.079-1.953-.5a1.108,1.108,0,0,1,.128-1.789A10.232,10.232,0,0,1,557.933,396.163Z" transform="translate(-535.534 -374.926)"/><path class="a" d="M562.483,408.036a3.733,3.733,0,0,1-3.7,3.862,3.8,3.8,0,0,1-3.922-3.667,3.866,3.866,0,0,1,3.783-3.943A3.793,3.793,0,0,1,562.483,408.036Zm-3.854,1.5a1.409,1.409,0,0,0,1.485-1.5,1.453,1.453,0,0,0-1.507-1.382,1.373,1.373,0,0,0-1.354,1.522A1.311,1.311,0,0,0,558.629,409.535Z" transform="translate(-536.124 -376.114)"/><path class="a" d="M570.608,407.521c0-.879-.029-1.759.008-2.636.035-.838-.22-1.328-1.159-1.253-.887.07-1.482-.176-1.449-1.252.032-1.059.7-1.109,1.486-1.1,1.68.009,3.362.015,5.042,0,.818-.008,1.334.267,1.331,1.171a1.066,1.066,0,0,1-1.328,1.174c-1.236-.127-1.477.488-1.437,1.564.064,1.755,0,3.514.019,5.271.007.842-.3,1.259-1.212,1.261-.878,0-1.279-.369-1.284-1.215-.006-.993,0-1.986,0-2.979Z" transform="translate(-538.046 -375.673)"/><path class="a" d="M545.732,406.556q0-1.949,0-3.9c0-.81.314-1.311,1.2-1.328a1.123,1.123,0,0,1,1.271,1.273c.016,2.675.012,5.351,0,8.027,0,.834-.5,1.089-1.278,1.089-.818,0-1.208-.324-1.2-1.148C545.741,409.232,545.732,407.894,545.732,406.556Z" transform="translate(-534.79 -375.681)"/></g></g></svg>