<svg xmlns="http://www.w3.org/2000/svg" xmlns:xlink="http://www.w3.org/1999/xlink" width="58.207" height="73.955" viewBox="0 0 58.207 73.955"><defs><style>.a,.f{fill:none;}.b{clip-path:url(#a);}.c{fill:#0056a4;}.d{fill:#0064b0;}.e{fill:#e60019;}.f{stroke:#0064b0;stroke-miterlimit:10;}</style><clipPath id="a"><path class="a" d="M303.85,254.605s-1.176-2.858-15.389-11.857a29.385,29.385,0,0,1-13.709-24.241v-22.2c15.156,0,29.1-15.659,29.1-15.659s13.947,15.659,29.1,15.659v22.2a29.384,29.384,0,0,1-13.711,24.241c-14.212,9-15.389,11.857-15.389,11.857" transform="translate(-274.749 -180.65)"/></clipPath></defs><g class="b"><path class="c" d="M291.708,216.4" transform="translate(-257.861 -145.046)"/><path class="d" d="M291.708,216.4" transform="translate(-257.861 -145.046)"/><g transform="translate(7.935 13.882)"><path class="d" d="M320.818,238.179a11.472,11.472,0,0,0-5.448-8.542,17.12,17.12,0,0,0-6.247-2.455c-1.277-.22-2.575-.319-3.852-.479-.16-.02-.359.06-.459-.16a.856.856,0,0,1,.7-1.237,11.2,11.2,0,0,0,8.662-5.069,19.286,19.286,0,0,0,3.193-9.919,25.306,25.306,0,0,0-3.552-15.228,15.118,15.118,0,0,0-9.44-7.1,23.446,23.446,0,0,0-5.528-.379,13.789,13.789,0,0,0-5.309,1,16.076,16.076,0,0,0-8.243,7.863,25.294,25.294,0,0,0-2.774,10.139,22.313,22.313,0,0,0,2.215,11.975c2.076,3.952,5.229,6.386,9.8,6.726.459.04.6.2.579.659,0,.479-.02.838-.639.778a4.645,4.645,0,0,0-.758.08,19.421,19.421,0,0,0-7.544,1.916c-3.213,1.577-5.608,3.852-6.606,7.364a32.056,32.056,0,0,0-.778,10.039c.02.479.319.459.659.459h20.477c6.786,0,13.551-.02,20.337,0,.659.02.9-.16.9-.838A43.782,43.782,0,0,0,320.818,238.179Zm-17.164-34.108a5,5,0,0,1-.559-1.4,29.608,29.608,0,0,0,2.674,3.413c.359.379.738.758,1.118,1.138.12.1.22.22.4.14.22-.1.12-.3.08-.459a10.146,10.146,0,0,1-.479-2.2c.419.319.778.619,1.158.9a1.274,1.274,0,0,0,.559.3c.938.1,1.118.719,1.177,1.537.359,5.149-.858,9.7-4.93,13.172a15.4,15.4,0,0,1-4.63,2.634.993.993,0,0,1-.718-.06c-6.127-2.355-9.52-7.424-9.44-14.11a20.521,20.521,0,0,1,.838-5.409.891.891,0,0,1,.379-.559,6.51,6.51,0,0,0,3.672-5.009c.339.539.579.958.838,1.337a13.531,13.531,0,0,0,7.424,5.129c.18.06.379.18.519-.02C303.854,204.371,303.734,204.211,303.654,204.072Zm-9.061,20.776c-4.451-.359-7.5-2.754-9.48-6.626a21.8,21.8,0,0,1-2.1-11.735,24.284,24.284,0,0,1,3.453-11.1,14.47,14.47,0,0,1,8.921-6.885,13.9,13.9,0,0,1,3.852-.4,35.1,35.1,0,0,1,3.832.12,13.9,13.9,0,0,1,9.46,5.848,22.967,22.967,0,0,1,4.071,10.1,23.8,23.8,0,0,1-.659,11.236,13.607,13.607,0,0,1-5.588,7.843,10.9,10.9,0,0,1-5.129,1.6c-.3.04-.419-.02-.419-.339.02-.958.02-1.936,0-2.894a.717.717,0,0,1,.319-.579c4.251-3.632,5.568-8.382,5.089-13.791a2.2,2.2,0,0,1-.04-.379c-.02-.679-.14-1.177-1.018-1.3a3.814,3.814,0,0,1-2.135-1.537c-.12-.14-.24-.419-.479-.319-.259.1-.2.359-.18.559.06.619.14,1.217.22,1.976a23.332,23.332,0,0,1-3.133-3.992c-.24-.359-.459-.719-.679-1.078-.08-.14-.18-.259-.359-.2s-.14.219-.16.379a4.073,4.073,0,0,0,.319,1.537c.12.339.279.659.439,1.038a3.776,3.776,0,0,1-1.317-.4,12.1,12.1,0,0,1-6.486-6.127c-.08-.18-.12-.419-.359-.4-.3.02-.259.3-.279.5a6.217,6.217,0,0,1-3.433,5.129,1.539,1.539,0,0,0-.739.978,18.07,18.07,0,0,0,.339,11.955,13.314,13.314,0,0,0,3.952,5.409.982.982,0,0,1,.419.858c-.04.858-.04,1.716,0,2.555C295.112,224.808,294.993,224.888,294.594,224.848Zm-3.393,2.734c1.257-.12,2.515-.279,3.752-.379.479-.04.659-.2.659-.718-.04-1.457,0-2.934,0-4.411,0-.06.02-.14.02-.3a20.644,20.644,0,0,0,3.652,1.916,1.726,1.726,0,0,0,1.337,0,18.99,18.99,0,0,0,3.692-1.976v4.191c0,1.158,0,1.177,1.138,1.317,1.078.14,2.155.24,3.233.379.24.02.619-.06.419.459-1.337,3.313-3.393,5.887-7.005,6.826a8.983,8.983,0,0,1-9.68-3.792,14.069,14.069,0,0,1-1.557-2.914C290.7,227.781,290.762,227.622,291.2,227.582Zm-2.2.559c1.078-.359,1.078-.359,1.517.639a10.935,10.935,0,0,0,5.828,6.207,9.338,9.338,0,0,0,10.418-2.2,12.528,12.528,0,0,0,2.774-4.391c.16-.479.319-.639.838-.439,1.038.4,1.078.379.7,1.417A11.791,11.791,0,0,1,302,237.4a7.225,7.225,0,0,1-1.916.18,11.909,11.909,0,0,1-11.436-8.762C288.526,228.38,288.646,228.26,289.005,228.141Zm30.915,17.982q-10.029-.03-20.018-.02-9.909,0-19.818.02c-.679,0-.858-.2-.858-.858a40.2,40.2,0,0,1,.419-7.584c.778-4.351,3.413-7.165,7.424-8.8.938-.4.918-.4,1.257.559a12.133,12.133,0,0,0,23.011.659,12.325,12.325,0,0,0,.379-1.217c.08-.319.18-.379.519-.259,4.79,1.776,7.644,5.069,8.223,10.238a59.065,59.065,0,0,1,.24,6.506C320.678,245.963,320.5,246.123,319.92,246.123Z" transform="translate(-278.725 -187.606)"/><path class="e" d="M306.151,209.285a11.791,11.791,0,0,1-9.081,8.023,7.225,7.225,0,0,1-1.916.18,11.909,11.909,0,0,1-11.436-8.761c-.12-.439,0-.559.359-.679,1.078-.359,1.078-.359,1.517.639a10.934,10.934,0,0,0,5.828,6.207,9.338,9.338,0,0,0,10.418-2.2,12.528,12.528,0,0,0,2.774-4.391c.16-.479.319-.639.838-.439C306.49,208.267,306.53,208.247,306.151,209.285Z" transform="translate(-273.797 -167.513)"/><path class="d" d="M313.846,215.162a13.607,13.607,0,0,1-5.588,7.843,10.9,10.9,0,0,1-5.129,1.6c-.3.04-.419-.02-.419-.339.02-.958.02-1.936,0-2.894a.717.717,0,0,1,.319-.579c4.251-3.632,5.568-8.382,5.089-13.791a2.207,2.207,0,0,1-.04-.379c-.02-.679-.14-1.178-1.018-1.3a3.814,3.814,0,0,1-2.135-1.537c-.12-.14-.24-.419-.479-.319-.259.1-.2.359-.18.559.06.619.14,1.217.22,1.976a23.333,23.333,0,0,1-3.133-3.992c-.24-.359-.459-.718-.679-1.078-.08-.14-.18-.259-.359-.2s-.14.22-.16.379a4.075,4.075,0,0,0,.319,1.537c.12.339.279.659.439,1.038a3.775,3.775,0,0,1-1.317-.4,12.1,12.1,0,0,1-6.486-6.127c-.08-.18-.12-.419-.359-.4-.3.02-.259.3-.279.5a6.217,6.217,0,0,1-3.433,5.129,1.539,1.539,0,0,0-.738.978,18.071,18.071,0,0,0,.339,11.955,13.314,13.314,0,0,0,3.952,5.409.982.982,0,0,1,.419.858c-.04.858-.04,1.716,0,2.555,0,.419-.12.5-.519.459-4.451-.359-7.5-2.754-9.48-6.626a21.8,21.8,0,0,1-2.1-11.735,24.285,24.285,0,0,1,3.453-11.1,14.47,14.47,0,0,1,8.921-6.885,13.9,13.9,0,0,1,3.852-.4,35.118,35.118,0,0,1,3.832.12,13.9,13.9,0,0,1,9.46,5.848,22.967,22.967,0,0,1,4.071,10.1A23.8,23.8,0,0,1,313.846,215.162Z" transform="translate(-276.622 -187.36)"/></g><g transform="translate(0 0.259)"><path class="f" d="M303.85,254.735s-1.176-2.858-15.389-11.857a29.383,29.383,0,0,1-13.709-24.241v-22.2c15.156,0,29.1-15.659,29.1-15.659s13.947,15.659,29.1,15.659v22.2a29.382,29.382,0,0,1-13.711,24.241c-14.212,9-15.389,11.857-15.389,11.857" transform="translate(-274.749 -180.78)"/></g></g></svg>