<svg id="vibration-24px" xmlns="http://www.w3.org/2000/svg" width="12" height="12" viewBox="0 0 12 12">
  <path id="Path_615" data-name="Path 615" d="M0,0H12V12H0Z" fill="none"/>
  <path id="Path_616" data-name="Path 616" d="M0,8.866H1V5.933H0Zm1.5.978h1V4.955h-1ZM11,5.933V8.866h1V5.933ZM9.5,9.844h1V4.955h-1ZM8.25,3H3.75A.741.741,0,0,0,3,3.733v7.332a.741.741,0,0,0,.75.733h4.5A.741.741,0,0,0,9,11.066V3.733A.741.741,0,0,0,8.25,3ZM8,10.821H4V3.978H8Z" transform="translate(0 -1.399)" fill="#044683"/>
</svg>
