<svg id="contactless-24px" xmlns="http://www.w3.org/2000/svg" width="12" height="12" viewBox="0 0 12 12">
  <g id="Group_741" data-name="Group 741">
    <rect id="Rectangle_1572" data-name="Rectangle 1572" width="12" height="12" fill="none"/>
  </g>
  <g id="Group_742" data-name="Group 742" transform="translate(1 1)">
    <path id="Path_603" data-name="Path 603" d="M7,2a5,5,0,1,0,5,5A5,5,0,0,0,7,2ZM5.23,8.225l-.68-.31a2.138,2.138,0,0,0,.2-.93,2.21,2.21,0,0,0-.2-.9l.68-.315a2.924,2.924,0,0,1,0,2.455Zm1.535.78-.65-.37A3.158,3.158,0,0,0,6.5,7.06a3.793,3.793,0,0,0-.4-1.7l.67-.335a4.511,4.511,0,0,1,.48,2.035A3.9,3.9,0,0,1,6.765,9.005Zm1.57.66-.675-.33A5.367,5.367,0,0,0,8.25,6.99a5.216,5.216,0,0,0-.59-2.32l.67-.335A5.851,5.851,0,0,1,9,6.99,6.052,6.052,0,0,1,8.335,9.665Z" transform="translate(-2 -2)" fill="#044683"/>
  </g>
</svg>
