<svg id="directions_run-24px" xmlns="http://www.w3.org/2000/svg" width="12" height="12" viewBox="0 0 12 12">
  <path id="Path_613" data-name="Path 613" d="M0,0H12V12H0Z" fill="none"/>
  <path id="Path_614" data-name="Path 614" d="M8.19,3.48a1,1,0,1,0-1-1A1,1,0,0,0,8.19,3.48Zm-1.8,6.95.5-2.2,1.05,1v3h1V8.48l-1.05-1,.3-1.5a3.661,3.661,0,0,0,2.75,1.25v-1a2.46,2.46,0,0,1-2.15-1.2l-.5-.8a1.031,1.031,0,0,0-.85-.5c-.15,0-.25.05-.4.05l-2.6,1.1V7.23h1V5.53l.9-.35-.8,4.05-2.45-.5-.2,1Z" transform="translate(-1.445 -0.74)" fill="#044683"/>
</svg>
