<svg id="sentiment_satisfied_alt-24px" xmlns="http://www.w3.org/2000/svg" width="12" height="12" viewBox="0 0 12 12">
  <path id="Path_610" data-name="Path 610" d="M0,0H12V12H0Z" fill="none"/>
  <path id="Path_611" data-name="Path 611" d="M0,0H12V12H0Z" fill="none"/>
  <circle id="Ellipse_111" data-name="Ellipse 111" cx="1" cy="1" r="1" transform="translate(3 4)" fill="#044683"/>
  <circle id="Ellipse_112" data-name="Ellipse 112" cx="1" cy="1" r="1" transform="translate(7 4)" fill="#044683"/>
  <path id="Path_612" data-name="Path 612" d="M6.995,2a5,5,0,1,0,5,5A5,5,0,0,0,6.995,2ZM7,11a4,4,0,1,1,4-4A4,4,0,0,1,7,11ZM7,9.75A2.748,2.748,0,0,0,9.56,8H8.725a1.988,1.988,0,0,1-3.45,0H4.44A2.748,2.748,0,0,0,7,9.75Z" transform="translate(-1 -1)" fill="#044683"/>
</svg>
