<svg xmlns="http://www.w3.org/2000/svg" width="18.974" height="18.974" viewBox="0 0 18.974 18.974"><defs><style>.a{fill:#0276c9;}</style></defs><path class="a" d="M-141.979,150.517a8.753,8.753,0,0,1-1.579-.327,1.8,1.8,0,0,0-1.8.445l-.98.98a11.3,11.3,0,0,1-4.469-4.47l.98-.98a1.8,1.8,0,0,0,.445-1.8,8.778,8.778,0,0,1-.327-1.579,1.8,1.8,0,0,0-1.79-1.594h-2.419a1.8,1.8,0,0,0-1.33.587,1.813,1.813,0,0,0-.472,1.22c0,.055,0,.11.007.165a14.683,14.683,0,0,0,1.368,4.982,14.784,14.784,0,0,0,2.9,4.108,14.781,14.781,0,0,0,4.108,2.9,14.677,14.677,0,0,0,4.982,1.368,1.812,1.812,0,0,0,1.385-.464,1.805,1.805,0,0,0,.587-1.33v-2.419A1.8,1.8,0,0,0-141.979,150.517Z" transform="translate(192.838 -92.795) rotate(16)"/></svg>