<svg xmlns="http://www.w3.org/2000/svg" xmlns:xlink="http://www.w3.org/1999/xlink" width="219" height="191" viewBox="0 0 219 191">
  <defs>
    <filter id="Rectangle_1519" x="0" y="0" width="219" height="191" filterUnits="userSpaceOnUse">
      <feOffset dx="6" dy="6" input="SourceAlpha"/>
      <feGaussianBlur stdDeviation="3" result="blur"/>
      <feFlood flood-opacity="0.388"/>
      <feComposite operator="in" in2="blur"/>
      <feComposite in="SourceGraphic"/>
    </filter>
    <radialGradient id="radial-gradient" cx="0.5" cy="0.5" r="0.5" gradientUnits="objectBoundingBox">
      <stop offset="0" stop-color="#7bff03"/>
      <stop offset="1" stop-color="#4fa302"/>
    </radialGradient>
  </defs>
  <g id="Group_780" data-name="Group 780" transform="translate(-857 -436)">
    <g transform="matrix(1, 0, 0, 1, 857, 436)" filter="url(#Rectangle_1519)">
      <rect id="Rectangle_1519-2" data-name="Rectangle 1519" width="201" height="173" rx="18" transform="translate(3 3)"/>
    </g>
    <circle id="Ellipse_92" data-name="Ellipse 92" cx="9" cy="9" r="9" transform="translate(952 463)" fill="url(#radial-gradient)"/>
    <g id="sachaitlogo-01" transform="translate(920 531.72)">
      <g id="Group_405" data-name="Group 405" transform="translate(19.22 0)">
        <path id="Path_361" data-name="Path 361" d="M103.015,166.358h2.928V176.75h-2.928v-1.344a3.725,3.725,0,0,1-3.192,1.68,5.274,5.274,0,0,1-5.3-5.545,5.2,5.2,0,0,1,5.16-5.52,3.759,3.759,0,0,1,3.335,1.68Zm-5.471,5.185a2.881,2.881,0,1,0,2.881-2.928A2.846,2.846,0,0,0,97.544,171.543Z" transform="translate(-94.52 -159.254)" fill="#a5a6a7"/>
        <path id="Path_362" data-name="Path 362" d="M158.332,169.533a3.381,3.381,0,0,0-2.4-.913A2.792,2.792,0,0,0,153,171.548a2.9,2.9,0,0,0,3.024,2.953,3.389,3.389,0,0,0,2.3-.913v2.856a6,6,0,0,1-6.7-.863,5.338,5.338,0,0,1-1.655-3.984,5.358,5.358,0,0,1,5.545-5.567,6.2,6.2,0,0,1,2.807.624Z" transform="translate(-136.3 -159.261)" fill="#a5a6a7"/>
        <path id="Path_363" data-name="Path 363" d="M192.782,138.59h2.928v8.448a3.82,3.82,0,0,1,3.217-1.68A3.965,3.965,0,0,1,202,146.631a4.375,4.375,0,0,1,.816,2.928v6.529h-2.928v-5.663a2.981,2.981,0,0,0-.553-2.04,1.872,1.872,0,0,0-1.369-.528,2,2,0,0,0-1.8.913,3.576,3.576,0,0,0-.456,2.015v5.3H192.78v-17.5Z" transform="translate(-168.542 -138.59)" fill="#a5a6a7"/>
        <path id="Path_364" data-name="Path 364" d="M251.105,166.358h2.928V176.75h-2.928v-1.344a3.725,3.725,0,0,1-3.192,1.68,5.274,5.274,0,0,1-5.3-5.545,5.2,5.2,0,0,1,5.16-5.52,3.759,3.759,0,0,1,3.335,1.68Zm-5.474,5.185a2.881,2.881,0,1,0,2.881-2.928A2.846,2.846,0,0,0,245.632,171.543Z" transform="translate(-206.081 -159.254)" fill="#a5a6a7"/>
        <path id="Path_365" data-name="Path 365" d="M300.21,167.39v10.392h2.928V167.39Z" transform="translate(-249.473 -160.286)" fill="#e81e25"/>
        <circle id="Ellipse_59" data-name="Ellipse 59" cx="1.751" cy="1.751" r="1.751" transform="translate(50.449 0.962)" fill="#e81e25"/>
        <path id="Path_366" data-name="Path 366" d="M322.77,159.038v7.9h-2.928v-7.9H318.69v-2.5h1.152V152.99h2.928v3.552h2.015v2.5Z" transform="translate(-263.394 -149.438)" fill="#a5a6a7"/>
      </g>
      <g id="Group_406" data-name="Group 406" transform="translate(7.121 3.581)">
        <path id="Path_367" data-name="Path 367" d="M50.581,156.764h.168v.244l.1,0a.381.381,0,0,1,.358.3.343.343,0,0,1-.239.377.536.536,0,0,1-.178.03c-.442,0-.886,0-1.327,0H45.877a.362.362,0,0,1-.38-.481.414.414,0,0,1,.385-.227h.052v-.247H46.1c0-.015,0-.027,0-.039v-1.793a1.638,1.638,0,0,1,.365-1.038,1.891,1.891,0,0,1,.407-.385,2.231,2.231,0,0,1,1.312-.4,5.682,5.682,0,0,1,.58.015,2.1,2.1,0,0,1,1.3.6,1.654,1.654,0,0,1,.471.831,1.7,1.7,0,0,1,.042.37c0,.6,0,1.2,0,1.8A.079.079,0,0,0,50.581,156.764Zm-2.052-3.283a.009.009,0,0,1,0,.007l.012.007c.111.039.224.076.333.116a1.469,1.469,0,0,1,.377.22,1.634,1.634,0,0,1,.678,1.3c.007.528,0,1.053,0,1.581v.042h.449v-1.626a1.434,1.434,0,0,0-.091-.518,1.72,1.72,0,0,0-.992-.982,1.8,1.8,0,0,0-.538-.136C48.684,153.493,48.605,153.488,48.529,153.481Z" transform="translate(-45.47 -153.108)" fill="#fff"/>
      </g>
      <g id="Group_409" data-name="Group 409" transform="translate(0 1.275)">
        <g id="Group_407" data-name="Group 407">
          <path id="Path_368" data-name="Path 368" d="M22.3,154.885a2.505,2.505,0,0,0,.239-2.094s4.46,1.364,7.935,0l0,7.405h2.958l-.015-13.929a0,0,0,0,1,0,0l3.212,0V143.76H16.6s0,0,0,0l1.786,2.491v0h3.229l0,4.223H19.141c-.062,0-.121,0-.183.007s-.116.012-.173.022a1.653,1.653,0,0,0-.979,2.671l6.727,8.648h2.94Zm-4.142-2.415,0-.02,0,0Z" transform="translate(-16.6 -143.76)" fill="#a5a6a7"/>
        </g>
        <g id="Group_408" data-name="Group 408" transform="translate(7.716 2.286)">
          <path id="Path_369" data-name="Path 369" d="M52.991,156.684h.168v.244l.1,0a.381.381,0,0,1,.358.3.343.343,0,0,1-.239.377.536.536,0,0,1-.178.03c-.442,0-.886,0-1.327,0H48.287a.362.362,0,0,1-.38-.481.414.414,0,0,1,.385-.227h.052v-.247h.168c0-.015,0-.027,0-.039v-1.793a1.637,1.637,0,0,1,.365-1.038,1.89,1.89,0,0,1,.407-.385,2.231,2.231,0,0,1,1.312-.4,5.691,5.691,0,0,1,.58.015,2.1,2.1,0,0,1,1.3.6,1.655,1.655,0,0,1,.471.831,1.7,1.7,0,0,1,.042.37c0,.6,0,1.2,0,1.8A.09.09,0,0,0,52.991,156.684ZM50.939,153.4a.009.009,0,0,1,0,.007l.012.007c.111.04.224.076.333.116a1.468,1.468,0,0,1,.377.22,1.634,1.634,0,0,1,.678,1.3c.007.528,0,1.053,0,1.581v.042h.449v-1.626a1.434,1.434,0,0,0-.091-.518,1.72,1.72,0,0,0-.992-.982,1.8,1.8,0,0,0-.538-.136C51.092,153.413,51.015,153.408,50.939,153.4Z" transform="translate(-47.88 -153.028)"/>
        </g>
      </g>
      <rect id="Rectangle_621" data-name="Rectangle 621" width="2.928" height="10.392" transform="translate(69.955 7.104)" fill="#a5a6a7"/>
    </g>
  </g>
</svg>
