<svg xmlns="http://www.w3.org/2000/svg" width="38" height="38" viewBox="0 0 38 38"><defs><style>.a{fill:none;}</style></defs><g transform="translate(0 0)"><rect class="a" width="38" height="38" transform="translate(0 0)"/><path d="M16.25,21H13.084A14.252,14.252,0,0,1,27.334,6.75V9.917A11.076,11.076,0,0,0,16.25,21Zm11.084-4.75V13.084A7.92,7.92,0,0,0,19.417,21h3.167A4.744,4.744,0,0,1,27.334,16.25ZM9.917,5.167A3.167,3.167,0,1,0,6.75,8.333,3.156,3.156,0,0,0,9.917,5.167Zm7.046.792H13.8A4.734,4.734,0,0,1,9.125,9.917H4.375A2.372,2.372,0,0,0,2,12.292V16.25h9.5V12.672A7.869,7.869,0,0,0,16.963,5.958ZM28.917,25.751a3.167,3.167,0,1,0-3.167-3.167A3.156,3.156,0,0,0,28.917,25.751Zm2.375,1.583h-4.75a4.734,4.734,0,0,1-4.671-3.958H18.7a7.869,7.869,0,0,0,5.463,6.714v3.578h9.5V29.709A2.372,2.372,0,0,0,31.292,27.334Z" transform="translate(1.167 1.167)"/></g></svg>