<svg xmlns="http://www.w3.org/2000/svg" width="39.771" height="39.771" viewBox="0 0 39.771 39.771"><defs><style>.a{fill:none;}</style></defs><path class="a" d="M0,0H39.771V39.771H0Z"/><path d="M18.571,9.628V3H2V32.828H35.142V9.628ZM8.628,29.514H5.314V26.2H8.628Zm0-6.628H5.314V19.571H8.628Zm0-6.628H5.314V12.943H8.628Zm0-6.628H5.314V6.314H8.628Zm6.628,19.885H11.943V26.2h3.314Zm0-6.628H11.943V19.571h3.314Zm0-6.628H11.943V12.943h3.314Zm0-6.628H11.943V6.314h3.314ZM31.828,29.514H18.571V26.2h3.314V22.885H18.571V19.571h3.314V16.257H18.571V12.943H31.828ZM28.514,16.257H25.2v3.314h3.314Zm0,6.628H25.2V26.2h3.314Z" transform="translate(1.314 1.971)"/></svg>