<svg xmlns="http://www.w3.org/2000/svg" xmlns:xlink="http://www.w3.org/1999/xlink" width="2010" height="373" viewBox="0 0 2010 373"><defs><style>.a{fill:#2699fb;}.b{fill:#0276c9;}.c{fill:#00428a;}.d,.e,.h,.i,.l{fill:#fff;}.d{font-size:12px;}.d,.e,.i{font-family:Montserrat-Regular, Montserrat;}.e{font-size:10px;}.f{font-family:AppleColorEmoji, Apple Color Emoji;}.g{fill:#f7f7f7;font-size:15px;font-family:ArialMT, Arial;}.h{fill-rule:evenodd;}.i{font-size:13px;}.j{fill:#fffcfc;}.k{fill:#e81e25;}.m{filter:url(#a);}</style><filter id="a" x="0" y="0" width="2010" height="373" filterUnits="userSpaceOnUse"><feOffset dy="3" input="SourceAlpha"/><feGaussianBlur stdDeviation="15" result="b"/><feFlood flood-opacity="0.161"/><feComposite operator="in" in2="b"/><feComposite in="SourceGraphic"/></filter></defs><g transform="translate(45 42)"><path class="a" d="M0,62Z" transform="translate(0 247)"/><g class="m" transform="matrix(1, 0, 0, 1, -45, -42)"><path class="b" d="M0,0H1920V283H0Z" transform="translate(45 42)"/></g><rect class="c" width="1920" height="80" transform="translate(0 229)"/><text class="d" transform="translate(724.5 251)"><tspan x="0" y="12">© Copyright Sachait Elecbits Technologies Pvt. Ltd.. All Rights Reserved 2020</tspan></text><text class="e" transform="translate(901.5 275)"><tspan x="0" y="13">Made with </tspan><tspan class="f" y="13">❤️</tspan><tspan y="13" xml:space="preserve"> in India!</tspan></text><g transform="translate(276 46.829)"><text class="g" transform="translate(652 68.172)"><tspan x="0" y="0">Facebook</tspan><tspan x="0" y="26">Twitter</tspan><tspan x="0" y="52">Instagram</tspan></text><text class="g" transform="translate(652 68.172)"><tspan x="0" y="0">Facebook</tspan><tspan x="0" y="26">Twitter</tspan><tspan x="0" y="52">Instagram</tspan></text><path class="h" d="M85.2,15.333V8.348h2.385l.341-2.726H85.2v-1.7c0-.767.256-1.363,1.363-1.363h1.448V.085C87.667.085,86.815,0,85.878,0a3.288,3.288,0,0,0-3.493,3.578V5.622H80V8.348h2.385v6.985Z" transform="translate(534.477 58.823)"/><path class="h" d="M85.2,15.333V8.348h2.385l.341-2.726H85.2v-1.7c0-.767.256-1.363,1.363-1.363h1.448V.085C87.667.085,86.815,0,85.878,0a3.288,3.288,0,0,0-3.493,3.578V5.622H80V8.348h2.385v6.985Z" transform="translate(534.477 58.823)"/><path class="h" d="M42.856,14.437A8.865,8.865,0,0,0,51.8,5.493V5.067a6.924,6.924,0,0,0,1.533-1.619,7.072,7.072,0,0,1-1.789.511,3.314,3.314,0,0,0,1.363-1.7,7.814,7.814,0,0,1-1.959.767A3.042,3.042,0,0,0,48.648,2,3.2,3.2,0,0,0,45.5,5.152a1.661,1.661,0,0,0,.085.681,8.807,8.807,0,0,1-6.474-3.322,3.262,3.262,0,0,0-.426,1.619A3.385,3.385,0,0,0,40.044,6.77,2.872,2.872,0,0,1,38.6,6.344h0a3.113,3.113,0,0,0,2.556,3.067A2.626,2.626,0,0,1,40.3,9.5a1.45,1.45,0,0,1-.6-.085,3.227,3.227,0,0,0,2.981,2.215,6.432,6.432,0,0,1-3.919,1.363A2.358,2.358,0,0,1,38,12.9a8.041,8.041,0,0,0,4.856,1.533" transform="translate(576.477 80.101)"/><path class="h" d="M42.856,14.437A8.865,8.865,0,0,0,51.8,5.493V5.067a6.924,6.924,0,0,0,1.533-1.619,7.072,7.072,0,0,1-1.789.511,3.314,3.314,0,0,0,1.363-1.7,7.814,7.814,0,0,1-1.959.767A3.042,3.042,0,0,0,48.648,2,3.2,3.2,0,0,0,45.5,5.152a1.661,1.661,0,0,0,.085.681,8.807,8.807,0,0,1-6.474-3.322,3.262,3.262,0,0,0-.426,1.619A3.385,3.385,0,0,0,40.044,6.77,2.872,2.872,0,0,1,38.6,6.344h0a3.113,3.113,0,0,0,2.556,3.067A2.626,2.626,0,0,1,40.3,9.5a1.45,1.45,0,0,1-.6-.085,3.227,3.227,0,0,0,2.981,2.215,6.432,6.432,0,0,1-3.919,1.363A2.358,2.358,0,0,1,38,12.9a8.041,8.041,0,0,0,4.856,1.533" transform="translate(576.477 80.101)"/><text class="i" transform="translate(380 57.172)"><tspan x="0" y="0">HOME</tspan></text><text class="i" transform="translate(380 84.172)"><tspan x="0" y="0">HOW WE WORK?</tspan></text><text class="i" transform="translate(380 112.172)"><tspan x="0" y="0">SERVICES</tspan></text><text class="i" transform="translate(380 139.172)"><tspan x="0" y="0">CONTACT US</tspan></text><text class="d" transform="translate(0 59.172)"><tspan x="0" y="12">Lorem ipsum dolor sit amet, consectetur </tspan><tspan x="0" y="27">adipiscing elit. Sed ligula felis, dapibus quis </tspan><tspan x="0" y="42">dignissim id, mattis rutrum metus. Nunc gravida </tspan><tspan x="0" y="57">velit eros, ut semper ligula laoreet quis. Donec </tspan><tspan x="0" y="72">vulputate arcu id tellus bibendum ultricies. </tspan><tspan x="0" y="87">Maecenas varius odio in ligula laoreet, a cursus </tspan></text><text class="e" transform="translate(889 77.172)"><tspan x="0" y="10">Lorem ipsum dolor sit amet, consectetur adipiscing elit. </tspan><tspan x="0" y="23">Sed ligula felis, dapibus quis dignissim id, mattis rutrum </tspan><tspan x="0" y="36">metus. Nunc gravida velit eros, ut semper ligula laoreet </tspan><tspan x="0" y="49">quis</tspan></text><path class="h" d="M7.667,1.363a23.508,23.508,0,0,1,3.067.085,3.951,3.951,0,0,1,1.448.256A2.992,2.992,0,0,1,13.63,3.152,3.951,3.951,0,0,1,13.885,4.6c0,.767.085,1.022.085,3.067a23.507,23.507,0,0,1-.085,3.067,3.951,3.951,0,0,1-.256,1.448,2.992,2.992,0,0,1-1.448,1.448,3.951,3.951,0,0,1-1.448.256c-.767,0-1.022.085-3.067.085A23.507,23.507,0,0,1,4.6,13.885a3.951,3.951,0,0,1-1.448-.256A2.992,2.992,0,0,1,1.7,12.181a3.951,3.951,0,0,1-.256-1.448c0-.767-.085-1.022-.085-3.067A23.508,23.508,0,0,1,1.448,4.6,3.951,3.951,0,0,1,1.7,3.152,3.059,3.059,0,0,1,2.3,2.3a1.44,1.44,0,0,1,.852-.6A3.951,3.951,0,0,1,4.6,1.448a23.508,23.508,0,0,1,3.067-.085M7.667,0A25.17,25.17,0,0,0,4.515.085,5.259,5.259,0,0,0,2.641.426a3.335,3.335,0,0,0-1.363.852A3.335,3.335,0,0,0,.426,2.641,3.881,3.881,0,0,0,.085,4.515,25.17,25.17,0,0,0,0,7.667a25.17,25.17,0,0,0,.085,3.152,5.259,5.259,0,0,0,.341,1.874,3.335,3.335,0,0,0,.852,1.363,3.335,3.335,0,0,0,1.363.852,5.259,5.259,0,0,0,1.874.341,25.17,25.17,0,0,0,3.152.085,25.17,25.17,0,0,0,3.152-.085,5.259,5.259,0,0,0,1.874-.341,3.574,3.574,0,0,0,2.215-2.215,5.259,5.259,0,0,0,.341-1.874c0-.852.085-1.107.085-3.152a25.17,25.17,0,0,0-.085-3.152,5.259,5.259,0,0,0-.341-1.874,3.335,3.335,0,0,0-.852-1.363A3.335,3.335,0,0,0,12.693.426,5.259,5.259,0,0,0,10.819.085,25.17,25.17,0,0,0,7.667,0m0,3.748A3.855,3.855,0,0,0,3.748,7.667,3.919,3.919,0,1,0,7.667,3.748m0,6.474A2.51,2.51,0,0,1,5.111,7.667,2.51,2.51,0,0,1,7.667,5.111a2.51,2.51,0,0,1,2.556,2.556,2.51,2.51,0,0,1-2.556,2.556m4.089-7.581a.937.937,0,1,0,.937.937.945.945,0,0,0-.937-.937" transform="translate(614.477 103.116)"/><path class="h" d="M7.667,1.363a23.508,23.508,0,0,1,3.067.085,3.951,3.951,0,0,1,1.448.256A2.992,2.992,0,0,1,13.63,3.152,3.951,3.951,0,0,1,13.885,4.6c0,.767.085,1.022.085,3.067a23.507,23.507,0,0,1-.085,3.067,3.951,3.951,0,0,1-.256,1.448,2.992,2.992,0,0,1-1.448,1.448,3.951,3.951,0,0,1-1.448.256c-.767,0-1.022.085-3.067.085A23.507,23.507,0,0,1,4.6,13.885a3.951,3.951,0,0,1-1.448-.256A2.992,2.992,0,0,1,1.7,12.181a3.951,3.951,0,0,1-.256-1.448c0-.767-.085-1.022-.085-3.067A23.508,23.508,0,0,1,1.448,4.6,3.951,3.951,0,0,1,1.7,3.152,3.059,3.059,0,0,1,2.3,2.3a1.44,1.44,0,0,1,.852-.6A3.951,3.951,0,0,1,4.6,1.448a23.508,23.508,0,0,1,3.067-.085M7.667,0A25.17,25.17,0,0,0,4.515.085,5.259,5.259,0,0,0,2.641.426a3.335,3.335,0,0,0-1.363.852A3.335,3.335,0,0,0,.426,2.641,3.881,3.881,0,0,0,.085,4.515,25.17,25.17,0,0,0,0,7.667a25.17,25.17,0,0,0,.085,3.152,5.259,5.259,0,0,0,.341,1.874,3.335,3.335,0,0,0,.852,1.363,3.335,3.335,0,0,0,1.363.852,5.259,5.259,0,0,0,1.874.341,25.17,25.17,0,0,0,3.152.085,25.17,25.17,0,0,0,3.152-.085,5.259,5.259,0,0,0,1.874-.341,3.574,3.574,0,0,0,2.215-2.215,5.259,5.259,0,0,0,.341-1.874c0-.852.085-1.107.085-3.152a25.17,25.17,0,0,0-.085-3.152,5.259,5.259,0,0,0-.341-1.874,3.335,3.335,0,0,0-.852-1.363A3.335,3.335,0,0,0,12.693.426,5.259,5.259,0,0,0,10.819.085,25.17,25.17,0,0,0,7.667,0m0,3.748A3.855,3.855,0,0,0,3.748,7.667,3.919,3.919,0,1,0,7.667,3.748m0,6.474A2.51,2.51,0,0,1,5.111,7.667,2.51,2.51,0,0,1,7.667,5.111a2.51,2.51,0,0,1,2.556,2.556,2.51,2.51,0,0,1-2.556,2.556m4.089-7.581a.937.937,0,1,0,.937.937.945.945,0,0,0-.937-.937" transform="translate(614.477 103.116)"/><text class="i" transform="translate(889 59.172)"><tspan x="0" y="0">ADDRESS</tspan></text><g transform="translate(-16.6 -134.418)"><g transform="translate(54.529 138.59)"><path class="j" d="M111.284,166.687h5.778v20.507h-5.778v-2.653a7.351,7.351,0,0,1-6.3,3.315c-6.3,0-10.465-4.926-10.465-10.943,0-6.06,4.123-10.894,10.183-10.894a7.417,7.417,0,0,1,6.581,3.315Zm-10.8,10.232a5.686,5.686,0,1,0,5.685-5.778A5.617,5.617,0,0,0,100.488,176.919Z" transform="translate(-94.52 -152.668)"/><path class="j" d="M166.462,172.942a6.672,6.672,0,0,0-4.736-1.8,5.51,5.51,0,0,0-5.778,5.778,5.713,5.713,0,0,0,5.968,5.827,6.687,6.687,0,0,0,4.546-1.8v5.637a11.843,11.843,0,0,1-13.216-1.7,10.534,10.534,0,0,1-3.266-7.861,10.574,10.574,0,0,1,10.943-10.986,12.243,12.243,0,0,1,5.539,1.232Z" transform="translate(-122.984 -152.673)"/><path class="j" d="M192.785,138.59h5.778v16.672a7.539,7.539,0,0,1,6.347-3.315,7.825,7.825,0,0,1,6.06,2.512,8.634,8.634,0,0,1,1.611,5.778v12.885H206.8V161.945c0-1.134-.049-2.935-1.09-4.026a3.694,3.694,0,0,0-2.7-1.042,3.941,3.941,0,0,0-3.553,1.8,7.057,7.057,0,0,0-.9,3.977v10.465H192.78V138.59Z" transform="translate(-144.95 -138.59)"/><path class="j" d="M259.374,166.687h5.778v20.507h-5.778v-2.653a7.351,7.351,0,0,1-6.3,3.315c-6.3,0-10.465-4.926-10.465-10.943,0-6.06,4.123-10.894,10.183-10.894a7.417,7.417,0,0,1,6.581,3.315Zm-10.8,10.232a5.686,5.686,0,1,0,5.685-5.778A5.617,5.617,0,0,0,248.573,176.919Z" transform="translate(-170.525 -152.668)"/><path class="k" d="M300.21,167.39V187.9h5.778V167.39Z" transform="translate(-200.087 -153.371)"/><circle class="k" cx="3.456" cy="3.456" r="3.456" transform="translate(99.553 1.898)"/><path class="j" d="M326.741,164.926v15.581h-5.778V164.926H318.69V160h2.273V152.99h5.778V160h3.977v4.926Z" transform="translate(-209.572 -145.981)"/></g><g transform="translate(30.653 145.657)"><path class="l" d="M55.556,160.323h.331v.482c.073,0,.136,0,.2.01a.752.752,0,0,1,.706.584.676.676,0,0,1-.472.745,1.059,1.059,0,0,1-.35.058c-.871,0-1.747,0-2.619,0H46.273a.715.715,0,0,1-.75-.949.816.816,0,0,1,.759-.448h.1v-.487h.331c0-.029,0-.054,0-.078v-3.539a3.232,3.232,0,0,1,.72-2.049,3.732,3.732,0,0,1,.8-.759,4.4,4.4,0,0,1,2.59-.789,11.219,11.219,0,0,1,1.144.029,4.14,4.14,0,0,1,2.57,1.183,3.265,3.265,0,0,1,.93,1.64,3.359,3.359,0,0,1,.083.73c.01,1.188,0,2.375,0,3.558A.156.156,0,0,0,55.556,160.323Zm-4.05-6.479a.018.018,0,0,1,0,.015l.024.015c.219.078.443.151.657.229a2.9,2.9,0,0,1,.745.433,3.224,3.224,0,0,1,1.339,2.575c.015,1.042,0,2.078,0,3.12v.083h.886v-3.208a2.829,2.829,0,0,0-.18-1.022,3.4,3.4,0,0,0-1.957-1.937,3.543,3.543,0,0,0-1.061-.268C51.813,153.868,51.657,153.858,51.506,153.844Z" transform="translate(-45.47 -153.108)"/></g><g transform="translate(16.6 141.107)"><path class="j" d="M27.854,165.713a4.944,4.944,0,0,0,.472-4.133c.01,0,8.8,2.692,15.659,0l0,14.613h5.836l-.029-27.488a0,0,0,0,1,0,0l6.338,0V143.76H16.6s0,0,0,0l3.524,4.916v0H26.5l.01,8.333H21.614c-.122,0-.239,0-.36.015s-.229.024-.341.044a3.263,3.263,0,0,0-1.932,5.272l13.274,17.066h5.8Zm-8.173-4.765-.01-.039.01.01Z" transform="translate(-16.6 -143.76)"/><g transform="translate(15.226 4.511)"><path class="b" d="M57.966,160.243H58.3v.482c.073,0,.136,0,.2.01a.752.752,0,0,1,.706.584.676.676,0,0,1-.472.745,1.059,1.059,0,0,1-.35.058c-.871,0-1.747,0-2.619,0H48.683a.715.715,0,0,1-.75-.949.816.816,0,0,1,.759-.448h.1v-.487h.331c0-.029,0-.054,0-.078v-3.539a3.232,3.232,0,0,1,.72-2.049,3.732,3.732,0,0,1,.8-.759,4.4,4.4,0,0,1,2.59-.789,11.215,11.215,0,0,1,1.144.029,4.14,4.14,0,0,1,2.57,1.183,3.265,3.265,0,0,1,.93,1.64,3.359,3.359,0,0,1,.083.73c.01,1.188,0,2.375,0,3.558A.177.177,0,0,0,57.966,160.243Zm-4.05-6.474a.018.018,0,0,1,0,.015l.024.015c.219.078.443.151.657.229a2.9,2.9,0,0,1,.745.433,3.224,3.224,0,0,1,1.339,2.575c.015,1.042,0,2.078,0,3.12v.083h.886V157.03a2.829,2.829,0,0,0-.18-1.022,3.4,3.4,0,0,0-1.957-1.937,3.543,3.543,0,0,0-1.061-.268C54.218,153.788,54.067,153.778,53.916,153.769Z" transform="translate(-47.88 -153.028)"/></g></g><rect class="j" width="5.778" height="20.507" transform="translate(154.647 152.609)"/></g></g></g></svg>