<svg xmlns="http://www.w3.org/2000/svg" width="595.357" height="342" viewBox="0 0 595.357 342"><defs><style>.a,.b{fill:#707070;font-size:24px;font-weight:300;}.a{font-family:Montserrat-Light, Montserrat;}.b{font-family:Ubuntu-Light, Ubuntu;}.c{fill:none;}</style></defs><g transform="translate(-228.643 -4913)"><text class="a" transform="translate(301 4964)"><tspan x="0" y="23"></tspan></text><text class="b" transform="translate(301 4913)"><tspan x="0" y="22">Completely wireless and sends data to </tspan><tspan x="0" y="50">Base station on trigger,</tspan></text><text class="b" transform="translate(301 5012)"><tspan x="0" y="22">6 month battery life.</tspan></text><text class="b" transform="translate(301 5072)"><tspan x="0" y="22">Range of over 100 meter in straight </tspan><tspan x="0" y="50">line and 20-25 meters with walls.</tspan></text><text class="b" transform="translate(301 5163)"><tspan x="0" y="22">Works fine in a multi-storey building up </tspan><tspan x="0" y="50">to 3rd floor, when Base station is kept </tspan><tspan x="0" y="78">at ground floor.</tspan></text><g transform="translate(236.641 4921)"><path class="c" d="M0,0H39.358V39.358H0Z"/><path d="M2,25.6v3.28a8.2,8.2,0,0,1,8.2,8.2h3.28A11.471,11.471,0,0,0,2,25.6Zm0,6.56v4.92H6.92A4.913,4.913,0,0,0,2,32.159ZM2,19.039v3.28A14.761,14.761,0,0,1,16.759,37.079h3.28A18.029,18.029,0,0,0,2,19.039ZM26.6,1.016,10.2,1A3.29,3.29,0,0,0,6.92,4.28V16.366a20.123,20.123,0,0,1,3.28,1.05V7.56H26.6V28.879H21.63a21.329,21.329,0,0,1,1.558,6.56H26.6a3.29,3.29,0,0,0,3.28-3.28V4.28A3.275,3.275,0,0,0,26.6,1.016Z" transform="translate(1.28 0.64)"/></g><g transform="translate(228.643 5003)"><path class="c" d="M0,0H47.357V47.357H0Z"/><path d="M24.108,5.946h-3.3V2H12.92V5.946h-3.3A2.636,2.636,0,0,0,7,8.571V38.82a2.64,2.64,0,0,0,2.624,2.644H24.088a2.64,2.64,0,0,0,2.644-2.624V8.571A2.636,2.636,0,0,0,24.108,5.946ZM14.893,37.518V26.665H10.946l7.893-14.8V22.719h3.946Z" transform="translate(6.813 1.946)"/></g><g transform="translate(228.797 5094)"><path class="c" d="M0,0H47.2V47.2H0Z"/><path d="M30.3,5.524a.958.958,0,0,0-.806.452l-.138.3L19.173,29.184a3.874,3.874,0,0,0-.511,1.888,3.947,3.947,0,0,0,7.808.826l.02-.059,4.8-25.332A.974.974,0,0,0,30.3,5.524ZM1,13.391l3.934,3.934a24.9,24.9,0,0,1,20.71-7.12l2.34-5.271A30.527,30.527,0,0,0,1,13.391Zm39.335,3.934,3.934-3.934A30.224,30.224,0,0,0,33.275,6.37l-1.042,5.546A24.814,24.814,0,0,1,40.335,17.325Zm-7.867,7.867L36.4,21.258a19.43,19.43,0,0,0-5.232-3.717l-1.082,5.743A14.261,14.261,0,0,1,32.468,25.192Zm-23.6-3.934L12.8,25.192a13.962,13.962,0,0,1,7.926-3.934l2.517-5.664A19.43,19.43,0,0,0,8.867,21.258Z" transform="translate(0.967 4.31)"/></g><g transform="translate(232.23 5184)"><path class="c" d="M0,0H39.771V39.771H0Z"/><path d="M18.571,9.628V3H2V32.828H35.142V9.628ZM8.628,29.514H5.314V26.2H8.628Zm0-6.628H5.314V19.571H8.628Zm0-6.628H5.314V12.943H8.628Zm0-6.628H5.314V6.314H8.628Zm6.628,19.885H11.943V26.2h3.314Zm0-6.628H11.943V19.571h3.314Zm0-6.628H11.943V12.943h3.314Zm0-6.628H11.943V6.314h3.314ZM31.828,29.514H18.571V26.2h3.314V22.885H18.571V19.571h3.314V16.257H18.571V12.943H31.828ZM28.514,16.257H25.2v3.314h3.314Zm0,6.628H25.2V26.2h3.314Z" transform="translate(1.314 1.971)"/></g></g></svg>