<svg xmlns="http://www.w3.org/2000/svg" xmlns:xlink="http://www.w3.org/1999/xlink" width="1938" height="106" viewBox="0 0 1938 106"><defs><style>.a,.e{fill:#fff;}.b,.c{fill:#707070;}.b,.c,.e{font-size:16px;}.b,.e{font-family:Montserrat-Regular, Montserrat;}.c{font-family:Montserrat-Medium, Montserrat;font-weight:500;}.d{fill:#0276c9;}.f{fill:#2375bc;}.g{fill:#e81e25;}.h{filter:url(#a);}</style><filter id="a" x="0" y="0" width="1938" height="106" filterUnits="userSpaceOnUse"><feOffset dy="3" input="SourceAlpha"/><feGaussianBlur stdDeviation="3" result="b"/><feFlood flood-opacity="0.161"/><feComposite operator="in" in2="b"/><feComposite in="SourceGraphic"/></filter></defs><g transform="translate(9 6)"><g class="h" transform="matrix(1, 0, 0, 1, -9, -6)"><path class="a" d="M0,0H1920V88H0Z" transform="translate(9 6)"/></g><text class="b" transform="translate(693.5 56)"><tspan x="0" y="0">HOME</tspan></text><text class="b" transform="translate(796.5 56)"><tspan x="0" y="0">HOW WE WORK?</tspan></text><text class="b" transform="translate(990.5 56)"><tspan x="0" y="0">SERVICES</tspan></text><text class="b" transform="translate(1121.5 56)"><tspan x="0" y="0">CONTACT US</tspan></text><text class="c" transform="translate(1416 55)"><tspan x="0" y="0">8017225878</tspan></text><g transform="translate(0 -1)"><path class="d" d="M8.655,0H110.345A8.7,8.7,0,0,1,119,8.75v17.5A8.7,8.7,0,0,1,110.345,35H8.655A8.7,8.7,0,0,1,0,26.25V8.75A8.7,8.7,0,0,1,8.655,0Z" transform="translate(1527 33)"/><text class="e" transform="translate(1537 56)"><tspan x="0" y="0">PRE-ORDER</tspan></text></g><path class="d" d="M-141.979,150.517a8.753,8.753,0,0,1-1.579-.327,1.8,1.8,0,0,0-1.8.445l-.98.98a11.3,11.3,0,0,1-4.469-4.47l.98-.98a1.8,1.8,0,0,0,.445-1.8,8.778,8.778,0,0,1-.327-1.579,1.8,1.8,0,0,0-1.79-1.594h-2.419a1.8,1.8,0,0,0-1.33.587,1.813,1.813,0,0,0-.472,1.22c0,.055,0,.11.007.165a14.683,14.683,0,0,0,1.368,4.982,14.784,14.784,0,0,0,2.9,4.108,14.781,14.781,0,0,0,4.108,2.9,14.677,14.677,0,0,0,4.982,1.368,1.812,1.812,0,0,0,1.385-.464,1.805,1.805,0,0,0,.587-1.33v-2.419A1.8,1.8,0,0,0-141.979,150.517Z" transform="translate(1586.907 -52.613) rotate(16)"/><g transform="translate(257.4 -113.59)"><g transform="translate(54.529 138.59)"><path class="f" d="M111.284,166.687h5.778v20.507h-5.778v-2.653a7.351,7.351,0,0,1-6.3,3.315c-6.3,0-10.465-4.926-10.465-10.943,0-6.06,4.123-10.894,10.183-10.894a7.417,7.417,0,0,1,6.581,3.315Zm-10.8,10.232a5.686,5.686,0,1,0,5.685-5.778A5.617,5.617,0,0,0,100.488,176.919Z" transform="translate(-94.52 -152.668)"/><path class="f" d="M166.462,172.942a6.672,6.672,0,0,0-4.736-1.8,5.51,5.51,0,0,0-5.778,5.778,5.713,5.713,0,0,0,5.968,5.827,6.687,6.687,0,0,0,4.546-1.8v5.637a11.843,11.843,0,0,1-13.216-1.7,10.534,10.534,0,0,1-3.266-7.861,10.574,10.574,0,0,1,10.943-10.986,12.243,12.243,0,0,1,5.539,1.232Z" transform="translate(-122.984 -152.673)"/><path class="f" d="M192.785,138.59h5.778v16.672a7.539,7.539,0,0,1,6.347-3.315,7.825,7.825,0,0,1,6.06,2.512,8.634,8.634,0,0,1,1.611,5.778v12.885H206.8V161.945c0-1.134-.049-2.935-1.09-4.026a3.694,3.694,0,0,0-2.7-1.042,3.941,3.941,0,0,0-3.553,1.8,7.057,7.057,0,0,0-.9,3.977v10.465H192.78V138.59Z" transform="translate(-144.95 -138.59)"/><path class="f" d="M259.374,166.687h5.778v20.507h-5.778v-2.653a7.351,7.351,0,0,1-6.3,3.315c-6.3,0-10.465-4.926-10.465-10.943,0-6.06,4.123-10.894,10.183-10.894a7.417,7.417,0,0,1,6.581,3.315Zm-10.8,10.232a5.686,5.686,0,1,0,5.685-5.778A5.617,5.617,0,0,0,248.573,176.919Z" transform="translate(-170.525 -152.668)"/><path class="g" d="M300.21,167.39V187.9h5.778V167.39Z" transform="translate(-200.087 -153.371)"/><circle class="g" cx="3.456" cy="3.456" r="3.456" transform="translate(99.553 1.898)"/><path class="f" d="M326.741,164.926v15.581h-5.778V164.926H318.69V160h2.273V152.99h5.778V160h3.977v4.926Z" transform="translate(-209.572 -145.981)"/></g><g transform="translate(30.653 145.657)"><path class="a" d="M55.556,160.323h.331v.482c.073,0,.136,0,.2.01a.752.752,0,0,1,.706.584.676.676,0,0,1-.472.745,1.059,1.059,0,0,1-.35.058c-.871,0-1.747,0-2.619,0H46.273a.715.715,0,0,1-.75-.949.816.816,0,0,1,.759-.448h.1v-.487h.331c0-.029,0-.054,0-.078v-3.539a3.232,3.232,0,0,1,.72-2.049,3.732,3.732,0,0,1,.8-.759,4.4,4.4,0,0,1,2.59-.789,11.219,11.219,0,0,1,1.144.029,4.14,4.14,0,0,1,2.57,1.183,3.265,3.265,0,0,1,.93,1.64,3.359,3.359,0,0,1,.083.73c.01,1.188,0,2.375,0,3.558A.156.156,0,0,0,55.556,160.323Zm-4.05-6.479a.018.018,0,0,1,0,.015l.024.015c.219.078.443.151.657.229a2.9,2.9,0,0,1,.745.433,3.224,3.224,0,0,1,1.339,2.575c.015,1.042,0,2.078,0,3.12v.083h.886v-3.208a2.829,2.829,0,0,0-.18-1.022,3.4,3.4,0,0,0-1.957-1.937,3.543,3.543,0,0,0-1.061-.268C51.813,153.868,51.657,153.858,51.506,153.844Z" transform="translate(-45.47 -153.108)"/></g><g transform="translate(16.6 141.107)"><path class="f" d="M27.854,165.713a4.944,4.944,0,0,0,.472-4.133c.01,0,8.8,2.692,15.659,0l0,14.613h5.836l-.029-27.488a0,0,0,0,1,0,0l6.338,0V143.76H16.6s0,0,0,0l3.524,4.916v0H26.5l.01,8.333H21.614c-.122,0-.239,0-.36.015s-.229.024-.341.044a3.263,3.263,0,0,0-1.932,5.272l13.274,17.066h5.8Zm-8.173-4.765-.01-.039.01.01Z" transform="translate(-16.6 -143.76)"/><g transform="translate(15.226 4.511)"><path class="a" d="M57.966,160.243H58.3v.482c.073,0,.136,0,.2.01a.752.752,0,0,1,.706.584.676.676,0,0,1-.472.745,1.059,1.059,0,0,1-.35.058c-.871,0-1.747,0-2.619,0H48.683a.715.715,0,0,1-.75-.949.816.816,0,0,1,.759-.448h.1v-.487h.331c0-.029,0-.054,0-.078v-3.539a3.232,3.232,0,0,1,.72-2.049,3.732,3.732,0,0,1,.8-.759,4.4,4.4,0,0,1,2.59-.789,11.215,11.215,0,0,1,1.144.029,4.14,4.14,0,0,1,2.57,1.183,3.265,3.265,0,0,1,.93,1.64,3.359,3.359,0,0,1,.083.73c.01,1.188,0,2.375,0,3.558A.177.177,0,0,0,57.966,160.243Zm-4.05-6.474a.018.018,0,0,1,0,.015l.024.015c.219.078.443.151.657.229a2.9,2.9,0,0,1,.745.433,3.224,3.224,0,0,1,1.339,2.575c.015,1.042,0,2.078,0,3.12v.083h.886V157.03a2.829,2.829,0,0,0-.18-1.022,3.4,3.4,0,0,0-1.957-1.937,3.543,3.543,0,0,0-1.061-.268C54.218,153.788,54.067,153.778,53.916,153.769Z" transform="translate(-47.88 -153.028)"/></g></g><rect class="f" width="5.778" height="20.507" transform="translate(154.647 152.609)"/></g></g></svg>