<svg xmlns="http://www.w3.org/2000/svg" xmlns:xlink="http://www.w3.org/1999/xlink" width="1938" height="106" viewBox="0 0 1938 106"><defs><style>.a,.e{fill:#fff;}.b,.c{fill:#707070;}.b,.c,.e{font-size:16px;}.b,.e{font-family:Montserrat-Regular, Montserrat;}.c{font-family:Montserrat-Medium, Montserrat;font-weight:500;}.d{fill:#0276c9;}.f{filter:url(#a);}</style><filter id="a" x="0" y="0" width="1938" height="106" filterUnits="userSpaceOnUse"><feOffset dy="3" input="SourceAlpha"/><feGaussianBlur stdDeviation="3" result="b"/><feFlood flood-opacity="0.161"/><feComposite operator="in" in2="b"/><feComposite in="SourceGraphic"/></filter></defs><g transform="translate(9 6)"><g class="f" transform="matrix(1, 0, 0, 1, -9, -6)"><path class="a" d="M0,0H1920V88H0Z" transform="translate(9 6)"/></g><text class="b" transform="translate(693.5 56)"><tspan x="0" y="0">HOME</tspan></text><text class="b" transform="translate(796.5 56)"><tspan x="0" y="0">HOW WE WORK?</tspan></text><text class="b" transform="translate(990.5 56)"><tspan x="0" y="0">SERVICES</tspan></text><text class="b" transform="translate(1121.5 56)"><tspan x="0" y="0">CONTACT US</tspan></text><text class="c" transform="translate(1416 55)"><tspan x="0" y="0">8017225878</tspan></text><g transform="translate(0 -1)"><path class="d" d="M8.655,0H110.345A8.7,8.7,0,0,1,119,8.75v17.5A8.7,8.7,0,0,1,110.345,35H8.655A8.7,8.7,0,0,1,0,26.25V8.75A8.7,8.7,0,0,1,8.655,0Z" transform="translate(1527 33)"/><text class="e" transform="translate(1537 56)"><tspan x="0" y="0">PRE-ORDER</tspan></text></g><path class="d" d="M-141.979,150.517a8.753,8.753,0,0,1-1.579-.327,1.8,1.8,0,0,0-1.8.445l-.98.98a11.3,11.3,0,0,1-4.469-4.47l.98-.98a1.8,1.8,0,0,0,.445-1.8,8.778,8.778,0,0,1-.327-1.579,1.8,1.8,0,0,0-1.79-1.594h-2.419a1.8,1.8,0,0,0-1.33.587,1.813,1.813,0,0,0-.472,1.22c0,.055,0,.11.007.165a14.683,14.683,0,0,0,1.368,4.982,14.784,14.784,0,0,0,2.9,4.108,14.781,14.781,0,0,0,4.108,2.9,14.677,14.677,0,0,0,4.982,1.368,1.812,1.812,0,0,0,1.385-.464,1.805,1.805,0,0,0,.587-1.33v-2.419A1.8,1.8,0,0,0-141.979,150.517Z" transform="translate(1586.907 -52.613) rotate(16)"/></g></svg>