<svg xmlns="http://www.w3.org/2000/svg" width="47.203" height="47.203" viewBox="0 0 47.203 47.203"><defs><style>.a{fill:none;}</style></defs><path class="a" d="M0,0H47.2V47.2H0Z"/><path d="M30.3,5.524a.958.958,0,0,0-.806.452l-.138.3L19.173,29.184a3.874,3.874,0,0,0-.511,1.888,3.947,3.947,0,0,0,7.808.826l.02-.059,4.8-25.332A.974.974,0,0,0,30.3,5.524ZM1,13.391l3.934,3.934a24.9,24.9,0,0,1,20.71-7.12l2.34-5.271A30.527,30.527,0,0,0,1,13.391Zm39.335,3.934,3.934-3.934A30.224,30.224,0,0,0,33.275,6.37l-1.042,5.546A24.814,24.814,0,0,1,40.335,17.325Zm-7.867,7.867L36.4,21.258a19.43,19.43,0,0,0-5.232-3.717l-1.082,5.743A14.261,14.261,0,0,1,32.468,25.192Zm-23.6-3.934L12.8,25.192a13.962,13.962,0,0,1,7.926-3.934l2.517-5.664A19.43,19.43,0,0,0,8.867,21.258Z" transform="translate(0.967 4.31)"/></svg>