<svg xmlns="http://www.w3.org/2000/svg" width="61.193" height="61.193" viewBox="0 0 61.193 61.193"><defs><style>.a{fill:none;}</style></defs><g transform="translate(0)"><path class="a" d="M0,0H61.193V61.193H0Z" transform="translate(0)"/><path d="M38.991,5.84a1.242,1.242,0,0,0-1.045.586l-.178.382-13.207,29.7a5.023,5.023,0,0,0-.663,2.448,5.117,5.117,0,0,0,10.122,1.071l.025-.076,6.221-32.84A1.262,1.262,0,0,0,38.991,5.84ZM1,16.039l5.1,5.1a32.283,32.283,0,0,1,26.848-9.23l3.034-6.833A39.576,39.576,0,0,0,1,16.039Zm50.994,5.1,5.1-5.1a39.182,39.182,0,0,0-14.253-9.1l-1.351,7.19A32.169,32.169,0,0,1,51.994,21.138Zm-10.2,10.2,5.1-5.1a25.189,25.189,0,0,0-6.782-4.819l-1.4,7.445A18.487,18.487,0,0,1,41.8,31.337Zm-30.6-5.1,5.1,5.1a18.1,18.1,0,0,1,10.275-5.1l3.264-7.343A25.188,25.188,0,0,0,11.2,26.238Z" transform="translate(1.549 6.908)"/></g></svg>