<svg xmlns="http://www.w3.org/2000/svg" width="32.948" height="32.948" viewBox="0 0 32.948 32.948"><defs><style>.a{fill:none;}</style></defs><path class="a" d="M0,0H32.948V32.948H0Z"/><path d="M9.649,4.669,7.686,2.706A14.312,14.312,0,0,0,2.03,13.483H4.776A11.594,11.594,0,0,1,9.649,4.669Zm17.009,8.814H29.4A14.4,14.4,0,0,0,23.748,2.706L21.8,4.669A11.663,11.663,0,0,1,26.659,13.483Zm-2.7.686c0-4.215-2.251-7.743-6.178-8.676V4.559a2.059,2.059,0,1,0-4.119,0v.934c-3.94.934-6.178,4.448-6.178,8.676v6.864L4.734,23.779v1.373H26.7V23.779l-2.746-2.746Zm-8.237,15.1a2.4,2.4,0,0,0,.549-.055,2.786,2.786,0,0,0,1.977-1.62,2.756,2.756,0,0,0,.206-1.071H12.958a2.766,2.766,0,0,0,2.759,2.746Z" transform="translate(0.757 0.932)"/></svg>