<svg xmlns="http://www.w3.org/2000/svg" width="471.382" height="113.114" viewBox="0 0 471.382 113.114"><defs><style>.a{fill:#044683;}.b{fill:#e81e25;}.c{fill:#fff;}</style></defs><g transform="translate(-16.6 -138.59)"><g transform="translate(128.993 138.59)"><path class="a" d="M144.2,168h17.122v60.769H144.2V220.9a21.784,21.784,0,0,1-18.665,9.823c-18.665,0-31.012-14.6-31.012-32.426,0-17.958,12.217-32.281,30.175-32.281,4.63,0,13.761.837,19.5,9.823ZM112.2,198.316c0,9.679,7.01,17.266,16.847,17.266s16.847-7.573,16.847-17.266-7.025-17.122-16.847-17.122S112.2,188.623,112.2,198.316Z" transform="translate(-94.52 -126.454)"/><path class="a" d="M198.82,186.512a19.772,19.772,0,0,0-14.035-5.337c-11.366,0-17.122,8.28-17.122,17.122,0,9.967,7.443,17.266,17.684,17.266a19.815,19.815,0,0,0,13.472-5.337v16.7a35.095,35.095,0,0,1-39.162-5.048,31.214,31.214,0,0,1-9.679-23.3c0-10.659,4.356-19.227,10.53-24.694a32.4,32.4,0,0,1,21.9-7.861,36.279,36.279,0,0,1,16.415,3.649Z" transform="translate(-69.983 -126.45)"/><path class="a" d="M192.794,138.59h17.122v49.4a22.341,22.341,0,0,1,18.809-9.823c5.337,0,13.2,1.543,17.958,7.443,4.212,5.193,4.774,11.222,4.774,17.121v38.181H234.336V207.8c0-3.361-.144-8.7-3.231-11.929a10.946,10.946,0,0,0-8.005-3.087c-4.486,0-8.005,1.543-10.53,5.337-2.524,3.923-2.669,8.28-2.669,11.785v31.012H192.78V138.59Z" transform="translate(-51.048 -138.59)"/><path class="a" d="M292.287,168h17.122v60.769H292.287V220.9a21.784,21.784,0,0,1-18.665,9.823c-18.665,0-31.012-14.6-31.012-32.426,0-17.958,12.217-32.281,30.175-32.281,4.63,0,13.761.837,19.5,9.823Zm-32.007,30.32c0,9.679,7.01,17.266,16.848,17.266s16.847-7.573,16.847-17.266-7.025-17.122-16.847-17.122S260.28,188.623,260.28,198.316Z" transform="translate(-29.002 -126.454)"/><path class="a" d="M300.21,167.39v60.769h17.122V167.39Z" transform="translate(-3.519 -125.848)"/><circle class="b" cx="10.241" cy="10.241" r="10.241" transform="translate(295.004 5.625)"/><path class="a" d="M342.548,188.358V234.53H325.426V188.358H318.69v-14.6h6.736V152.99h17.121v20.771h11.785v14.6Z" transform="translate(4.657 -132.219)"/></g><g transform="translate(58.243 159.531)"><path class="c" d="M75.357,174.488h.981v1.428c.216.014.4.014.591.029a2.229,2.229,0,0,1,2.091,1.731,2,2,0,0,1-1.4,2.207,3.138,3.138,0,0,1-1.039.173c-2.582.014-5.178.014-7.76.014H47.85a2.119,2.119,0,0,1-2.221-2.813,2.419,2.419,0,0,1,2.25-1.327h.3v-1.442h.981c0-.087.014-.159.014-.231V163.77a9.576,9.576,0,0,1,2.135-6.073,11.06,11.06,0,0,1,2.38-2.25,13.046,13.046,0,0,1,7.674-2.337,33.228,33.228,0,0,1,3.39.087,12.268,12.268,0,0,1,7.616,3.505,9.674,9.674,0,0,1,2.755,4.861,9.954,9.954,0,0,1,.245,2.164c.029,3.52.014,7.039.014,10.544A.461.461,0,0,0,75.357,174.488Zm-12-19.2a.053.053,0,0,1-.014.043c.029.014.043.029.072.043.649.231,1.313.447,1.947.678a8.591,8.591,0,0,1,2.207,1.284,9.554,9.554,0,0,1,3.967,7.63c.043,3.087.014,6.159.014,9.246v.245h2.625v-9.506a8.384,8.384,0,0,0-.534-3.029,10.06,10.06,0,0,0-5.8-5.741,10.5,10.5,0,0,0-3.144-.793C64.265,155.361,63.8,155.332,63.356,155.289Z" transform="translate(-45.47 -153.108)"/></g><g transform="translate(16.6 146.047)"><path class="a" d="M49.949,208.813c1.226-2.466,3.3-6.318,1.4-12.246.029.014,26.079,7.977,46.4,0l-.014,43.3h17.295l-.087-81.453a.014.014,0,0,1,.014-.014l18.78.014V143.76H16.614c0,.014,0,.014-.014.014l10.443,14.568v.014H45.924l.029,24.694h-14.5c-.361,0-.707.014-1.067.043s-.678.072-1.01.13a9.668,9.668,0,0,0-5.726,15.621l39.335,50.571H80.182ZM25.731,194.692l-.029-.115.029.029Z" transform="translate(-16.6 -143.76)"/><g transform="translate(45.119 13.368)"><path class="c" d="M77.767,174.408h.981v1.428c.216.014.4.014.591.029a2.229,2.229,0,0,1,2.092,1.731,2,2,0,0,1-1.4,2.207,3.138,3.138,0,0,1-1.039.173c-2.582.014-5.178.014-7.76.014H50.26a2.119,2.119,0,0,1-2.221-2.813,2.419,2.419,0,0,1,2.25-1.327h.3v-1.442h.981c0-.086.014-.159.014-.231V163.69a9.576,9.576,0,0,1,2.135-6.073,11.061,11.061,0,0,1,2.38-2.25,13.046,13.046,0,0,1,7.674-2.337,33.255,33.255,0,0,1,3.39.087,12.269,12.269,0,0,1,7.616,3.505,9.674,9.674,0,0,1,2.755,4.861,9.953,9.953,0,0,1,.245,2.164c.029,3.52.014,7.039.014,10.544A.526.526,0,0,0,77.767,174.408Zm-12-19.184a.053.053,0,0,1-.014.043c.029.014.043.029.072.043.649.231,1.313.447,1.947.678a8.591,8.591,0,0,1,2.207,1.284,9.555,9.555,0,0,1,3.967,7.63c.043,3.087.014,6.159.014,9.246v.245h2.625v-9.505a8.383,8.383,0,0,0-.534-3.029,10.06,10.06,0,0,0-5.8-5.741,10.5,10.5,0,0,0-3.144-.793C66.66,155.281,66.213,155.252,65.766,155.223Z" transform="translate(-47.88 -153.028)"/></g></g><rect class="a" width="17.122" height="60.769" transform="translate(425.67 180.132)"/></g></svg>