<?xml version="1.0" encoding="utf-8"?>
<!-- Generator: Adobe Illustrator 24.1.0, SVG Export Plug-In . SVG Version: 6.00 Build 0)  -->
<svg version="1.1" id="Layer_1" xmlns="http://www.w3.org/2000/svg" xmlns:xlink="http://www.w3.org/1999/xlink" x="0px" y="0px"
	 viewBox="0 0 360 360" style="enable-background:new 0 0 360 360;" xml:space="preserve">
<style type="text/css">
	.st0{fill:#2375BC;}
	.st1{fill:#FFFFFF;}
	.st2{fill:#1D64A1;}
	.st3{fill:#E81E25;}
</style>
<g>
	<g>
		<path class="st0" d="M128.96,167.39h11.87v42.13h-11.87v-5.45c-4.28,6.13-9.92,6.81-12.94,6.81c-12.94,0-21.5-10.12-21.5-22.48
			c0-12.45,8.47-22.38,20.92-22.38c3.21,0,9.54,0.58,13.52,6.81V167.39z M106.78,188.41c0,6.71,4.86,11.97,11.68,11.97
			s11.68-5.25,11.68-11.97c0-6.71-4.87-11.87-11.68-11.87S106.78,181.69,106.78,188.41z"/>
		<path class="st0" d="M183.84,180.23c-2.53-2.33-5.64-3.7-9.73-3.7c-7.88,0-11.87,5.74-11.87,11.87c0,6.91,5.16,11.97,12.26,11.97
			c2.63,0,6.13-0.78,9.34-3.7v11.58c-2.33,1.17-6.03,2.63-10.9,2.63c-6.62,0-12.45-2.53-16.25-6.13c-3.21-3.02-6.71-8.27-6.71-16.15
			c0-7.39,3.02-13.33,7.3-17.12c5.16-4.57,11.09-5.45,15.18-5.45c4.38,0,7.98,0.88,11.38,2.53V180.23z"/>
		<path class="st0" d="M192.79,138.59h11.87v34.25c2.24-3.11,6.23-6.81,13.04-6.81c3.7,0,9.15,1.07,12.45,5.16
			c2.92,3.6,3.31,7.78,3.31,11.87v26.47h-11.87v-22.96c0-2.33-0.1-6.03-2.24-8.27c-1.85-1.95-4.38-2.14-5.55-2.14
			c-3.11,0-5.55,1.07-7.3,3.7c-1.75,2.72-1.85,5.74-1.85,8.17v21.5h-11.87V138.59z"/>
		<path class="st0" d="M277.05,167.39h11.87v42.13h-11.87v-5.45c-4.28,6.13-9.92,6.81-12.94,6.81c-12.94,0-21.5-10.12-21.5-22.48
			c0-12.45,8.47-22.38,20.92-22.38c3.21,0,9.54,0.58,13.52,6.81V167.39z M254.86,188.41c0,6.71,4.86,11.97,11.68,11.97
			c6.81,0,11.68-5.25,11.68-11.97c0-6.71-4.87-11.87-11.68-11.87C259.73,176.54,254.86,181.69,254.86,188.41z"/>
		<path class="st3" d="M300.21,167.39v42.13h11.87v-42.13H300.21z"/>
		<circle class="st3" cx="306.14" cy="149.59" r="7.1"/>
		<path class="st0" d="M335.23,177.51v32.01h-11.87v-32.01h-4.67v-10.12h4.67v-14.4h11.87v14.4h8.17v10.12H335.23z"/>
	</g>
	<g>
		<path class="st1" d="M66.19,167.93c0.24,0,0.45,0,0.68,0c0,0.33,0,0.66,0,0.99c0.15,0.01,0.28,0.01,0.41,0.02
			c0.73,0.05,1.33,0.55,1.45,1.2c0.12,0.64-0.29,1.3-0.97,1.53c-0.22,0.08-0.48,0.12-0.72,0.12c-1.79,0.01-3.59,0.01-5.38,0.01
			c-3.5,0-7,0-10.5,0c-1.35,0-2.69,0-4.04,0c-1.16,0-1.95-1-1.54-1.95c0.24-0.55,0.83-0.9,1.56-0.92c0.06,0,0.13,0,0.21,0
			c0-0.34,0-0.66,0-1c0.23,0,0.45,0,0.68,0c0-0.06,0.01-0.11,0.01-0.16c0-2.42,0-4.85,0-7.27c0-1.53,0.48-2.94,1.48-4.21
			c0.46-0.59,1.01-1.11,1.65-1.56c1.56-1.08,3.33-1.63,5.32-1.62c0.78,0,1.57-0.02,2.35,0.06c2.11,0.21,3.87,1.04,5.28,2.43
			c0.98,0.97,1.63,2.09,1.91,3.37c0.11,0.49,0.17,1,0.17,1.5c0.02,2.44,0.01,4.88,0.01,7.31C66.19,167.82,66.19,167.86,66.19,167.93
			z M57.87,154.62c0,0.01,0,0.02-0.01,0.03c0.02,0.01,0.03,0.02,0.05,0.03c0.45,0.16,0.91,0.31,1.35,0.47
			c0.57,0.21,1.07,0.54,1.53,0.89c1.8,1.41,2.72,3.19,2.75,5.29c0.03,2.14,0.01,4.27,0.01,6.41c0,0.05,0,0.11,0,0.17
			c0.62,0,1.21,0,1.82,0c0-0.07,0-0.13,0-0.2c0-2.13,0-4.26,0-6.39c0-0.72-0.11-1.42-0.37-2.1c-0.7-1.82-2.05-3.15-4.02-3.98
			c-0.68-0.29-1.42-0.48-2.18-0.55C58.5,154.67,58.18,154.65,57.87,154.62z"/>
	</g>
	<g>
		<g>
			<path class="st0" d="M39.72,188.86c0.85-1.71,2.29-4.38,0.97-8.49c0.02,0.01,18.08,5.53,32.17,0l-0.01,30.02h11.99l-0.06-56.47
				c0-0.01,0.01-0.01,0.01-0.01l13.02,0.01v-10.15c0,0,0,0,0-0.01H16.61c0,0.01,0,0.01-0.01,0.01l7.24,10.1c0,0,0,0,0,0.01h13.08
				c0.01,0,0.01,0,0.01,0l0.02,17.12c0,0,0,0-0.01,0H26.9c-0.25,0-0.49,0.01-0.74,0.03c-0.24,0.02-0.47,0.05-0.7,0.09
				c-5.05,0.95-7.12,6.78-3.97,10.83l27.27,35.06h11.92L39.72,188.86z M22.93,179.07l-0.02-0.08l0.02,0.02V179.07z"/>
		</g>
		<g>
			<path class="st1" d="M68.6,167.85c0.24,0,0.45,0,0.68,0c0,0.33,0,0.66,0,0.99c0.15,0.01,0.28,0.01,0.41,0.02
				c0.73,0.05,1.33,0.55,1.45,1.2c0.12,0.64-0.29,1.3-0.97,1.53c-0.22,0.08-0.48,0.12-0.72,0.12c-1.79,0.01-3.59,0.01-5.38,0.01
				c-3.5,0-7,0-10.5,0c-1.35,0-2.69,0-4.04,0c-1.16,0-1.95-1-1.54-1.95c0.24-0.55,0.83-0.9,1.56-0.92c0.06,0,0.13,0,0.21,0
				c0-0.34,0-0.66,0-1c0.23,0,0.45,0,0.68,0c0-0.06,0.01-0.11,0.01-0.16c0-2.42,0-4.85,0-7.27c0-1.53,0.48-2.94,1.48-4.21
				c0.46-0.59,1.01-1.11,1.65-1.56c1.56-1.08,3.33-1.63,5.32-1.62c0.78,0,1.57-0.02,2.35,0.06c2.11,0.21,3.87,1.04,5.28,2.43
				c0.98,0.97,1.63,2.09,1.91,3.37c0.11,0.49,0.17,1,0.17,1.5c0.02,2.44,0.01,4.88,0.01,7.31C68.6,167.75,68.6,167.79,68.6,167.85z
				 M60.28,154.55c0,0.01,0,0.02-0.01,0.03c0.02,0.01,0.03,0.02,0.05,0.03c0.45,0.16,0.91,0.31,1.35,0.47
				c0.57,0.21,1.07,0.54,1.53,0.89c1.8,1.41,2.72,3.19,2.75,5.29c0.03,2.14,0.01,4.27,0.01,6.41c0,0.05,0,0.11,0,0.17
				c0.62,0,1.21,0,1.82,0c0-0.07,0-0.13,0-0.2c0-2.13,0-4.26,0-6.39c0-0.72-0.11-1.42-0.37-2.1c-0.7-1.82-2.05-3.15-4.02-3.98
				c-0.68-0.29-1.42-0.48-2.18-0.55C60.9,154.59,60.59,154.57,60.28,154.55z"/>
		</g>
	</g>
	<rect x="300.2" y="167.39" class="st0" width="11.87" height="42.13"/>
</g>
</svg>
