<svg xmlns="http://www.w3.org/2000/svg" width="39.358" height="39.358" viewBox="0 0 39.358 39.358"><defs><style>.a{fill:none;}</style></defs><path class="a" d="M0,0H39.358V39.358H0Z"/><path d="M2,25.6v3.28a8.2,8.2,0,0,1,8.2,8.2h3.28A11.471,11.471,0,0,0,2,25.6Zm0,6.56v4.92H6.92A4.913,4.913,0,0,0,2,32.159ZM2,19.039v3.28A14.761,14.761,0,0,1,16.759,37.079h3.28A18.029,18.029,0,0,0,2,19.039ZM26.6,1.016,10.2,1A3.29,3.29,0,0,0,6.92,4.28V16.366a20.123,20.123,0,0,1,3.28,1.05V7.56H26.6V28.879H21.63a21.329,21.329,0,0,1,1.558,6.56H26.6a3.29,3.29,0,0,0,3.28-3.28V4.28A3.275,3.275,0,0,0,26.6,1.016Z" transform="translate(1.28 0.64)"/></svg>